<svg width="55" height="55" viewBox="0 0 55 55" fill="none" xmlns="http://www.w3.org/2000/svg">
<path d="M54.2917 26.2486V28.2108C54.103 29.0033 54.1481 29.8653 54.0463 30.6775C52.5168 42.7609 42.7162 52.498 30.651 54.0518L28.0669 54.2971C27.4544 54.2751 26.8304 54.3283 26.2179 54.2971C0.898428 53.0209 -9.5019 21.3604 10.5173 5.77129C28.1143 -7.9319 53.1559 4.31466 54.2917 26.2486ZM25.6158 5.0424C8.35684 6.19128 -0.994538 26.0287 9.1395 40.1357C18.2188 52.7733 37.3974 52.2539 45.7901 39.1662C55.6475 23.7935 43.7513 3.83568 25.6158 5.0424Z" fill="#2A808C"/>
<path d="M26.5339 10.0002C27.9777 9.75142 29.125 10.3947 29.5395 11.7888L29.5905 26.0509L36.2118 32.7104C38.4197 35.243 35.3342 38.4189 32.7477 36.2878C30.5665 33.8118 27.6188 31.5754 25.5209 29.0787C25.0682 28.5407 24.7753 28.1982 24.7104 27.4647C24.274 22.5429 25.0473 16.9813 24.7151 11.9925C24.81 11.0808 25.6262 10.1564 26.5339 10.0002Z" fill="#2A808C"/>
</svg>
