<svg width="58" height="56" viewBox="0 0 58 56" fill="none" xmlns="http://www.w3.org/2000/svg">
<path d="M30.4787 0C31.2266 0.163172 31.9926 0.223403 32.745 0.381099C36.9474 1.26266 42.8929 5.10541 43.3763 9.57675C43.6316 11.9323 43.5624 16.3369 43.3945 18.7483C43.0926 23.0948 40.0569 27.4238 36.1643 29.5319L36.1893 33.6703L46.9863 36.039C49.9721 36.9293 52.437 39.0484 53.7159 41.7873L58 53.8839V54.7578C57.4144 56.1245 55.6985 56.4311 54.8247 55.1432C53.2189 51.3892 52.336 47.0756 50.7233 43.362C49.9675 41.6219 48.5036 40.115 46.6708 39.4032C46.0943 39.1798 44.1809 38.6443 43.6226 38.6235C43.483 38.618 43.475 38.6421 43.3888 38.7461V42.2439C43.98 42.5549 44.5974 42.6907 45.2034 43.0072C46.7445 43.8121 48.2221 45.5632 48.6568 47.2168C49.0619 48.7576 49.1243 52.7548 48.9269 54.3646C48.827 55.1794 48.2596 55.8386 47.4005 55.9514C46.8671 56.0215 45.486 56.0171 44.9685 55.912C43.0154 55.5156 43.4512 52.4876 45.5405 52.6814C45.4043 50.6785 46.0432 48.3295 44.5792 46.6693C43.4069 45.3398 41.3075 45.0627 39.7743 45.9695C37.2833 47.4413 38.0788 50.3018 37.9528 52.6814C40.0954 52.4975 40.4711 55.6043 38.4352 55.935C37.9336 56.016 36.7113 56.0171 36.1972 55.9613C35.2303 55.8562 34.6345 55.1881 34.5506 54.2715C34.3928 52.5456 34.403 48.6328 34.8638 47.023C35.4959 44.8098 37.6691 42.8977 39.9808 42.3972L39.9865 37.823L35.2417 36.8363L30.4583 44.6302C29.7252 45.7121 28.285 45.711 27.5519 44.6302L22.6687 36.8888L18.0192 37.8186L18.0112 45.9487C22.0252 47.3132 22.8956 52.377 19.4809 54.9144C15.5838 57.8098 10.0264 54.3569 11.0467 49.7268C11.4541 47.8783 12.8454 46.5433 14.6203 45.8523V38.7483C14.5341 38.6443 14.5261 38.6213 14.3865 38.6257C14.0279 38.6377 12.6252 39.0155 12.194 39.1393C11.0932 39.4547 10.0412 39.9738 9.18209 40.7141C6.35631 43.1485 4.99222 51.2304 3.32626 54.8465C2.49781 56.6457 0.0964624 56.1792 0 54.2682C1.52978 50.2919 2.52392 45.6322 4.29315 41.7895C5.5483 39.0637 8.06312 36.9239 11.0228 36.0412L21.6779 33.7546L21.8538 33.5969L21.8141 29.5111C18.5968 27.726 16.099 24.6937 15.1049 21.2298C14.3593 18.6322 14.3842 12.5774 14.6158 9.78044C14.988 5.27187 20.9698 1.19586 25.2652 0.383289L27.5315 0.00219027H30.4764L30.4787 0ZM39.9922 13.3341V9.78154C39.9922 9.11133 38.8403 7.61869 38.3512 7.1018C33.4838 1.96572 24.346 1.99529 19.5467 7.21131C19.0962 7.70082 18.0192 9.1617 18.0192 9.78154V13.3341C19.0292 12.6825 20.3774 10.5821 21.6155 10.5185C22.3021 10.4835 24.0055 11.3793 24.8419 11.6137C27.4089 12.3342 30.4129 12.3474 32.9947 11.6629C33.8674 11.4319 35.6343 10.5131 36.3107 10.512C37.5522 10.5087 38.998 12.6825 39.9922 13.3341ZM39.9774 17.0651C38.2173 16.6545 37.1664 15.2199 35.8545 14.2047C31.4649 15.8561 26.5453 15.8452 22.1569 14.2069C20.8461 15.2199 19.7952 16.6556 18.0351 17.0651C17.6889 24.1965 24.5922 29.4848 31.7724 27.7534C36.6818 26.5696 40.3179 21.9833 39.9774 17.0651ZM32.7439 30.9303C30.2585 31.5096 27.7551 31.5096 25.2686 30.9303V34.5913C25.2686 34.9297 28.4212 39.758 28.8672 40.4052C28.9206 40.4819 28.8332 40.5947 29.0624 40.5487L32.745 34.5913V30.9303H32.7439ZM15.7234 48.9898C15.3568 49.0621 14.8359 49.4968 14.6396 49.8024C13.4764 51.6181 15.7359 53.5203 17.4449 52.2916C19.154 51.0629 17.8898 48.5594 15.7222 48.9898H15.7234Z" fill="#2A808C"/>
</svg>
