<svg width="55" height="55" viewBox="0 0 55 55" fill="none" xmlns="http://www.w3.org/2000/svg">
<path d="M54.7351 25.6441V29.0626L54.1888 32.8508C52.1152 43.0611 44.0914 51.4318 33.9598 53.9054L29.1928 54.6985C28.0219 54.6471 26.8166 54.7695 25.6482 54.6985C1.61362 53.2457 -8.97124 23.1374 9.08621 6.96395C26.0903 -8.26583 53.3388 3.06684 54.7339 25.6441H54.7351ZM25.7462 3.95177C7.49028 5.16717 -2.40256 26.1435 8.31825 41.0648C17.9233 54.4317 38.2074 53.8834 47.0861 40.0391C57.513 23.7824 44.9292 2.67518 25.7462 3.95177Z" fill="#2A808C"/>
<path d="M13.525 31.2853C15.089 31.1629 15.6892 32.8361 16.5429 33.825C22.4906 40.7135 32.2303 40.7123 38.1768 33.825C39.1775 32.6659 40.1537 30.2804 42.1416 31.5705C44.3291 32.9903 41.7202 35.8201 40.5615 37.0612C33.6083 44.5078 22.4563 44.8664 15.0156 37.9143C14.1606 37.115 11.8519 34.5692 11.7441 33.4823C11.6363 32.3954 12.4447 31.3698 13.525 31.2853Z" fill="#2A808C"/>
<path d="M18.7794 15.6687C21.9627 15.2856 25.1778 17.6809 25.4032 20.9464C25.593 23.6967 22.531 24.2719 21.6773 22.3491C21.3833 21.6869 21.6075 21.0529 21.1837 20.4005C20.2736 19.0028 18.0212 19.3761 17.6378 20.9978C17.5656 21.305 17.6182 21.6086 17.5546 21.8913C17.0303 24.2217 13.3902 24.0308 13.689 20.8363C13.9291 18.261 16.2256 15.9747 18.7794 15.6675V15.6687Z" fill="#2A808C"/>
<path d="M34.4215 15.6687C37.6048 15.2856 40.82 17.6809 41.0453 20.9464C41.2352 23.6967 38.1731 24.2719 37.3194 22.3491C37.0255 21.6869 37.2496 21.0529 36.8258 20.4005C35.9158 19.0028 33.6634 19.3761 33.28 20.9978C33.2077 21.305 33.2604 21.6086 33.1967 21.8913C32.6725 24.2217 29.0323 24.0308 29.3312 20.8363C29.5713 18.261 31.8678 15.9747 34.4215 15.6675V15.6687Z" fill="#2A808C"/>
</svg>
