<svg width="50" height="56" viewBox="0 0 50 56" fill="none" xmlns="http://www.w3.org/2000/svg">
<path d="M26.4661 0.00109578C27.0111 0.1819 27.6515 0.158889 28.2228 0.268467C33.2505 1.23385 37.5654 4.98362 39.2694 9.78644C41.7904 16.8926 38.4075 25.1789 33.0333 30.0212L38.8286 32.9754C43.7345 33.2647 48.045 36.4085 49.4728 41.1467C49.6975 41.894 49.7984 42.6654 49.9903 43.4171V54.7914C49.6153 55.4992 49.2523 55.9167 48.4091 56H2.33556C1.42433 55.9101 0.83878 55.3305 0.748864 54.4144C1.12169 49.9622 -0.0505161 44.5282 1.54605 40.327C3.17552 36.0403 7.36869 33.2351 11.9161 32.9754L17.7113 30.0212C12.5378 25.3805 9.18347 17.4306 11.2296 10.525C12.9161 4.8346 18.1401 0.493102 24.1042 0.100812L24.2785 0H26.4672L26.4661 0.00109578ZM36.7506 13.1253C36.0368 8.18988 32.0848 4.17493 27.1449 3.42323C20.7992 2.45894 14.9415 6.81687 13.9929 13.1253H22.5822C23.8278 13.1253 25.5823 11.9068 26.2282 10.8636C26.9596 9.68344 26.7776 9.04021 27.0374 7.84471C27.4048 6.15282 29.9038 6.15392 30.2712 7.84471C30.531 9.04021 30.349 9.68234 31.0804 10.8636C31.7263 11.9068 33.4807 13.1253 34.7264 13.1253H36.7506ZM36.7506 16.4061H34.5082C34.0191 16.4061 32.8184 16.0488 32.3173 15.8615C30.8282 15.3048 29.7689 14.3734 28.6943 13.2425C27.4728 14.3296 26.4508 15.3968 24.8498 15.9382C24.5351 16.0445 23.2631 16.4061 23.0197 16.4061H13.9929C14.561 20.3487 16.4207 24.2519 19.2969 27.0176C20.8836 28.5441 22.796 29.4295 21.2312 32.0802L25.17 37.9886L25.4255 38.1694L29.5123 32.0802C27.9476 29.4284 29.8599 28.543 31.4467 27.0176C34.3306 24.2453 36.164 20.3553 36.7506 16.4061ZM18.3539 33.5901L14.652 35.3806L19.4011 42.329L22.9627 40.521L18.3539 33.5901ZM31.4828 42.3115L36.0916 35.3806L32.53 33.5726L27.7809 40.521L31.4828 42.3115ZM23.7313 43.9661L19.1653 46.127C18.5743 46.2694 17.9701 46.0021 17.5556 45.5999L11.5312 36.5301C11.0564 36.1334 9.10454 36.8961 8.55846 37.1668C6.42568 38.2198 4.0374 41.2398 4.0374 43.6933V52.7159H23.7313V43.9672V43.9661ZM46.7073 52.7148V43.6922C46.7073 41.2387 44.3179 38.2187 42.1862 37.1657C41.6401 36.8961 39.6883 36.1335 39.2135 36.529L33.189 45.5988C32.7746 45.9999 32.1704 46.2673 31.5793 46.1259L27.0133 43.965V52.7137H46.7073V52.7148Z" fill="#2A808C"/>
<path d="M34.8613 46.1772C35.6113 46.0249 41.3923 46.0249 42.1424 46.1772C43.8793 46.5301 43.8091 49.1512 42.0513 49.4273C41.128 49.572 35.7177 49.5829 34.8613 49.4098C33.1748 49.0668 33.1693 46.5213 34.8613 46.1783V46.1772Z" fill="#2A808C"/>
</svg>
