<?xml version="1.0" encoding="UTF-8"?>
<svg version="1.1" xmlns="http://www.w3.org/2000/svg" width="1024" height="1024">
<path d="M0 0 C337.92 0 675.84 0 1024 0 C1024 337.92 1024 675.84 1024 1024 C686.08 1024 348.16 1024 0 1024 C0 686.08 0 348.16 0 0 Z " fill="#FAF9F8" transform="translate(0,0)"/>
<path d="M0 0 C2.12683485 0.00909744 4.25363413 0.01301622 6.38048553 0.01612854 C27.45005174 0.06085655 48.02890659 0.95573549 68.8368454 4.44642639 C70.75411016 4.71964217 72.67205388 4.98815026 74.59075165 5.25111389 C131.32259581 13.49299155 188.67234183 35.68654863 236.8368454 66.44642639 C237.82998749 67.07943665 237.82998749 67.07943665 238.84319305 67.72523499 C258.07377282 80.07761706 276.61313286 93.7514376 293.4305954 109.25111389 C294.7797989 110.48204306 296.13756409 111.70424122 297.52410126 112.89295959 C303.42411772 117.95426648 308.91616647 123.3772649 314.3993454 128.88392639 C315.7596286 130.23840881 315.7596286 130.23840881 317.14739227 131.62025452 C322.25413985 136.73440854 327.14639556 141.949934 331.8368454 147.44642639 C332.76216164 148.49486362 333.68916389 149.541816 334.6180954 150.58705139 C355.76628652 174.65609285 373.42108113 201.54371794 388.80901337 229.58753967 C389.7609278 231.30912554 390.73732288 233.01711372 391.71575165 234.72377014 C432.27437245 307.28898524 447.77191279 398.41037473 437.8368454 480.44642639 C437.71325653 481.56452698 437.58966766 482.68262756 437.46233368 483.83460999 C434.05142031 514.51629255 426.47515101 543.90395205 417.8368454 573.44642639 C414.71547141 571.8857394 414.4070289 568.77417834 413.3368454 565.63392639 C410.89556284 558.79802044 407.96763189 552.30722639 404.7118454 545.82142639 C404.29225555 544.98119934 403.87266571 544.14097229 403.44036102 543.27528381 C401.63109066 539.71855268 399.94040905 536.57870076 397.4696579 533.42298889 C395.10828295 529.11828145 395.90684438 526.13555199 396.8368454 521.44642639 C397.00796844 520.49606506 397.17909149 519.54570374 397.35540009 518.56654358 C397.95143559 515.31348235 398.58086884 512.06788002 399.2118454 508.82142639 C400.88310068 499.99186882 402.41548562 491.16946477 403.5868454 482.25892639 C403.70205536 481.4015387 403.81726532 480.544151 403.93596649 479.66078186 C405.85126756 464.41081286 406.07733833 449.10687269 406.0868454 433.75892639 C406.08752014 432.77053772 406.08819489 431.78214905 406.08889008 430.7638092 C406.0709721 414.1466405 405.28034749 397.90728681 402.8368454 381.44642639 C402.66523895 380.26806213 402.49363251 379.08969788 402.31682587 377.87562561 C396.74876336 340.66066627 386.24114037 304.76947771 370.8368454 270.44642639 C370.3914743 269.44869202 369.94610321 268.45095764 369.48723602 267.42298889 C359.18052831 244.57088095 346.63737753 222.6975184 331.8368454 202.44642639 C331.35795868 201.78642639 330.87907196 201.12642639 330.38567352 200.44642639 C321.59503875 188.37502156 312.16581906 176.99217113 302.1024704 165.95814514 C300.22789924 163.87995678 298.39541836 161.77606195 296.56731415 159.65736389 C292.84336522 155.39409473 288.91248687 151.37384814 284.8993454 147.38392639 C284.23483368 146.71554749 283.57032196 146.04716858 282.88567352 145.35853577 C278.36804291 140.84966875 273.69624489 136.58347462 268.8368454 132.44642639 C267.88829681 131.63782166 267.88829681 131.63782166 266.92058563 130.81288147 C250.15227679 116.63023004 232.66467095 103.76351287 213.8368454 92.44642639 C213.03085907 91.95964417 212.22487274 91.47286194 211.39446259 90.97132874 C173.34271586 68.1568184 131.31797462 51.42128861 87.8368454 42.44642639 C86.8144577 42.23534241 85.79207001 42.02425842 84.73870087 41.80677795 C43.13188195 33.37271226 0.08927905 30.57025251 -42.1631546 35.44642639 C-43.03891144 35.53762756 -43.91466827 35.62882874 -44.8169632 35.72279358 C-82.1418271 39.61293299 -118.40203363 49.45050137 -153.1631546 63.44642639 C-154.07387726 63.81235901 -154.98459991 64.17829163 -155.92292023 64.55531311 C-168.75707875 69.76487746 -181.05630797 75.72434042 -193.1631546 82.44642639 C-193.93336945 82.87149475 -194.70358429 83.29656311 -195.49713898 83.73451233 C-212.84847984 93.3668983 -229.51942033 104.22611319 -245.1631546 116.44642639 C-246.3112398 117.3270942 -247.45969707 118.2072771 -248.6084671 119.08705139 C-255.15128306 124.12864423 -261.42388282 129.32620512 -267.4678421 134.96205139 C-269.57982873 136.90875211 -271.71778428 138.7920557 -273.89362335 140.66517639 C-278.65453784 144.81783877 -283.13675093 149.22849433 -287.6006546 153.69642639 C-288.43959259 154.53544495 -289.27853058 155.3744635 -290.14289093 156.23890686 C-295.19050556 161.33326321 -299.93554269 166.46966502 -304.3428421 172.13002014 C-306.12867441 174.40254924 -308.01554349 176.51113399 -309.9756546 178.63392639 C-378.8405642 255.64852943 -405.80842261 363.36956839 -401.02576447 464.34718323 C-399.47114862 489.8885488 -394.88504611 515.67479948 -387.93268585 540.27333069 C-387.1631546 543.44642639 -387.1631546 543.44642639 -387.1631546 547.44642639 C-386.28530304 547.46769592 -386.28530304 547.46769592 -385.3897171 547.48939514 C-369.48834078 548.37280494 -355.08360588 554.38160323 -340.9756546 561.32142639 C-339.54728587 562.01161208 -338.11824854 562.70041579 -336.68854523 563.38783264 C-333.88155417 564.73925328 -331.0772325 566.0959698 -328.27497101 567.45716858 C-324.18981058 569.4374332 -320.09448001 571.39490619 -315.98737335 573.32923889 C-314.81650177 573.88240784 -313.64563019 574.43557678 -312.43927765 575.00550842 C-305.3232924 578.13529044 -299.65919317 578.78376007 -291.9756546 578.75892639 C-290.9979007 578.77503967 -290.02014679 578.79115295 -289.01276398 578.80775452 C-279.30424653 578.81417125 -270.77508681 576.62660305 -262.1631546 572.19642639 C-261.57268341 571.89414124 -260.98221222 571.59185608 -260.37384796 571.28041077 C-256.68796457 569.3576008 -253.19358139 567.23433054 -249.7256546 564.94642639 C-230.77192218 552.61541626 -210.77126218 547.94402163 -188.29987335 550.96595764 C-173.55651059 554.29510407 -159.73044465 562.35103176 -146.59406281 569.58705139 C-130.07335309 578.63333631 -114.08742929 582.29524513 -95.52643585 576.97767639 C-85.32188449 573.6658165 -75.84276913 567.79306047 -66.7881546 562.13392639 C-55.83611035 555.3868555 -43.57508138 552.04216227 -30.7881546 552.19642639 C-29.9530838 552.20464417 -29.118013 552.21286194 -28.25763702 552.22132874 C-8.3908495 552.58040195 7.65540897 561.13275175 24.85637665 570.32533264 C34.96470791 575.84884013 34.96470791 575.84884013 45.8368454 579.44642639 C45.72091034 580.14614563 45.60497528 580.84586487 45.48552704 581.56678772 C44.95273145 584.79684434 44.42601027 588.02786472 43.8993454 591.25892639 C43.71694305 592.35914124 43.53454071 593.45935608 43.34661102 594.59291077 C39.23135446 619.95785574 38.20743716 648.25959097 43.8368454 673.44642639 C44.04083954 674.41257874 44.24483368 675.37873108 44.45500946 676.37416077 C55.11879602 726.44894309 82.8306833 770.10213694 125.78606415 798.74623108 C144.19841087 810.63832924 164.59246804 820.0333264 185.8368454 825.44642639 C186.70954071 825.67201233 187.58223602 825.89759827 188.48137665 826.13002014 C190.26312096 826.5824771 192.04931026 827.01741796 193.8368454 827.44642639 C193.8368454 828.10642639 193.8368454 828.76642639 193.8368454 829.44642639 C105.35162618 873.36169332 8.06203698 886.70343323 -133.4053421 853.38783264 C-188.06389877 834.96587465 -238.56644295 806.61858659 -282.30182648 769.00428772 C-283.68558525 767.8461339 -285.09168178 766.71456374 -286.50885773 765.59754944 C-294.04090002 759.62178845 -300.81393133 753.07087347 -307.57135773 746.24403381 C-309.41910058 744.3779213 -311.27483425 742.52004927 -313.1319046 740.66322327 C-319.01793196 734.75976108 -324.79135728 728.82815184 -330.1631546 722.44642639 C-331.02038116 721.47060608 -331.87760773 720.49478577 -332.76081085 719.48939514 C-350.56635441 698.86205387 -365.52351079 675.98669637 -379.1631546 652.44642639 C-379.63108429 651.63979553 -380.09901398 650.83316467 -380.58112335 650.00209045 C-408.92141152 600.76381667 -426.3987563 544.89261521 -433.4131546 488.63392639 C-433.49623871 487.96805511 -433.57932281 487.30218384 -433.66492462 486.61613464 C-435.49701773 471.75288213 -436.3274165 457.15555249 -436.2935257 442.19276428 C-436.28821083 439.41332933 -436.29347651 436.63405929 -436.29987335 433.85462952 C-436.30809123 416.59900128 -435.71150181 399.45172208 -433.5381546 382.32142639 C-433.45456696 381.65921082 -433.37097931 380.99699524 -433.2848587 380.31471252 C-427.70682876 336.77630211 -415.40421048 294.34919787 -397.1631546 254.44642639 C-396.79754425 253.63157776 -396.4319339 252.81672913 -396.05524445 251.97718811 C-374.269545 203.45494669 -342.29539276 160.61436609 -304.9131546 123.07142639 C-304.16855988 122.32215881 -303.42396515 121.57289124 -302.65680695 120.80091858 C-297.98736929 116.14497341 -293.17173857 111.73357082 -288.1631546 107.44642639 C-287.19893585 106.60080139 -286.2347171 105.75517639 -285.2412796 104.88392639 C-212.1972854 41.92888166 -114.92689323 2.05261262 0 0 Z " fill="#282C2B" transform="translate(510.1631546020508,75.55357360839844)"/>
<path d="M0 0 C2.52040664 0.01611263 5.03921081 0.00001365 7.55957031 -0.01904297 C22.2620127 -0.03820999 36.80557373 1.72083292 51.02050781 5.57861328 C51.78983643 5.78583008 52.55916504 5.99304688 53.35180664 6.20654297 C96.31156401 18.3550168 133.77427738 49.1059507 155.89550781 87.57861328 C179.8682416 131.49504997 184.19819999 180.08988413 170.46972656 228.06298828 C158.00311594 267.99041476 131.82379757 301.28312301 96.52050781 323.39111328 C95.52277344 324.02364014 95.52277344 324.02364014 94.50488281 324.66894531 C77.02044999 335.67596302 58.68134585 342.87275064 38.52050781 347.39111328 C37.66569824 347.58688965 36.81088867 347.78266602 35.93017578 347.984375 C26.79529372 349.79776313 17.61909999 349.76332791 8.34228516 349.76171875 C5.5534006 349.76606206 2.76614212 349.80240191 -0.02246094 349.84033203 C-45.14080143 350.12107457 -86.3901171 328.96986158 -118.47949219 298.39111328 C-119.2696875 297.65376953 -120.05988281 296.91642578 -120.87402344 296.15673828 C-144.05652358 273.90803412 -159.78080268 241.5187538 -166.47949219 210.39111328 C-166.74439453 209.17053223 -167.00929688 207.94995117 -167.28222656 206.69238281 C-169.36696152 196.45217571 -169.94873852 186.4982711 -169.87060547 176.0625 C-169.85454432 173.52435237 -169.87055025 170.98780657 -169.88964844 168.44970703 C-169.91016437 153.26846877 -168.12653673 138.33774956 -163.72949219 123.76611328 C-163.47200195 122.89623779 -163.21451172 122.0263623 -162.94921875 121.13012695 C-149.82473641 78.01076676 -119.40651041 40.88671457 -79.66308594 19.55126953 C-69.11708187 14.04415958 -58.47124251 9.43390171 -47.04199219 6.07861328 C-46.26960205 5.84827393 -45.49721191 5.61793457 -44.70141602 5.38061523 C-30.02811368 1.32248585 -15.17589513 -0.11474601 0 0 Z " fill="#282B2A" transform="translate(739.4794921875,536.60888671875)"/>
<path d="M0 0 C4.9604006 4.1603536 9.63209877 8.48797062 14.20117188 13.07177734 C14.88345352 13.75230667 15.56573517 14.432836 16.26869202 15.13398743 C18.5045521 17.36547664 20.73676974 19.60056812 22.96875 21.8359375 C24.53366756 23.40018058 26.09873347 24.96427526 27.66394043 26.52822876 C30.93693067 29.79974841 34.2081151 33.07306019 37.47802734 36.34765625 C41.65392034 40.52924138 45.83428067 44.70632702 50.0160141 48.88207054 C53.24701418 52.10944373 56.4756122 55.33921146 59.70350647 58.5696907 C61.2432379 60.11008576 62.78370295 61.64974789 64.32493591 63.18864059 C66.48533974 65.34648337 68.6424758 67.50754306 70.79882812 69.66943359 C71.42656631 70.29514755 72.0543045 70.92086151 72.70106506 71.5655365 C75.72695387 74.60571967 78.63922552 77.69609642 81.44142151 80.94439697 C85.15188396 85.23362734 89.11083769 89.230162 93.13842773 93.22021484 C93.91973557 93.99845612 94.7010434 94.77669739 95.50602722 95.57852173 C97.18818725 97.2535734 98.87147346 98.92749473 100.55578423 100.60038376 C103.2180922 103.24520941 105.87676102 105.89364378 108.53443909 108.54312134 C116.08600833 116.07030314 123.64328812 123.59172874 131.20483398 131.10888672 C135.84030591 135.71723442 140.47054349 140.33080606 145.09800911 144.94719315 C146.86287081 146.70582985 148.6296297 148.4625647 150.398283 150.21738815 C152.85914717 152.65915955 155.31390383 155.10691493 157.76733398 157.55615234 C158.50439575 158.28445251 159.24145752 159.01275269 160.00085449 159.76312256 C160.9953788 160.75960312 160.9953788 160.75960312 162.00999451 161.7762146 C162.59085029 162.35392797 163.17170607 162.93164135 163.77016354 163.52686119 C165 165 165 165 165 167 C165.99 167.33 166.98 167.66 168 168 C169.47485352 169.49609375 169.47485352 169.49609375 171.06640625 171.4375 C175.4203037 176.56916551 180.15780626 181.26755799 184.9375 186 C186.24944336 187.30517578 186.24944336 187.30517578 187.58789062 188.63671875 C189.72297449 190.76013549 191.86037205 192.88116378 194 195 C190.71857469 198.39456261 187.29634843 200.90897849 183.25 203.3125 C182.59314209 203.70276367 181.93628418 204.09302734 181.25952148 204.49511719 C149.59451312 222.881009 111.93937696 228.31703994 76.32421875 219.48046875 C52.11861542 212.95712531 31.53187839 200.75869286 13 184 C12.236875 183.31035156 11.47375 182.62070312 10.6875 181.91015625 C-13.53954367 158.80654404 -28.14746058 124.41019655 -29.21875 91.2109375 C-29.87960876 59.12450547 -22.76083193 24.19561217 0 0 Z " fill="#F9F9F8" transform="translate(634,628)"/>
<path d="M0 0 C37.21381213 -1.1545133 71.44661852 13.05453648 98.4609375 38.07421875 C99.20472656 38.77417969 99.94851563 39.47414063 100.71484375 40.1953125 C101.36582031 40.78183594 102.01679687 41.36835937 102.6875 41.97265625 C118.19238778 56.52241747 128.94356701 76.04094332 135.71484375 96.0078125 C135.98143799 96.79373779 136.24803223 97.57966309 136.52270508 98.3894043 C140.5104516 111.00802245 142.21058419 123.49297605 142.05102539 136.67749023 C142.02730407 138.76129803 142.03051858 140.84382394 142.03710938 142.92773438 C142.01250958 156.43609841 140.56500912 169.3153082 136.08984375 182.1328125 C135.73792969 183.16059814 135.38601563 184.18838379 135.0234375 185.24731445 C131.95451954 193.97011309 128.27835495 202.16065471 123.71484375 210.1953125 C123.35825684 210.83162598 123.00166992 211.46793945 122.63427734 212.12353516 C118.15945772 220.02978132 118.15945772 220.02978132 115.71484375 223.1953125 C112.71484375 223.1953125 112.71484375 223.1953125 110.88160324 221.73400879 C110.19289768 221.04383667 109.50419212 220.35366455 108.7946167 219.64257812 C108.00126419 218.85479477 107.20791168 218.06701141 106.39051819 217.25535583 C105.52398117 216.37960403 104.65744415 215.50385223 103.76464844 214.6015625 C102.8488652 213.68782364 101.93308197 212.77408478 100.98954773 211.83265686 C98.472138 209.32039301 95.96419127 206.7988699 93.45791912 204.27550125 C90.83039336 201.63294418 88.19476869 198.99848873 85.56011963 196.36303711 C81.12993346 191.92915393 76.70542722 187.48966805 72.28466797 183.04638672 C66.62811133 177.36106907 60.96243174 171.68493695 55.29371262 166.01174927 C50.40678424 161.12082173 45.52411656 156.22564683 40.64211369 151.32980347 C39.08077321 149.76438409 37.51886155 148.19953636 35.95687103 146.63476562 C33.02898903 143.70102355 30.10555699 140.76288485 27.18261719 137.82421875 C26.32417709 136.9646608 25.465737 136.10510284 24.58128357 135.21949768 C20.36426516 130.97255281 16.31735769 126.65112653 12.41254044 122.11662292 C9.43662729 118.74873454 6.24371516 115.60210107 3.0546875 112.4375 C2.323638 111.70791077 1.5925885 110.97832153 0.83938599 110.22662354 C-0.73469011 108.65632765 -2.30991948 107.0871871 -3.88619995 105.519104 C-6.38626075 103.03190663 -8.88309697 100.54151158 -11.37915039 98.05029297 C-16.67834434 92.76247936 -21.98145592 87.47860567 -27.28515625 82.1953125 C-33.43519633 76.06893606 -39.58358509 69.94092124 -45.72775269 63.80865479 C-48.17785723 61.3649937 -50.63097318 58.92438402 -53.08422852 56.48388672 C-54.5979682 54.97378235 -56.1115661 53.46353583 -57.625 51.953125 C-58.29949188 51.28379944 -58.97398376 50.61447388 -59.66891479 49.92486572 C-63.50820233 46.08600176 -67.15740429 42.13996515 -70.68751526 38.01437378 C-73.09427306 35.27405856 -75.67523817 32.74157404 -78.28515625 30.1953125 C-76.97292691 26.25862447 -74.58691597 25.10662089 -71.22265625 23.0078125 C-70.5977832 22.61489014 -69.97291016 22.22196777 -69.32910156 21.81713867 C-51.88579915 11.05236392 -33.56817797 4.2018666 -13.28515625 1.1953125 C-12.40859375 1.06382812 -11.53203125 0.93234375 -10.62890625 0.796875 C-7.09328775 0.36081539 -3.55494083 0.21135201 0 0 Z " fill="#F9F9F8" transform="translate(740.28515625,572.8046875)"/>
<path d="M0 0 C4.16658481 1.5624693 5.45469423 3.4888489 8 7.125 C9.18695553 10.68586658 9.35095418 14.09831024 9.5625 17.8125 C9.60568359 18.51439453 9.64886719 19.21628906 9.69335938 19.93945312 C9.7991736 21.66775206 9.90006581 23.3963511 10 25.125 C10.59167969 25.23457031 11.18335938 25.34414062 11.79296875 25.45703125 C15.57205083 26.21531363 18.50648347 26.81792305 21.8125 28.875 C22.534375 29.2875 23.25625 29.7 24 30.125 C28.69791869 28.49224788 31.8950917 24.52244152 35.3671875 21.12109375 C38.36488435 18.8483592 40.26851895 18.3002353 44 18.125 C46.375 19.5625 46.375 19.5625 48 22.125 C48.60086286 25.45705771 48.87632439 26.99360084 48 30.125 C44.89744183 34.49284726 40.74642331 37.67987284 36 40.125 C36.44549979 42.72374875 36.9057323 44.93091943 38.0625 47.3125 C39.47228741 51.54186222 39.15446383 55.70561806 39 60.125 C40.97033203 60.16367188 40.97033203 60.16367188 42.98046875 60.203125 C44.7161785 60.25941829 46.4518543 60.31676535 48.1875 60.375 C49.05181641 60.38917969 49.91613281 60.40335938 50.80664062 60.41796875 C54.95606203 60.57695041 57.44868745 60.79757072 61.078125 62.953125 C63 65.125 63 65.125 63.5625 68.625 C63 72.125 63 72.125 61.625 74.5625 C54.58447333 78.75328969 44.57415416 75.58256919 37 74.125 C35.02 76.765 33.04 79.405 31 82.125 C32.9064904 85.93798079 34.48246667 87.79243149 37.5 90.6875 C43.82822714 96.77944593 43.82822714 96.77944593 44.375 101.0625 C44 104.125 44 104.125 42.4375 106.5 C39.02630434 108.77413044 37.04442823 108.64067525 33 108.125 C30.73571662 106.16005251 29.08333979 104.48831532 27.25 102.1875 C23.81186288 97.7639758 23.81186288 97.7639758 19 95.125 C17.39270369 96.70515623 15.78928424 98.28925652 14.1875 99.875 C13.29417969 100.75671875 12.40085937 101.6384375 11.48046875 102.546875 C7.50504047 106.19703563 7.50504047 106.19703563 5.96484375 111.04296875 C7.77801177 114.68983122 11.0897057 117.16910838 14.13867188 119.79492188 C17.04603333 122.488899 17.96576029 123.83775003 18.44140625 127.828125 C18 131.125 18 131.125 16.375 133.5625 C14 135.125 14 135.125 11.25 135.8125 C4.15533984 134.3117065 -0.70172273 127.63216775 -5 122.125 C-8.59844449 123.64142877 -10.85713143 125.77473442 -13.5625 128.5625 C-14.32691406 129.34496094 -15.09132813 130.12742187 -15.87890625 130.93359375 C-16.57886719 131.65675781 -17.27882813 132.37992188 -18 133.125 C-18.99780462 134.12719057 -19.99680002 135.12821025 -21 136.125 C-19.66481848 139.72999011 -17.47327315 141.41609413 -14.53125 143.78125 C-10.83690882 147.02322288 -9.13873767 149.95563966 -8.5625 154.8125 C-9 158.125 -9 158.125 -10 160.125 C-13.31338683 161.78169342 -16.57232669 161.1547223 -20 160.125 C-22.52058208 158.40698788 -24.47078825 156.32724526 -26.5 154.0625 C-27.03625 153.49466797 -27.5725 152.92683594 -28.125 152.34179688 C-29.43333073 150.95169547 -30.71908861 149.54040709 -32 148.125 C-35.97579101 149.70975586 -38.32527058 152.31314617 -41.1875 155.4375 C-42.06792969 156.38238281 -42.94835937 157.32726562 -43.85546875 158.30078125 C-46.67323791 161.8417483 -46.67323791 161.8417483 -47 166.125 C-44.37109357 168.90348859 -41.64652394 171.19550459 -38.66992188 173.57617188 C-34.11010888 177.42988515 -34.11010888 177.42988515 -33.48828125 181.35546875 C-34 184.125 -34 184.125 -35.625 186.5 C-38 188.125 -38 188.125 -40.6875 188.8125 C-46.89863535 187.52339644 -51.59459793 182.81203302 -55.6875 178.125 C-57.8528584 175.8115522 -57.8528584 175.8115522 -60.875 176.125 C-64.38814942 177.24920781 -67.64906526 178.58357002 -71 180.125 C-70.835 181.176875 -70.67 182.22875 -70.5 183.3125 C-70.03839066 187.16383763 -69.80551877 190.99786484 -69.6875 194.875 C-69.63142578 196.50695312 -69.63142578 196.50695312 -69.57421875 198.171875 C-70.09733752 201.8001116 -71.13032668 202.92159453 -74 205.125 C-76.5 205.625 -76.5 205.625 -79 205.125 C-84.16346163 200.96554479 -84.32639418 196.18076789 -85.0625 189.9375 C-85.15337891 189.18791016 -85.24425781 188.43832031 -85.33789062 187.66601562 C-85.5613731 185.81934465 -85.78105513 183.97221446 -86 182.125 C-86.61488281 182.00382813 -87.22976563 181.88265625 -87.86328125 181.7578125 C-89.07564453 181.50644531 -89.07564453 181.50644531 -90.3125 181.25 C-91.51326172 181.00636719 -91.51326172 181.00636719 -92.73828125 180.7578125 C-95 180.125 -95 180.125 -98 178.125 C-100.41463203 177.59833093 -100.41463203 177.59833093 -103 178.125 C-105.59648303 179.97318925 -105.59648303 179.97318925 -108 182.4375 C-115.56406798 189.77700971 -115.56406798 189.77700971 -121.0625 190.5625 C-124 190.125 -124 190.125 -126.375 188.5625 C-128.69703985 185.07944023 -128.77893177 183.23209477 -128 179.125 C-124.13947262 174.31975142 -118.25004322 171.20684355 -113 168.125 C-113.43028431 164.59666863 -114.10377959 161.89253372 -115.5625 158.625 C-117.00360504 155.11622252 -117.27362967 152.86460553 -117 149.125 C-117.78375 149.29 -118.5675 149.455 -119.375 149.625 C-127.01140835 150.6782977 -133.1034836 150.79335979 -140 147.125 C-141 146.125 -141 146.125 -141.25 142.75 C-141 139.125 -141 139.125 -139.78808594 137.40625 C-137.41459361 135.70552803 -136.03591128 135.85269026 -133.140625 136 C-122.40622435 136.71705325 -122.40622435 136.71705325 -112.95703125 132.7265625 C-111.12271727 129.8446094 -109.82143718 127.43991218 -109 124.125 C-110.29381478 120.24355565 -112.16639893 119.1844822 -115.375 116.6875 C-121.83026313 111.65443864 -121.83026313 111.65443864 -124 108.125 C-124.38050713 105.01752511 -124.48549091 103.03529546 -123 100.25 C-119.66964212 98.37667369 -116.62129503 98.21320965 -113 99.125 C-109.36546536 101.51016336 -106.48158638 104.57432409 -103.4921875 107.703125 C-102.36367829 108.878937 -101.18578478 110.00697435 -100 111.125 C-95.75835214 111.125 -93.93159802 108.69560973 -91 105.9375 C-90.46632813 105.45474609 -89.93265625 104.97199219 -89.3828125 104.47460938 C-86.29239232 101.61097376 -83.98592634 98.89688093 -82 95.125 C-83.40765625 93.83916016 -83.40765625 93.83916016 -84.84375 92.52734375 C-86.06341044 91.37335733 -87.28211068 90.21835546 -88.5 89.0625 C-89.43005859 88.22041992 -89.43005859 88.22041992 -90.37890625 87.36132812 C-93.5939094 84.26997894 -94.89656634 82.90115333 -95.50390625 78.34375 C-95 75.125 -95 75.125 -93.4375 72.6875 C-89.98028005 70.47133336 -88.05788797 70.54590557 -84 71.125 C-81.42905192 73.12726252 -79.54192152 75.55200039 -77.5625 78.125 C-77.02173828 78.79273438 -76.48097656 79.46046875 -75.92382812 80.1484375 C-74.59703423 81.79225295 -73.29589701 83.45671879 -72 85.125 C-68.42170892 83.57247 -65.8310783 81.40930104 -62.9375 78.8125 C-62.08027344 78.05324219 -61.22304688 77.29398437 -60.33984375 76.51171875 C-58.0623089 74.18855716 -56.53953315 71.97692207 -55 69.125 C-55.44730469 68.67769531 -55.89460938 68.23039062 -56.35546875 67.76953125 C-57.61133234 66.51366766 -58.86376991 65.25437137 -60.11328125 63.9921875 C-61.65413619 62.46728344 -63.25667246 61.00492237 -64.875 59.5625 C-67.45212303 56.60638829 -68.16359066 55.05117575 -68 51.125 C-65.9375 48.25 -65.9375 48.25 -63 46.125 C-59.20189181 45.5971975 -57.57052605 45.72348693 -54.40234375 47.953125 C-53.18224609 49.15195313 -53.18224609 49.15195313 -51.9375 50.375 C-48.73235186 53.47381621 -45.52231992 56.38751072 -42 59.125 C-41.67 58.135 -41.34 57.145 -41 56.125 C-39.29296875 54.44140625 -39.29296875 54.44140625 -37.1875 52.6875 C-36.47078125 52.07261719 -35.7540625 51.45773438 -35.015625 50.82421875 C-33.49535772 49.54259807 -31.96809246 48.2692718 -30.4375 47 C-28.75410069 45.21261458 -28.75410069 45.21261458 -29.06640625 42.8125 C-30.68346888 38.15752473 -34.78279989 35.82486916 -38.53125 32.8203125 C-41.5516817 29.52268928 -41.95892543 27.5507847 -42 23.125 C-40 20.125 -40 20.125 -37 18.125 C-33.65122523 18.11708327 -31.11883876 18.26941742 -28.38964844 20.35644531 C-26.81400786 21.93612859 -25.33359055 23.56171015 -23.875 25.25 C-21.98947111 27.42785895 -20.19456416 29.21746331 -18 31.125 C-15.39498219 31.24152757 -15.39498219 31.24152757 -13 30.125 C-12.18917969 29.87621094 -11.37835938 29.62742188 -10.54296875 29.37109375 C-9.76566406 29.10425781 -8.98835937 28.83742187 -8.1875 28.5625 C-7.00220703 28.15837891 -7.00220703 28.15837891 -5.79296875 27.74609375 C-4.90544922 27.43865234 -4.90544922 27.43865234 -4 27.125 C-4.28484846 25.39469709 -4.57819938 23.66579286 -4.875 21.9375 C-5.03742188 20.97457031 -5.19984375 20.01164062 -5.3671875 19.01953125 C-5.98137369 16.21019811 -6.92216513 13.7821929 -8 11.125 C-8.4375 7.5625 -8.4375 7.5625 -8 4.125 C-5.40345653 1.07024298 -4.01952678 0.16748028 0 0 Z " fill="#282B2A" transform="translate(410,165.875)"/>
<path d="M0 0 C1.0209375 -0.01160156 1.0209375 -0.01160156 2.0625 -0.0234375 C4.64441251 0.50752031 5.49646843 1.21251323 7 3.375 C7.328125 5.90625 7.328125 5.90625 7.25 8.875 C7.21132812 10.46054687 7.21132812 10.46054687 7.171875 12.078125 C6.9225797 16.86006208 6.52464676 21.61570443 6 26.375 C6.60585937 26.40078125 7.21171875 26.4265625 7.8359375 26.453125 C14.51604747 26.90531706 19.92814517 28.59744939 26 31.375 C26.24878906 30.66730469 26.49757813 29.95960938 26.75390625 29.23046875 C28.14716795 26.03775934 29.88007126 23.49587108 31.9375 20.6875 C32.62714844 19.73488281 33.31679688 18.78226562 34.02734375 17.80078125 C36 15.375 36 15.375 39 13.375 C42.68256285 13.5065201 45.09748237 13.64170443 48 16 C49.47090589 19.4934015 48.85744751 21.70788074 48 25.375 C46.38517176 27.67388743 44.88655764 29.5917101 43 31.625 C39.34111146 35.57301706 39.34111146 35.57301706 37 40.375 C39.20585793 42.58711062 41.44295507 44.76470875 43.6875 46.9375 C44.31333984 47.56591797 44.93917969 48.19433594 45.58398438 48.84179688 C49.08926598 52.38652124 49.08926598 52.38652124 53.73046875 53.51953125 C56.38338456 52.18165804 57.76863645 50.81409702 59.625 48.5 C65.37004043 41.45517667 65.37004043 41.45517667 69.4375 40.9375 C73 41.375 73 41.375 75.4375 43 C77.54103258 46.19736952 77.73945225 47.60379353 77 51.375 C73.67657945 56.57738623 68.75876775 60.5313799 64 64.375 C68.36211899 71.04230383 73.63099818 75.642303 80 80.375 C83.75898723 77.22972497 87.22518104 74.14611362 90.5 70.5 C93.16462284 67.78736594 93.78911759 67.41014707 97.75 66.75 C101 67.375 101 67.375 102.9375 68.4375 C104.71095839 71.67145354 104.53708717 73.73474255 104 77.375 C101.03034557 82.75303397 96.83787541 86.68899968 92 90.375 C93.65863505 94.70004836 96.871041 97.46918825 100.125 100.625 C100.68832031 101.17929687 101.25164062 101.73359375 101.83203125 102.3046875 C103.21686028 103.66604485 104.60783204 105.02114859 106 106.375 C109.71163854 104.79668641 112.26870282 102.43316746 115.25 99.75 C121.28166486 94.73436424 121.28166486 94.73436424 125.5 94.625 C129 95.375 129 95.375 131.0625 96.4375 C132.64328326 99.70445208 131.94464797 101.95065111 131 105.375 C128.9375 107.875 128.9375 107.875 126 110.375 C124.56198303 111.64524832 123.12450515 112.91610714 121.6875 114.1875 C120.45985685 115.25175995 119.23121385 116.31487294 118 117.375 C119.22885827 119.91537517 120.52015109 122.17886987 122.0625 124.5625 C123.75167035 127.44892875 124.3253738 129.78719397 124.62109375 133.11328125 C124.69642334 133.91419189 124.77175293 134.71510254 124.84936523 135.5402832 C124.92392944 136.44846802 124.92392944 136.44846802 125 137.375 C126.95292969 137.17970703 126.95292969 137.17970703 128.9453125 136.98046875 C130.67175982 136.83972576 132.3983298 136.70048171 134.125 136.5625 C134.9809375 136.47291016 135.836875 136.38332031 136.71875 136.29101562 C141.10377573 135.97057144 144.05707851 135.88434443 147.6171875 138.66796875 C150 141.375 150 141.375 150 144.5 C149 147.375 149 147.375 147 150.375 C144.88037109 150.61694336 144.88037109 150.61694336 142.2734375 150.46484375 C132.36796351 149.71857837 132.36796351 149.71857837 123.18164062 152.52246094 C119.00446183 156.76589843 117 161.50741136 117 167.375 C118.93734696 169.979524 118.93734696 169.979524 121.4375 172.5 C126.87315344 178.23338093 126.87315344 178.23338093 127.375 182.75 C127 186.375 127 186.375 124.875 188.875 C122 190.375 122 190.375 119.13671875 190.40625 C114.67496061 188.93937061 113.33272976 186.25626545 110.9375 182.375 C108.11484514 177.56783382 108.11484514 177.56783382 103.75390625 174.3125 C99.69755985 174.40455893 95.91168626 175.34381473 92 176.375 C91.88724731 177.19907349 91.88724731 177.19907349 91.7722168 178.03979492 C91.42220591 180.54913221 91.05502211 183.05567011 90.6875 185.5625 C90.56955078 186.42681641 90.45160156 187.29113281 90.33007812 188.18164062 C89.57118165 193.26040931 88.78653199 197.58846801 85 201.375 C81.26429809 201.72742471 78.82541084 201.82897596 75.5 200 C71.34989052 192.73730841 76.25808404 180.97807975 78 173.375 C77.13117188 173.11976563 76.26234375 172.86453125 75.3671875 172.6015625 C71.90695481 171.34110651 69.19438587 169.77130289 66.125 167.75 C65.15820312 167.11835937 64.19140625 166.48671875 63.1953125 165.8359375 C62.47085938 165.35382813 61.74640625 164.87171875 61 164.375 C60.77570313 164.90609375 60.55140625 165.4371875 60.3203125 165.984375 C58.54549867 169.19794324 56.28087967 171.87730136 53.875 174.625 C53.42640625 175.17929687 52.9778125 175.73359375 52.515625 176.3046875 C50.56014964 178.5223495 48.88393276 180.20825154 45.91894531 180.76757812 C43.02804884 180.80676786 40.61027696 180.68013848 38 179.375 C36.36998654 176.11497307 36.25918023 172.88044329 37 169.375 C38.79302005 166.99277222 41.01561989 165.39930008 43.4375 163.6875 C47.97918162 160.42126979 47.97918162 160.42126979 51.328125 156.00390625 C50.76569607 151.49777919 47.48597787 149.03982503 44.3125 146 C43.67376953 145.34644531 43.03503906 144.69289063 42.37695312 144.01953125 C39.85642609 141.48526035 39.85642609 141.48526035 37 139.375 C32.61026652 139.73998791 30.56712568 142.70356411 27.875 145.875 C22.38963256 152.22395298 22.38963256 152.22395298 18.125 152.6875 C15 152.375 15 152.375 12.625 150.75 C10.45221617 147.57439286 10.41077638 146.18229107 11 142.375 C12.87402193 139.76750276 15.14157274 137.66720342 17.5 135.5 C18.12003906 134.90703125 18.74007812 134.3140625 19.37890625 133.703125 C20.90606773 132.24644789 22.45133343 130.80879295 24 129.375 C22.38161485 125.5595892 19.94435079 122.81684151 17.1875 119.75 C16.33542969 118.78835938 15.48335938 117.82671875 14.60546875 116.8359375 C12.07872826 114.44936102 10.28716031 113.37826257 7 112.375 C6.21496094 113.3134375 5.42992187 114.251875 4.62109375 115.21875 C3.56093382 116.43840302 2.49967767 117.65710379 1.4375 118.875 C0.92380859 119.49503906 0.41011719 120.11507812 -0.11914062 120.75390625 C-3.04566627 124.06215263 -4.21359187 125.27506063 -8.75 125.8515625 C-12.21002479 125.3442031 -13.75866667 125.0646 -16 122.375 C-16.49128954 118.59259879 -16.37252099 116.9114939 -14.171875 113.7421875 C-13.37265625 112.91976562 -12.5734375 112.09734375 -11.75 111.25 C-10.96109375 110.42242187 -10.1721875 109.59484375 -9.359375 108.7421875 C-7.83765569 107.21542938 -6.26621079 105.73597165 -4.640625 104.3203125 C-2.81378569 102.5582374 -2.81378569 102.5582374 -2.92578125 100.48828125 C-4.50962713 97.37242444 -6.75731876 95.02469944 -9.1875 92.5625 C-9.65736328 92.04751953 -10.12722656 91.53253906 -10.61132812 91.00195312 C-13.08000139 88.48612921 -14.41001523 87.38425466 -17.98828125 87.328125 C-22.43451598 88.8736385 -26.06676238 91.33356889 -30 93.87890625 C-33.34066501 95.54488893 -35.31767074 95.78932678 -39 95.375 C-41.4375 93.8125 -41.4375 93.8125 -43 91.375 C-43 87.57554618 -42.75945059 85.30047002 -40.3203125 82.328125 C-37.6379753 80.07026541 -35.12759565 78.91964495 -31.875 77.625 C-30.82054687 77.19703125 -29.76609375 76.7690625 -28.6796875 76.328125 C-26 75.375 -26 75.375 -24 75.375 C-24.33 74.50875 -24.66 73.6425 -25 72.75 C-26.74573789 66.8120324 -26.1528417 60.49715931 -26 54.375 C-27.73636719 54.44460938 -27.73636719 54.44460938 -29.5078125 54.515625 C-31.04684906 54.55316248 -32.5859137 54.58956051 -34.125 54.625 C-34.88554687 54.65851563 -35.64609375 54.69203125 -36.4296875 54.7265625 C-41.73743499 54.81807539 -44.87472678 54.04551869 -49 50.375 C-49.54182789 46.94342336 -49.8336366 44.670114 -47.90625 41.67578125 C-44.97242498 39.67380639 -42.44316709 40.05367412 -38.9375 40.125 C-37.9309436 40.13164673 -37.9309436 40.13164673 -36.90405273 40.13842773 C-32.99388532 40.19513758 -29.38220315 40.65809017 -25.5625 41.4375 C-23.2303604 41.85493235 -23.2303604 41.85493235 -21 41.375 C-18.55500144 39.31014256 -16.76113559 37.16424809 -14.88671875 34.57421875 C-12.73700426 32.06844389 -11.05532948 31.48133177 -8 30.375 C-7.98541748 29.57280029 -7.97083496 28.77060059 -7.95581055 27.9440918 C-7.88143281 24.31640301 -7.78473757 20.68964496 -7.6875 17.0625 C-7.66494141 15.79986328 -7.64238281 14.53722656 -7.61914062 13.23632812 C-7.58369141 12.02783203 -7.54824219 10.81933594 -7.51171875 9.57421875 C-7.48553467 8.45877686 -7.45935059 7.34333496 -7.43237305 6.1940918 C-7 3.375 -7 3.375 -5.58911133 1.51245117 C-3.60354915 0.09122914 -2.42642497 -0.02757301 0 0 Z " fill="#282B2A" transform="translate(234,392.625)"/>
<path d="M0 0 C5.40752924 0.24579678 5.40752924 0.24579678 8.0625 1.65625 C10.18240071 5.76355763 9.45772268 9.30200489 8.16015625 13.54296875 C7.44464553 15.61311185 6.70481625 17.67505724 5.9375 19.7265625 C5.06827366 22.57483094 4.75414404 24.64162082 5.0625 27.59375 C6.35736821 29.29047386 7.69610658 30.9540779 9.0625 32.59375 C11.19524529 36.85924057 12.22450442 39.86322084 12.0625 44.59375 C12.91972656 44.449375 13.77695312 44.305 14.66015625 44.15625 C30.53938123 41.57833749 30.53938123 41.57833749 34.5 44.21875 C36.53411336 47.31060231 36.66855429 48.95742425 36.0625 52.59375 C33.80687376 55.37568902 31.84311061 57.39921979 28.18310547 57.79907227 C27.43947754 57.83572998 26.69584961 57.8723877 25.9296875 57.91015625 C25.20378418 57.94826416 24.47788086 57.98637207 23.72998047 58.02563477 C22.34770264 58.09028931 22.34770264 58.09028931 20.9375 58.15625 C18.00875 58.300625 15.08 58.445 12.0625 58.59375 C11.0725 66.18375 10.0825 73.77375 9.0625 81.59375 C14.76189597 81.43623863 14.76189597 81.43623863 20.4597168 81.23339844 C24.43209617 81.17815844 26.59947898 81.32637166 30.11328125 83.35546875 C32.1864875 85.73612443 32.70550596 86.56374604 32.5625 89.65625 C32.0625 93.59375 32.0625 93.59375 30.80859375 95.3203125 C26.70969135 98.30966861 20.47782065 96.7883358 15.73828125 96.13671875 C12.83782308 95.65960196 9.95121925 95.13636193 7.0625 94.59375 C6.97685791 95.28001465 6.89121582 95.9662793 6.80297852 96.67333984 C6.41409892 99.77229795 6.01962079 102.87051797 5.625 105.96875 C5.42293945 107.58910156 5.42293945 107.58910156 5.21679688 109.2421875 C5.01860352 110.7890625 5.01860352 110.7890625 4.81640625 112.3671875 C4.69595947 113.32028809 4.5755127 114.27338867 4.45141602 115.25537109 C4.0625 117.59375 4.0625 117.59375 3.0625 119.59375 C4.30386719 119.61953125 5.54523438 119.6453125 6.82421875 119.671875 C8.46618028 119.72817082 10.108106 119.78551783 11.75 119.84375 C12.56662109 119.85792969 13.38324219 119.87210937 14.22460938 119.88671875 C18.25538713 120.04990813 20.58684456 120.30835674 24.109375 122.421875 C26.0625 124.59375 26.0625 124.59375 26.625 128.09375 C25.97235343 132.15466196 25.27701273 133.13686653 22.0625 135.59375 C19.36328125 135.8359375 19.36328125 135.8359375 16.375 135.46875 C15.40175781 135.36304688 14.42851563 135.25734375 13.42578125 135.1484375 C9.27371523 134.46366006 5.17044691 133.50662709 1.0625 132.59375 C1.0625 140.51375 1.0625 148.43375 1.0625 156.59375 C6.39670016 158.38928939 6.39670016 158.38928939 11.625 159.03125 C15.44274286 159.39177884 17.97582208 160.18228287 21.0625 162.59375 C22.48291821 165.43458641 22.37702272 167.44852278 22.0625 170.59375 C20.5625 172.96875 20.5625 172.96875 18.0625 174.59375 C11.82950553 175.46855624 7.24891282 173.81192615 1.48046875 171.46875 C-0.97909236 170.42361051 -0.97909236 170.42361051 -3.9375 170.59375 C-5.38920181 172.39419849 -5.38920181 172.39419849 -6.6875 174.71875 C-8.78946097 178.14436397 -10.50011312 180.13236993 -13.875 182.28125 C-16.47553944 184.36398291 -16.8960379 185.24492756 -17.296875 188.6171875 C-16.93819391 196.00275721 -15.26503454 202.71550416 -12.77734375 209.65625 C-11.8738543 212.81636193 -11.64491318 215.32420842 -11.9375 218.59375 C-13.9375 220.59375 -13.9375 220.59375 -17.75 221.09375 C-21.49109588 221.00548458 -21.86116381 220.66510774 -24.8125 217.90625 C-28.16755045 212.67631842 -29.28586882 208.2574895 -30.0625 202.09375 C-30.31386719 200.16015625 -30.31386719 200.16015625 -30.5703125 198.1875 C-30.86733731 195.28044868 -31.01600794 192.5097593 -30.9375 189.59375 C-31.58976562 189.55636719 -32.24203125 189.51898438 -32.9140625 189.48046875 C-38.29606729 189.07562768 -42.17898361 188.32989693 -46.9375 185.59375 C-47.5975 185.59375 -48.2575 185.59375 -48.9375 185.59375 C-50.21321484 187.7785253 -51.48310673 189.96636619 -52.75 192.15625 C-53.10642578 192.76533203 -53.46285156 193.37441406 -53.83007812 194.00195312 C-58.25092761 201.66746278 -60.5452956 207.95141893 -60.5625 216.84375 C-60.56556152 217.8030542 -60.56862305 218.7623584 -60.57177734 219.75073242 C-60.36280697 228.38035596 -58.06827122 235.4767091 -54.6640625 243.33203125 C-51.61446377 250.48389042 -50.54546142 257.60482753 -50.5625 265.34375 C-50.56491699 266.50729004 -50.56491699 266.50729004 -50.56738281 267.69433594 C-50.75238748 276.49112645 -52.48343067 287.13968067 -58.9375 293.59375 C-62.5625 294.09375 -62.5625 294.09375 -65.9375 293.59375 C-67.9375 291.59375 -67.9375 291.59375 -67.984375 289.74609375 C-67.88640625 289.01519531 -67.7884375 288.28429687 -67.6875 287.53125 C-67.58050781 286.72042969 -67.47351563 285.90960937 -67.36328125 285.07421875 C-66.97089026 282.78827121 -66.45182089 280.58878671 -65.875 278.34375 C-62.34585681 262.77241591 -67.87805325 248.29907661 -72.88671875 233.73828125 C-76.97739758 221.49665872 -76.24003796 207.3148312 -70.96240234 195.53710938 C-68.95854531 191.73751385 -66.40084878 188.29243829 -63.9375 184.78125 C-60.13735306 179.58933524 -60.13735306 179.58933524 -58.859375 173.47265625 C-59.65262114 170.95447393 -60.67144957 168.90038982 -61.9375 166.59375 C-63.04265921 162.57743971 -63.01886119 158.74317067 -62.9375 154.59375 C-64.03449219 154.55636719 -65.13148438 154.51898438 -66.26171875 154.48046875 C-67.71617857 154.41478347 -69.17060416 154.34833701 -70.625 154.28125 C-71.7068457 154.24741211 -71.7068457 154.24741211 -72.81054688 154.21289062 C-77.68132735 153.96823955 -81.33291979 153.19833021 -84.9375 149.59375 C-85.40657973 143.2611737 -85.40657973 143.2611737 -83.72729492 140.87182617 C-81.3362293 139.1643881 -79.96030318 139.32556312 -77.05078125 139.51953125 C-75.6440918 139.60170898 -75.6440918 139.60170898 -74.20898438 139.68554688 C-73.23251953 139.75837891 -72.25605469 139.83121094 -71.25 139.90625 C-70.26193359 139.96748047 -69.27386719 140.02871094 -68.25585938 140.09179688 C-65.81513881 140.24507884 -63.37630911 140.41292154 -60.9375 140.59375 C-60.958125 139.35753906 -60.97875 138.12132812 -61 136.84765625 C-61 131.04224721 -60.4768654 125.30756193 -59.9375 119.53125 C-59.84210938 118.47486328 -59.74671875 117.41847656 -59.6484375 116.33007812 C-59.41503261 113.75095414 -59.17798257 111.17222201 -58.9375 108.59375 C-60.60039062 108.64595703 -60.60039062 108.64595703 -62.296875 108.69921875 C-63.76040148 108.72736349 -65.22394439 108.75466292 -66.6875 108.78125 C-67.41710937 108.80638672 -68.14671875 108.83152344 -68.8984375 108.85742188 C-72.10515302 108.90114981 -74.5288499 108.79487246 -77.4296875 107.3671875 C-79.34186637 105.11814811 -79.41839229 103.95291444 -79.3125 101.03125 C-79.29960937 100.24621094 -79.28671875 99.46117187 -79.2734375 98.65234375 C-78.9375 96.59375 -78.9375 96.59375 -76.9375 94.59375 C-74.78271484 94.36669922 -74.78271484 94.36669922 -72.1484375 94.3984375 C-71.20742188 94.40488281 -70.26640625 94.41132813 -69.296875 94.41796875 C-68.31203125 94.43472656 -67.3271875 94.45148438 -66.3125 94.46875 C-65.31992187 94.47777344 -64.32734375 94.48679687 -63.3046875 94.49609375 C-60.84871866 94.51970884 -58.39322832 94.55264201 -55.9375 94.59375 C-55.94910156 93.96033691 -55.96070313 93.32692383 -55.97265625 92.67431641 C-56.02895655 87.31271808 -55.7681782 82.2643235 -54.9375 76.96875 C-54.751875 75.75960937 -54.56625 74.55046875 -54.375 73.3046875 C-54.230625 72.41007812 -54.08625 71.51546875 -53.9375 70.59375 C-54.79472656 70.55636719 -55.65195312 70.51898438 -56.53515625 70.48046875 C-68.39023752 69.79883499 -68.39023752 69.79883499 -73.9375 66.59375 C-76.0985211 63.35221834 -76.57997553 62.35682099 -75.9375 58.59375 C-73.11305927 55.65294654 -71.6451647 54.63671246 -67.52734375 54.38671875 C-66.32207031 54.51691406 -65.11679687 54.64710938 -63.875 54.78125 C-62.66714844 54.89855469 -61.45929688 55.01585937 -60.21484375 55.13671875 C-57.70732404 55.48639671 -55.36487726 55.89761937 -52.9375 56.59375 C-52.83953125 55.48257813 -52.7415625 54.37140625 -52.640625 53.2265625 C-51.36866288 40.05033954 -49.30270489 29.77810877 -38.9375 20.59375 C-30.81783196 15.35432071 -21.97751069 14.28159242 -12.52734375 16.04296875 C-10.97613538 16.49208657 -9.45103472 17.03057429 -7.9375 17.59375 C-7.75574219 16.78550781 -7.57398438 15.97726562 -7.38671875 15.14453125 C-7.13535156 14.07589844 -6.88398438 13.00726563 -6.625 11.90625 C-6.38136719 10.85050781 -6.13773437 9.79476563 -5.88671875 8.70703125 C-3.56510899 1.0925334 -3.56510899 1.0925334 0 0 Z " fill="#282B2A" transform="translate(502.9375,302.40625)"/>
<path d="M0 0 C5.90617667 3.41513617 9.30059216 8.89565807 11.296875 15.328125 C12.29350366 22.02153227 11.00158379 27.67606927 7.296875 33.328125 C4.18103756 36.91188855 0.80935759 40.13641707 -2.703125 43.328125 C-3.35410156 43.92238281 -4.00507812 44.51664062 -4.67578125 45.12890625 C-6.65962449 46.89372646 -8.67493517 48.6144106 -10.703125 50.328125 C-11.66992188 51.14925781 -12.63671875 51.97039062 -13.6328125 52.81640625 C-15.8422161 54.69087815 -18.05478 56.56153766 -20.26953125 58.4296875 C-22.53080889 60.33709863 -24.78863871 62.24844538 -27.04296875 64.1640625 C-32.94271271 69.17477999 -38.88243145 74.12613418 -44.88671875 79.01171875 C-48.04097692 81.60599766 -51.1551548 84.24418765 -54.265625 86.890625 C-58.8195493 90.76358866 -63.43807553 94.53435195 -68.125 98.24609375 C-71.11281027 100.65897689 -74.03327787 103.14655259 -76.953125 105.640625 C-105.31225591 129.78295704 -105.31225591 129.78295704 -118.953125 129.6015625 C-124.74994777 129.02517387 -128.1637769 126.12904686 -132.015625 121.953125 C-136.23186195 116.6350448 -137.18798723 111.53023432 -137.0078125 104.84375 C-135.63249175 93.48853762 -125.02717175 86.45547558 -116.7578125 79.8125 C-113.35294435 77.04332335 -110.02510706 74.1956104 -106.703125 71.328125 C-101.68622152 67.00475261 -96.60817 62.7714072 -91.46875 58.59375 C-82.61194725 51.33817713 -73.9482309 43.84506884 -65.265625 36.3828125 C-62.83571192 34.29561393 -60.39743829 32.21875057 -57.953125 30.1484375 C-52.54664707 25.56056352 -47.20484147 21.01112045 -42.2734375 15.90625 C-39.85536796 13.47615026 -37.2712203 11.25194074 -34.66796875 9.0234375 C-33.40994483 7.93798545 -32.17065017 6.83019552 -30.95703125 5.6953125 C-21.60724562 -2.89871678 -11.75196117 -5.18254188 0 0 Z " fill="#282B2B" transform="translate(701.703125,406.671875)"/>
<path d="M0 0 C5.52207611 2.93256547 9.74195972 6.94342805 12.2890625 12.69921875 C13.96179901 18.61813254 14.05796153 25.31005016 11.63671875 31.03515625 C8.43808282 36.5023283 3.70609856 40.99748983 -0.64892578 45.55224609 C-2.70853829 47.73094453 -4.68906523 49.9775624 -6.67578125 52.22265625 C-10.28989519 56.25626556 -14.07046014 60.07713127 -17.92578125 63.87890625 C-20.53660828 66.52812779 -22.95057257 69.31463645 -25.37109375 72.13671875 C-27.57243518 74.62474651 -29.9316664 76.92709702 -32.30078125 79.25390625 C-34.13320612 81.11905299 -35.8443126 83.05443371 -37.55078125 85.03515625 C-39.79636065 87.64163234 -42.09629637 90.12450146 -44.55078125 92.53515625 C-46.84404161 94.79313568 -49.01506153 97.09512129 -51.11328125 99.53515625 C-55.15964879 104.22712401 -59.40190824 108.72941305 -63.64135742 113.24609375 C-66.97862802 116.80443139 -70.2839643 120.38637597 -73.54907227 124.01098633 C-88.69883864 140.78346221 -88.69883864 140.78346221 -100.09375 142.30859375 C-106.51759205 142.61281942 -110.90882866 140.85917147 -116.05078125 137.03515625 C-121.04294713 132.28591815 -123.35224007 127.77637201 -123.55078125 120.91015625 C-123.60234375 119.85570312 -123.65390625 118.80125 -123.70703125 117.71484375 C-122.10166196 108.71330881 -115.57128438 101.93712473 -109.36328125 95.59765625 C-108.3115271 94.50142944 -108.3115271 94.50142944 -107.23852539 93.38305664 C-102.34722256 88.30364832 -97.36335471 83.31962233 -92.34765625 78.36328125 C-90.38471171 76.37362998 -88.54559683 74.35206768 -86.73828125 72.22265625 C-82.85221442 67.6591153 -78.56790748 63.49929769 -74.2878418 59.30932617 C-70.63122488 55.70615804 -67.20816442 51.97418709 -63.85449219 48.08837891 C-60.73287576 44.53494169 -57.44160414 41.14298358 -54.17578125 37.72265625 C-48.15265473 31.3683163 -42.49532998 24.89309788 -37.05078125 18.03515625 C-27.48538097 5.98702249 -16.82930087 -7.10864379 0 0 Z " fill="#282B2B" transform="translate(732.05078125,220.96484375)"/>
<path d="M0 0 C0.99569504 -0.01007584 0.99569504 -0.01007584 2.01150513 -0.02035522 C4.20655807 -0.03935631 6.40130547 -0.04326073 8.59643555 -0.04541016 C10.12477239 -0.05183777 11.653108 -0.05856611 13.18144226 -0.06558228 C16.38677827 -0.07756111 19.59200647 -0.0812626 22.79736328 -0.08007812 C26.89648004 -0.07987516 30.99490173 -0.10715069 35.09385395 -0.14162254 C38.25181729 -0.16390936 41.40961401 -0.1679151 44.56764793 -0.16685867 C46.07827329 -0.16921298 47.58890336 -0.17802699 49.09945107 -0.19352341 C51.21783022 -0.2132164 53.33471963 -0.20733386 55.453125 -0.1953125 C56.6565303 -0.19816254 57.85993561 -0.20101257 59.09980774 -0.20394897 C63.66767422 0.47620946 66.9216351 2.46563441 69.8581543 6.04052734 C70.74381962 9.58318865 70.42633631 12.79219063 69.4206543 16.29052734 C67.16613732 19.22139942 65.93622565 20.11867023 62.4206543 21.29052734 C60.22959708 21.40522666 58.03524018 21.45990599 55.84130859 21.48339844 C55.1775119 21.49157593 54.51371521 21.49975342 53.82980347 21.50817871 C51.63483572 21.53297417 49.43993239 21.54953344 47.24487305 21.56396484 C46.49386637 21.56928852 45.74285969 21.5746122 44.96909523 21.5800972 C40.99405565 21.60680319 37.0190472 21.62618631 33.04394531 21.640625 C29.75850586 21.65396457 26.47368747 21.6818198 23.18847656 21.72265625 C19.2167814 21.77202164 15.24564951 21.79675038 11.27366066 21.80385208 C9.76299704 21.81055608 8.25234558 21.82575623 6.74185753 21.84974289 C-6.55931163 22.04891875 -6.55931163 22.04891875 -10.49023438 18.8828125 C-13.5248935 15.11723922 -14.04498986 13.13322655 -13.5793457 8.29052734 C-9.97284062 1.82369065 -7.32123808 0.04647236 0 0 Z " fill="#F9F8F8" transform="translate(340.579345703125,788.70947265625)"/>
<path d="M0 0 C1.30170135 -0.0127597 2.60340271 -0.02551941 3.94454956 -0.03866577 C5.36293387 -0.04172348 6.78132018 -0.04395121 8.19970703 -0.04541016 C9.65935395 -0.05184012 11.11899957 -0.05856863 12.5786438 -0.06558228 C15.63676948 -0.07754845 18.69478225 -0.0812638 21.75292969 -0.08007812 C25.6625816 -0.07987501 29.57150603 -0.10717188 33.48098564 -0.14162254 C36.49568984 -0.16391239 39.51021956 -0.16791504 42.52499771 -0.16685867 C43.96584708 -0.1692117 45.40670147 -0.17801851 46.84746933 -0.19352341 C48.86696691 -0.21322107 50.8866787 -0.20481318 52.90625 -0.1953125 C54.05334442 -0.19816254 55.20043884 -0.20101257 56.3822937 -0.20394897 C60.32815926 0.40573833 62.47994125 1.81883613 65.58251953 4.29052734 C68.06638012 8.01631823 67.96294074 9.87764137 67.58251953 14.29052734 C65.93112648 17.82922675 64.86646724 19.10122887 61.58251953 21.29052734 C58.59793091 21.55795288 58.59793091 21.55795288 54.89550781 21.58105469 C54.22035126 21.58777191 53.5451947 21.59448914 52.84957886 21.60140991 C50.61725507 21.62041003 48.38523165 21.62431515 46.15283203 21.62646484 C44.59967932 21.63289173 43.04652784 21.63962001 41.49337769 21.64663696 C38.23676751 21.65861499 34.98026346 21.66231729 31.72363281 21.66113281 C27.55492062 21.66092967 23.38689052 21.68822397 19.21833992 21.72267723 C16.00980518 21.74493949 12.80143472 21.74897056 9.59283066 21.74791336 C8.05625942 21.75027064 6.51968374 21.75910144 4.98318863 21.77457809 C2.83108344 21.79422447 0.68045034 21.78840703 -1.47167969 21.77636719 C-2.6950705 21.77921722 -3.9184613 21.78206726 -5.17892456 21.78500366 C-9.04642205 21.1944979 -10.69198696 20.05283336 -13.41748047 17.29052734 C-14.61938948 13.6848003 -14.74418362 11.08028385 -14.41748047 7.29052734 C-10.62683642 1.19842084 -6.95150601 0.04626392 0 0 Z " fill="#F4F4F3" transform="translate(484.41748046875,834.70947265625)"/>
<path d="M0 0 C1.2015976 -0.0127597 2.40319519 -0.02551941 3.64120483 -0.03866577 C4.9360379 -0.04089142 6.23087097 -0.04311707 7.56494141 -0.04541016 C8.91248719 -0.05184106 10.26003158 -0.05856965 11.60757446 -0.06558228 C14.43031042 -0.0775453 17.25292408 -0.08126414 20.07568359 -0.08007812 C23.68268997 -0.07987503 27.28890757 -0.10716994 30.89572716 -0.14162254 C33.67881837 -0.1639234 36.46172073 -0.16791471 39.24489212 -0.16685867 C41.21795743 -0.17034915 43.19096379 -0.19199282 45.16390991 -0.21395874 C56.30467333 -0.15720578 56.30467333 -0.15720578 61.04150391 4.29052734 C63.39392737 7.49837752 63.5099248 10.38701986 63.04150391 14.29052734 C61.32343408 17.59940256 60.12980631 19.73779396 56.76599121 21.44622803 C53.7486217 22.38128947 51.29375476 22.5444016 48.13720703 22.54931641 C46.39014465 22.55877289 46.39014465 22.55877289 44.60778809 22.56842041 C43.35872681 22.56437195 42.10966553 22.56032349 40.82275391 22.55615234 C39.53212036 22.5580658 38.24148682 22.55997925 36.91174316 22.56195068 C34.18492831 22.56489279 31.45824485 22.56063388 28.73144531 22.55126953 C25.24453521 22.5398754 21.75793306 22.54643979 18.27103424 22.55841446 C14.93408308 22.5673986 11.5972138 22.56109961 8.26025391 22.55615234 C7.01119263 22.56020081 5.76213135 22.56424927 4.47521973 22.56842041 C3.31051147 22.56211609 2.14580322 22.55581177 0.94580078 22.54931641 C-0.58711609 22.54692963 -0.58711609 22.54692963 -2.15100098 22.54449463 C-6.41385026 22.15887534 -9.12358564 21.05774235 -12.27099609 18.16552734 C-14.47137598 14.41673198 -14.81887975 11.54082262 -13.95849609 7.29052734 C-10.36997961 1.3951074 -6.69297528 0.04828766 0 0 Z " fill="#F6F6F5" transform="translate(446.95849609375,731.70947265625)"/>
<path d="M0 0 C0.69291138 -0.00817749 1.38582275 -0.01635498 2.09973145 -0.02478027 C4.39753353 -0.04963287 6.69527376 -0.06615143 8.99316406 -0.08056641 C9.7781855 -0.08589008 10.56320694 -0.09121376 11.37201691 -0.09669876 C15.5286003 -0.1234321 19.68515366 -0.14280478 23.84179688 -0.15722656 C28.1304593 -0.17385872 32.4183509 -0.21862295 36.70672226 -0.26959801 C40.00792294 -0.30329653 43.30894142 -0.31480686 46.61029816 -0.32045364 C48.19073617 -0.32716094 49.77116241 -0.34236967 51.3514328 -0.36634445 C53.56825515 -0.39805261 55.78300937 -0.3980256 58 -0.390625 C59.25971619 -0.39871185 60.51943237 -0.40679871 61.81732178 -0.41513062 C66.38561591 0.39194683 68.01107308 1.92990959 71.25878906 5.19287109 C72.02050781 7.47412109 72.02050781 7.47412109 71.94628906 9.69287109 C71.95015625 10.42505859 71.95402344 11.15724609 71.95800781 11.91162109 C70.89505641 15.37957427 69.03485001 16.90289489 66.25878906 19.19287109 C62.9197998 19.82106018 62.9197998 19.82106018 59.06933594 19.82397461 C58.01227196 19.83470757 58.01227196 19.83470757 56.93385315 19.84565735 C54.61441357 19.86250684 52.29691733 19.84316689 49.97753906 19.82177734 C48.35998373 19.8226064 46.74242848 19.82506719 45.12487793 19.8290863 C41.73875497 19.8319417 38.35329441 19.81726923 34.96728516 19.78979492 C30.63262742 19.75571182 26.29915382 19.76173237 21.96443939 19.7804575 C18.62544939 19.79103945 15.28673368 19.78207896 11.94776917 19.76707268 C10.3498262 19.76189913 8.7518545 19.76236263 7.15391541 19.76861763 C4.91806719 19.77408464 2.68389881 19.75365084 0.44824219 19.72631836 C-0.82241089 19.72011978 -2.09306396 19.7139212 -3.40222168 19.70753479 C-7.30990259 19.10521434 -8.97114772 17.96227126 -11.74121094 15.19287109 C-12.90233558 12.20177121 -13.04790925 9.37912577 -12.74121094 6.19287109 C-9.21756024 0.36062167 -6.51574031 0.06668751 0 0 Z " fill="#FAF9F8" transform="translate(246.7412109375,713.80712890625)"/>
<path d="M0 0 C5.85096735 2.02533485 8.92603058 6.81962668 11.92578125 12.04296875 C14.20433019 17.64893439 13.70607544 23.86072279 13.75 29.8125 C13.86456976 45.0911952 15.82442839 58.35419334 26.25 70.125 C26.9925 70.74375 27.735 71.3625 28.5 72 C30.25 74.125 30.25 74.125 30.625 77.75 C30.25 81.125 30.25 81.125 28.25 83.125 C24.32990499 83.57731866 21.85235859 83.40108102 18.25 81.75 C9.22670338 73.85461546 3.0820115 61.65442013 0.25 50.125 C0.11816406 46.73510742 0.11816406 46.73510742 0.265625 43.23046875 C0.29914062 41.94462891 0.33265625 40.65878906 0.3671875 39.33398438 C0.44914777 36.66279509 0.55932832 33.99631413 0.6796875 31.32617188 C0.87142723 22.60637186 -0.24160589 17.00857334 -5.75 10.125 C-6.08 9.795 -6.41 9.465 -6.75 9.125 C-6.5 5.6875 -6.5 5.6875 -5.75 2.125 C-2.75 0.125 -2.75 0.125 0 0 Z " fill="#262828" transform="translate(724.75,331.875)"/>
<path d="M0 0 C5.22272337 2.66764103 8.00040887 6.86450785 9.8125 12.30078125 C10.20274191 18.15440985 9.80955965 22.08009669 6.8125 27.30078125 C2.61738441 31.70416499 -0.66795491 34.08726048 -6.875 34.61328125 C-11.65774909 34.52536307 -15.33554977 33.12389862 -19.1875 30.30078125 C-23.29515297 25.91860692 -24.92830354 21.99642446 -25.5 16.05078125 C-24.99820758 10.02927215 -22.8034523 5.29600647 -18.1875 1.30078125 C-12.83224689 -2.10395941 -5.90686503 -1.88808721 0 0 Z " fill="#282B2A" transform="translate(607.1875,199.69921875)"/>
<path d="M0 0 C5.27322153 1.82534591 7.79691086 4.60719203 11 9 C12.35682449 13.07047347 12.52472254 16.74391717 12 21 C9.55411621 25.80117929 6.23260986 29.70695606 1.125 31.75 C-4.55715852 32.41848924 -8.56269987 32.34818839 -13.42578125 29.27734375 C-16.83551418 26.51063738 -18.6354491 23.09365269 -20 19 C-20.39680449 13.74234055 -19.89498146 10.43897158 -17 6 C-11.53242546 0.59074625 -7.52428259 -0.68633659 0 0 Z " fill="#272A2A" transform="translate(208,330)"/>
<path d="M0 0 C4.10237497 2.30960481 6.32551466 4.94285061 7.75 9.4375 C8.70161348 14.47651996 8.15996976 18.34143683 5.625 22.8125 C3.10355795 26.33830477 0.99041092 28.15737595 -3.25 29.4375 C-8.23182348 30.07952945 -12.02818207 30.00315645 -16.625 27.875 C-21.33499721 23.50143116 -23.45479527 19.79884365 -23.8125 13.4375 C-23.58430898 8.26779311 -21.98779257 4.98790983 -18.25 1.4375 C-12.38058343 -2.60587586 -6.3924345 -2.75658885 0 0 Z " fill="#272A29" transform="translate(387.25,415.5625)"/>
<path d="M0 0 C3.37789724 2.25193149 6.10754551 4.15312062 7.8125 7.875 C8.7034753 13.52300862 8.5852845 18.24356606 6.125 23.4375 C2.24162704 27.53078501 -0.41667064 29.04731711 -6.0625 29.3125 C-10.94819887 29.13074037 -14.57202906 28.27048197 -18.1875 24.875 C-21.22157063 20.99033731 -22.5314757 17.24787536 -22.3125 12.3125 C-21.48484254 7.38068543 -18.96086782 4.06513064 -15.1875 0.875 C-10.22125385 -2.09880009 -5.30548508 -1.87252415 0 0 Z " fill="#272A29" transform="translate(575.1875,272.125)"/>
<path d="M0 0 C4.84529675 4.03884969 9.40762999 8.26710494 13.85327148 12.73974609 C14.82040825 13.70666382 14.82040825 13.70666382 15.80708313 14.69311523 C17.91413559 16.80085819 20.01763474 18.91210893 22.12109375 21.0234375 C23.59060627 22.49481727 25.06034135 23.9659748 26.5302887 25.43692017 C30.38099528 29.29142775 34.22868807 33.14892999 38.07574463 37.00708008 C42.00895449 40.95055623 45.9450298 44.89117004 49.88085938 48.83203125 C57.59003446 56.55190099 65.29602623 64.27493989 73 72 C71.515 72.495 71.515 72.495 70 73 C69.67 72.01 69.34 71.02 69 70 C67.515 69.505 67.515 69.505 66 69 C64.65354919 67.631073 64.65354919 67.631073 63.16186523 65.78857422 C58.2137303 59.96314475 52.75884813 54.66399207 47.33333015 49.28873062 C45.37668853 47.34964507 43.42375434 45.40689394 41.4717865 43.46310425 C35.92744481 37.94309009 30.37730111 32.42893553 24.82299805 26.91894531 C21.41318578 23.53583133 18.00819251 20.14792975 14.60616875 16.75698471 C13.31021043 15.46724661 12.01235628 14.17941066 10.71260262 12.89349747 C8.90552205 11.10551807 7.10457945 9.31156914 5.30493164 7.51611328 C4.76423538 6.98417862 4.22353912 6.45224396 3.66645813 5.90419006 C0 2.22789954 0 2.22789954 0 0 Z " fill="#1E1F1E" transform="translate(680,622)"/>
<path d="M0 0 C0.99 0.33 1.98 0.66 3 1 C3.0271045 4.04172719 3.04688964 7.08320997 3.0625 10.125 C3.07087891 10.9809375 3.07925781 11.836875 3.08789062 12.71875 C3.10538306 17.26678411 2.93192358 21.52383164 2 26 C1.67 26 1.34 26 1 26 C-0.15664737 20.51730931 -0.11416255 15.19660726 -0.0625 9.625 C-0.05798828 8.69816406 -0.05347656 7.77132812 -0.04882812 6.81640625 C-0.03711574 4.54420291 -0.02071372 2.27213612 0 0 Z " fill="#343635" transform="translate(915,700)"/>
<path d="M0 0 C1.98 0 3.96 0 6 0 C6 0.66 6 1.32 6 2 C2.57021912 3.70353355 -0.86992063 5.38500046 -4.3125 7.0625 C-5.28896484 7.54783203 -6.26542969 8.03316406 -7.27148438 8.53320312 C-8.67817383 9.21479492 -8.67817383 9.21479492 -10.11328125 9.91015625 C-10.97735596 10.33433838 -11.84143066 10.75852051 -12.73168945 11.19555664 C-15 12 -15 12 -18 11 C-16.37750059 10.16180842 -14.75191503 9.3295884 -13.125 8.5 C-12.22007812 8.0359375 -11.31515625 7.571875 -10.3828125 7.09375 C-8 6 -8 6 -6 6 C-6 5.34 -6 4.68 -6 4 C-4.02 3.34 -2.04 2.68 0 2 C0 1.34 0 0.68 0 0 Z " fill="#1B1D1D" transform="translate(698,903)"/>
<path d="M0 0 C2.93230193 1.32120828 4.98664899 2.74638197 7.234375 5.0390625 C8.09482422 5.90917969 8.09482422 5.90917969 8.97265625 6.796875 C9.55917969 7.40015625 10.14570312 8.0034375 10.75 8.625 C11.35199219 9.23601563 11.95398438 9.84703125 12.57421875 10.4765625 C14.05405305 11.97988624 15.52764676 13.48934856 17 15 C16.34 15.66 15.68 16.32 15 17 C12.49195282 14.54976242 9.9949924 12.08852402 7.5 9.625 C6.78457031 8.92632813 6.06914063 8.22765625 5.33203125 7.5078125 C4.65527344 6.8375 3.97851562 6.1671875 3.28125 5.4765625 C2.65283203 4.85861816 2.02441406 4.24067383 1.37695312 3.60400391 C0 2 0 2 0 0 Z " fill="#323434" transform="translate(635,627)"/>
<path d="M0 0 C0.66 1.32 1.32 2.64 2 4 C3.65 3.34 5.3 2.68 7 2 C6.5251065 6.11574371 5.9789756 9.36383344 4 13 C3.32694982 11.39850114 2.66177773 9.79368971 2 8.1875 C1.62875 7.29417969 1.2575 6.40085937 0.875 5.48046875 C0 3 0 3 0 0 Z " fill="#1E201F" transform="translate(923,636)"/>
<path d="M0 0 C0.66 0.33 1.32 0.66 2 1 C0.68 2.32 -0.64 3.64 -2 5 C-2.66 4.67 -3.32 4.34 -4 4 C-2.68 2.68 -1.36 1.36 0 0 Z M-6 5 C-5.34 5.33 -4.68 5.66 -4 6 C-4.99 7.32 -5.98 8.64 -7 10 C-7.99 9.67 -8.98 9.34 -10 9 C-8.68 7.68 -7.36 6.36 -6 5 Z M-12 10 C-11.34 10.33 -10.68 10.66 -10 11 C-11.32 12.32 -12.64 13.64 -14 15 C-14.66 14.67 -15.32 14.34 -16 14 C-14.68 12.68 -13.36 11.36 -12 10 Z M-18 15 C-17.34 15.33 -16.68 15.66 -16 16 C-16.99 16.66 -17.98 17.32 -19 18 C-18.67 17.01 -18.34 16.02 -18 15 Z " fill="#EEEEEE" transform="translate(663,479)"/>
<path d="M0 0 C3.68069887 1.53643852 5.98775204 3.78150945 8.75 6.625 C9.54921875 7.44226563 10.3484375 8.25953125 11.171875 9.1015625 C12.07679688 10.04128906 12.07679688 10.04128906 13 11 C12.34 11.66 11.68 12.32 11 13 C9.16052663 11.21427748 7.32842259 9.42197551 5.5 7.625 C4.71302734 6.86316406 4.71302734 6.86316406 3.91015625 6.0859375 C2.56846819 4.76167396 1.28004185 3.38394135 0 2 C0 1.34 0 0.68 0 0 Z " fill="#353636" transform="translate(712,705)"/>
<path d="M0 0 C0.33 0.99 0.66 1.98 1 3 C-4.60523001 8.07515796 -10.23225279 13.10995345 -16 18 C-14.6415798 14.95667235 -13.11536976 12.87690849 -10.7421875 10.546875 C-10.11699219 9.928125 -9.49179687 9.309375 -8.84765625 8.671875 C-8.19667969 8.03765625 -7.54570313 7.4034375 -6.875 6.75 C-6.21628906 6.1003125 -5.55757812 5.450625 -4.87890625 4.78125 C-3.25703357 3.18288273 -1.6306719 1.58938103 0 0 Z " fill="#121312" transform="translate(643,296)"/>
<path d="M0 0 C0 3.98056148 -1.442233 5.0159385 -4 8 C-4.66 8.9075 -5.32 9.815 -6 10.75 C-8.06624446 13.07452502 -8.96896493 13.67524624 -12 14 C-9.87753203 10.13284962 -7.47253855 7.25594323 -4.3125 4.1875 C-3.50425781 3.39730469 -2.69601562 2.60710937 -1.86328125 1.79296875 C-1.24839844 1.20128906 -0.63351562 0.60960937 0 0 Z " fill="#1C1F1E" transform="translate(675,262)"/>
<path d="M0 0 C2.14336161 3.4766338 2.21277626 6.21229195 2.125 10.25 C2.10695313 11.32765625 2.08890625 12.4053125 2.0703125 13.515625 C2.03550781 14.74539063 2.03550781 14.74539063 2 16 C0.48046875 14.91796875 0.48046875 14.91796875 -1 13 C-1.07421875 9.86328125 -1.07421875 9.86328125 -0.6875 6.3125 C-0.56761719 5.13300781 -0.44773437 3.95351563 -0.32421875 2.73828125 C-0.16373047 1.38283203 -0.16373047 1.38283203 0 0 Z " fill="#313232" transform="translate(571,681)"/>
<path d="M0 0 C0.66 0.33 1.32 0.66 2 1 C1.071875 1.4640625 1.071875 1.4640625 0.125 1.9375 C-3.07684376 5.04517188 -3.31552808 8.70403806 -4 13 C-4.66 12.67 -5.32 12.34 -6 12 C-6.35671933 8.16526716 -6.29771416 6.44657125 -4.125 3.1875 C-2 1 -2 1 0 0 Z " fill="#E4E4E4" transform="translate(240,714)"/>
<path d="M0 0 C0.99 0.66 1.98 1.32 3 2 C-4.0547046 8.03938731 -4.0547046 8.03938731 -8 7.875 C-8.66 7.58625 -9.32 7.2975 -10 7 C-9.11054688 6.84724609 -9.11054688 6.84724609 -8.203125 6.69140625 C-5.63815889 5.88644348 -4.57256517 4.88433098 -2.75 2.9375 C-2.22921875 2.38964844 -1.7084375 1.84179688 -1.171875 1.27734375 C-0.78515625 0.85582031 -0.3984375 0.43429688 0 0 Z " fill="#1E2020" transform="translate(442,190)"/>
<path d="M0 0 C0.66 0.33 1.32 0.66 2 1 C0.625 2.5 0.625 2.5 -1 4 C-1.66 4 -2.32 4 -3 4 C-3.226875 4.639375 -3.45375 5.27875 -3.6875 5.9375 C-5 8 -5 8 -7.625 8.75 C-8.40875 8.8325 -9.1925 8.915 -10 9 C-6.83047153 5.73991357 -3.60062011 2.77762123 0 0 Z " fill="#191B1A" transform="translate(606,469)"/>
<path d="M0 0 C2.45823172 3.68734758 3.01242616 6.69699971 4 11 C3.34 11 2.68 11 2 11 C-1.07692308 4.6 -1.07692308 4.6 -0.6875 1.5625 C-0.460625 1.046875 -0.23375 0.53125 0 0 Z " fill="#EAEAE9" transform="translate(874,666)"/>
<path d="M0 0 C0.99 0 1.98 0 3 0 C3 2.97 3 5.94 3 9 C2.01 9 1.02 9 0 9 C0 6.03 0 3.06 0 0 Z " fill="#333634" transform="translate(392,425)"/>
<path d="M0 0 C0.33 1.32 0.66 2.64 1 4 C-3.52092968 5.45606519 -6.51648796 4.27032841 -11 3 C-11 2.67 -11 2.34 -11 2 C-7.7 2.33 -4.4 2.66 -1 3 C-0.67 2.01 -0.34 1.02 0 0 Z " fill="#191C1B" transform="translate(496,317)"/>
<path d="M0 0 C3.7952131 1.49097658 5.61042731 3.75700849 8 7 C5 7 5 7 2.3125 4.625 C0 2 0 2 0 0 Z " fill="#333534" transform="translate(802,796)"/>
<path d="M0 0 C2.67927341 4.01891012 2.15601248 6.24161923 2 11 C1.01 11 0.02 11 -1 11 C-1.14285714 3.57142857 -1.14285714 3.57142857 0 0 Z " fill="#333736" transform="translate(947,537)"/>
<path d="M0 0 C3.375 4.5 3.375 4.5 3 9 C2.01 9.495 2.01 9.495 1 10 C0.67 6.7 0.34 3.4 0 0 Z " fill="#EFEFEE" transform="translate(914,673)"/>
<path d="M0 0 C0.66 0.33 1.32 0.66 2 1 C-0.31 3.31 -2.62 5.62 -5 8 C-5.99 7.67 -6.98 7.34 -8 7 C-5.36 4.69 -2.72 2.38 0 0 Z " fill="#151616" transform="translate(350,492)"/>
<path d="M0 0 C2.97 0 5.94 0 9 0 C9 0.33 9 0.66 9 1 C8.06027344 1.19916016 8.06027344 1.19916016 7.1015625 1.40234375 C5.87566406 1.66724609 5.87566406 1.66724609 4.625 1.9375 C3.81289062 2.11152344 3.00078125 2.28554688 2.1640625 2.46484375 C-0.029463 2.92330693 -0.029463 2.92330693 -2 4 C-1.34 2.68 -0.68 1.36 0 0 Z " fill="#101211" transform="translate(188,433)"/>
<path d="M0 0 C-0.99 1.485 -0.99 1.485 -2 3 C-5.125 3.1875 -5.125 3.1875 -8 3 C-8 2.01 -8 1.02 -8 0 C-2.25 -1.125 -2.25 -1.125 0 0 Z " fill="#303332" transform="translate(294,353)"/>
<path d="M0 0 C3.84685385 1.24762828 6.02929405 2.3870391 8 6 C7.67 6.99 7.34 7.98 7 9 C6.7525 8.21625 6.505 7.4325 6.25 6.625 C4.8175952 3.61694992 3.9690761 3.24509643 1 2 C0.67 1.34 0.34 0.68 0 0 Z " fill="#1F2120" transform="translate(607,201)"/>
<path d="M0 0 C1.485 0.99 1.485 0.99 3 2 C2.67 4.97 2.34 7.94 2 11 C1.67 11 1.34 11 1 11 C0.67 7.37 0.34 3.74 0 0 Z " fill="#191B1A" transform="translate(914,724)"/>
<path d="M0 0 C1.4540625 0.0309375 1.4540625 0.0309375 2.9375 0.0625 C2.6075 0.7225 2.2775 1.3825 1.9375 2.0625 C0.6175 2.0625 -0.7025 2.0625 -2.0625 2.0625 C-2.3925 3.0525 -2.7225 4.0425 -3.0625 5.0625 C-3.625 3.125 -3.625 3.125 -4.0625 1.0625 C-3.0625 0.0625 -3.0625 0.0625 0 0 Z " fill="#E9EAE9" transform="translate(518.0625,359.9375)"/>
<path d="M0 0 C0.99 0.33 1.98 0.66 3 1 C2.625 3.4375 2.625 3.4375 2 6 C1.01 6.495 1.01 6.495 0 7 C0 4.69 0 2.38 0 0 Z " fill="#ECEDEC" transform="translate(401,317)"/>
</svg>
