<?xml version="1.0" encoding="UTF-8"?>
<svg version="1.1" xmlns="http://www.w3.org/2000/svg" width="1024" height="1024">
<path d="M0 0 C337.92 0 675.84 0 1024 0 C1024 337.92 1024 675.84 1024 1024 C686.08 1024 348.16 1024 0 1024 C0 686.08 0 348.16 0 0 Z " fill="#FBFAF9" transform="translate(0,0)"/>
<path d="M0 0 C1.16971092 -0.01469078 1.16971092 -0.01469078 2.36305237 -0.02967834 C34.89502191 -0.35486246 34.89502191 -0.35486246 48.4765625 4.23828125 C49.14042969 4.45790527 49.80429687 4.6775293 50.48828125 4.90380859 C71.21677491 11.9853757 88.54166316 24.30980304 98.7265625 43.92578125 C99.20258911 44.8230896 99.20258911 44.8230896 99.68823242 45.73852539 C105.70349996 57.95402402 107.50432258 72.10166833 109.85406494 85.37805176 C118.66838676 135.11538692 118.66838676 135.11538692 146.4765625 176.23828125 C147.35957031 177.12386719 148.24257813 178.00945312 149.15234375 178.921875 C150.83589871 180.60032054 152.52325289 182.27496611 154.21484375 183.9453125 C156.8036155 186.56985312 159.18799425 189.32158331 161.57421875 192.12890625 C163.88435529 194.69045395 166.36307514 197.03738561 168.8515625 199.42578125 C184.6082599 214.9028376 191.92864984 234.43522074 198.35693359 255.08496094 C202.09427112 266.95185836 206.43956178 278.63970126 214.8515625 288.05078125 C215.5947876 288.88319336 215.5947876 288.88319336 216.35302734 289.73242188 C218.03686394 291.59164746 219.75125848 293.4174858 221.4765625 295.23828125 C222.15138672 295.9554834 222.82621094 296.67268555 223.52148438 297.41162109 C225.69672223 299.70546355 227.89367567 301.97586964 230.1015625 304.23828125 C230.78138184 304.9444458 231.46120117 305.65061035 232.16162109 306.37817383 C238.94510055 313.18193396 246.21233653 318.36970251 255.7890625 320.05078125 C256.94019531 320.26347656 258.09132813 320.47617187 259.27734375 320.6953125 C260.33308594 320.87449219 261.38882812 321.05367187 262.4765625 321.23828125 C263.24000977 321.40416748 264.00345703 321.57005371 264.79003906 321.7409668 C267.75481958 322.28979067 270.65194139 322.53471955 273.66015625 322.73828125 C274.83513672 322.82078125 276.01011719 322.90328125 277.22070312 322.98828125 C278.43951172 323.07078125 279.65832031 323.15328125 280.9140625 323.23828125 C283.32960782 323.40230767 285.74498134 323.56888816 288.16015625 323.73828125 C289.22806396 323.81046875 290.29597168 323.88265625 291.39624023 323.95703125 C294.46036622 324.23680244 297.44930647 324.69359644 300.4765625 325.23828125 C299.08228256 328.89624493 297.45050836 332.31791828 295.61328125 335.7734375 C295.05576172 336.83111328 294.49824219 337.88878906 293.92382812 338.97851562 C292.76452836 341.16716036 291.60312116 343.3546903 290.43945312 345.54101562 C286.70849478 352.63026483 283.42399783 359.78882074 280.4765625 367.23828125 C279.32800781 366.90054687 278.17945313 366.5628125 276.99609375 366.21484375 C275.42720334 365.76390519 273.85818587 365.3134085 272.2890625 364.86328125 C271.53947266 364.6415625 270.78988281 364.41984375 270.01757812 364.19140625 C245.11225348 357.10537246 220.80210816 359.13248195 196.29394531 366.40917969 C173.29196011 373.17822143 148.45611694 371.89401266 125.609375 365.2578125 C100.52344129 358.10089621 75.56032026 355.39748899 50.2890625 364.17578125 C26.57396034 371.87716177 0.50202239 373.76062971 -23.5234375 366.23828125 C-55.99823692 357.01663238 -89.20641189 357.98877041 -120.5234375 371.23828125 C-132.52524122 344.52458911 -140.10898368 315.12197091 -144.5234375 286.23828125 C-144.69858887 285.11083496 -144.87374023 283.98338867 -145.05419922 282.82177734 C-145.61906854 279.14988006 -146.16879739 275.47610044 -146.7109375 271.80078125 C-146.87819336 270.67591309 -147.04544922 269.55104492 -147.21777344 268.39208984 C-156.6725526 201.77001191 -145.18948073 127.79709781 -113.59033203 68.25732422 C-112.39249007 65.99046998 -111.22127534 63.71077736 -110.05078125 61.4296875 C-107.95956654 57.37050382 -105.82507418 53.33733115 -103.65039062 49.32226562 C-102.68408964 47.53536241 -101.73484864 45.73925198 -100.7890625 43.94140625 C-88.00403504 21.53596209 -54.9459807 10.6581261 -31.5234375 4.23828125 C-21.11684813 1.47947225 -10.75106522 0.1124565 0 0 Z " fill="#252827" transform="translate(279.5234375,283.76171875)"/>
<path d="M0 0 C0.7486734 0.00215515 1.4973468 0.0043103 2.26870728 0.00653076 C13.53762838 0.05851043 24.27685444 0.63711971 35.25 3.3125 C36.13123535 3.51117676 37.0124707 3.70985352 37.92041016 3.91455078 C83.95670666 14.33300405 122.46320986 42.92233168 147.90234375 82.4609375 C169.89481063 117.78954974 178.50357568 162.36317274 171.25 203.3125 C171.09934082 204.17375488 170.94868164 205.03500977 170.79345703 205.92236328 C164.67723112 239.61742151 149.75532415 270.32818198 125.68505859 294.84228516 C124.30717626 296.25392302 122.95945794 297.69481394 121.61328125 299.13671875 C93.28906424 328.81575631 50.14561288 348.83916766 9.05371094 350.43676758 C-42.33681664 351.58090463 -85.14363947 335.72210512 -122.75 300.3125 C-123.81541016 299.32830078 -123.81541016 299.32830078 -124.90234375 298.32421875 C-146.59148323 277.61086877 -161.75535944 247.88777098 -169.75 219.3125 C-169.98138672 218.50135742 -170.21277344 217.69021484 -170.45117188 216.85449219 C-177.65068405 190.44652545 -178.03320451 158.74232983 -170.75 132.3125 C-170.42056396 131.08829346 -170.42056396 131.08829346 -170.08447266 129.83935547 C-166.97713182 118.58211714 -162.8315606 107.82049912 -157.75 97.3125 C-157.44868164 96.68923828 -157.14736328 96.06597656 -156.83691406 95.42382812 C-150.04375082 81.60746861 -141.62499201 68.85709254 -131.00390625 57.6875 C-129.04575909 55.6241491 -127.24045854 53.50971729 -125.4375 51.3125 C-120.4749631 45.64760869 -114.64380304 40.9628128 -108.75 36.3125 C-108.13930664 35.8273291 -107.52861328 35.3421582 -106.89941406 34.84228516 C-85.14693579 17.83447497 -58.01763909 6.5347618 -30.75 2.3125 C-29.77111816 2.14548584 -28.79223633 1.97847168 -27.78369141 1.80639648 C-18.46882981 0.31583289 -9.40507922 -0.04895411 0 0 Z " fill="#252726" transform="translate(744.75,536.6875)"/>
<path d="M0 0 C1.12647949 0.12358887 2.25295898 0.24717773 3.41357422 0.37451172 C52.56456042 5.90123431 101.40072432 18.34046845 146 40 C146.66596191 40.31855957 147.33192383 40.63711914 148.01806641 40.96533203 C151.9939254 42.87197073 155.92945227 44.84568531 159.84179688 46.87939453 C161.33995714 47.65728544 162.84152068 48.42864303 164.34570312 49.19482422 C193.45288202 64.08620351 220.65110418 83.22626066 245 105 C245.95003906 105.84949219 246.90007813 106.69898438 247.87890625 107.57421875 C249.52274736 109.0524209 251.16363265 110.53392038 252.80078125 112.01953125 C254.88515819 113.89658118 256.99915497 115.73271076 259.125 117.5625 C265.23606527 122.89892319 270.80891258 128.662871 276.09375 134.8125 C278.30945648 137.35511399 280.59098592 139.83110198 282.875 142.3125 C341.28949509 206.4625573 377.40976888 289.61104281 390 375 C390.16516113 376.05944824 390.33032227 377.11889648 390.50048828 378.21044922 C396.08895734 415.24922708 394.90485805 454.92802609 390 492 C389.86609863 493.07024414 389.73219727 494.14048828 389.59423828 495.24316406 C386.29893777 520.9265365 379.43615959 546.24096865 372 571 C371.34 571 370.68 571 370 571 C369.55011719 569.77667969 369.10023438 568.55335938 368.63671875 567.29296875 C361.63931729 547.81012986 361.63931729 547.81012986 350 531 C350.04613441 525.06019417 351.09734472 519.26794525 352.41796875 513.49609375 C367.42931275 444.71594111 360.83763512 372.46626898 339 306 C338.68756348 305.04254883 338.37512695 304.08509766 338.05322266 303.09863281 C329.70563539 277.87540531 318.80668061 252.73615852 305 230 C304.44344727 229.07429199 303.88689453 228.14858398 303.31347656 227.19482422 C295.91489089 214.94054795 288.2585416 203.03247871 279.39990234 191.78076172 C278.00899058 190.01143657 276.6375172 188.22849469 275.26953125 186.44140625 C272.56198416 182.92076285 269.79416701 179.45214188 267 176 C266.57332031 175.46745605 266.14664063 174.93491211 265.70703125 174.38623047 C257.73947538 164.53146449 248.80567294 155.59568296 239.875 146.625 C239.27430695 146.01903992 238.67361389 145.41307983 238.05471802 144.78875732 C230.69079054 137.37500999 223.20899537 130.47923036 215 124 C213.97207693 123.13705591 212.94866481 122.26865068 211.93359375 121.390625 C187.95615425 100.82781303 160.42698485 84.59350714 132 71 C131.2771582 70.65114746 130.55431641 70.30229492 129.80957031 69.94287109 C45.15206912 29.39830009 -55.32996191 21.33027778 -182.78125 55.35546875 C-198.95848304 61.17814076 -214.81233511 67.96344402 -230.03222656 75.97119141 C-232.1865748 77.09754667 -234.35420242 78.1955749 -236.5234375 79.29296875 C-271.95785883 97.37420676 -303.07628765 122.11361062 -331.22033691 150.04510498 C-332.22328786 151.04001215 -333.22771423 152.03343465 -334.23376465 153.02520752 C-340.96155601 159.66758361 -347.12012248 166.59456753 -353 174 C-354.09650398 175.32862993 -355.19639373 176.65447828 -356.30078125 177.9765625 C-404.7257035 236.43916576 -436.01330853 309.64035367 -445 385 C-445.09187592 385.74621109 -445.18375183 386.49242218 -445.27841187 387.26124573 C-446.99365886 401.42033939 -447.32144668 415.43549938 -447.25 429.6875 C-447.24689819 430.79039368 -447.24379639 431.89328735 -447.24060059 433.02960205 C-447.18866725 448.77253728 -446.95623325 464.36089731 -445 480 C-444.8146167 481.59038086 -444.8146167 481.59038086 -444.62548828 483.21289062 C-436.13004666 554.84233541 -408.4907551 625.04552273 -364 682 C-363.1193322 683.1480852 -362.2391493 684.29654247 -361.359375 685.4453125 C-356.31778216 691.98812845 -351.12022127 698.26072822 -345.484375 704.3046875 C-343.54734781 706.40617926 -341.67502929 708.53322844 -339.8125 710.69921875 C-335.49566836 715.64834883 -330.8945476 720.29734358 -326.25 724.9375 C-325.36111084 725.8255835 -324.47222168 726.71366699 -323.55639648 727.62866211 C-318.41123822 732.72582713 -313.26429676 737.57937279 -307.5390625 742.01953125 C-305.13512392 743.89460334 -302.83348792 745.86001115 -300.53588867 747.86303711 C-280.92199337 764.88251767 -258.65287005 778.46106363 -236 791 C-234.77168457 791.68811768 -234.77168457 791.68811768 -233.51855469 792.39013672 C-198.63584973 811.83398892 -160.09753054 825.18938854 -121 833 C-119.44901611 833.3105835 -119.44901611 833.3105835 -117.86669922 833.62744141 C-50.23762869 846.71231618 25.40909686 842.54491507 89.5234375 816.83203125 C90.37977783 816.49236328 91.23611816 816.15269531 92.1184082 815.80273438 C93.68306852 815.16880547 95.23782259 814.50947922 96.77807617 813.81835938 C101.78684563 811.764793 104.73475734 812.01594291 109.74291992 814.02319336 C110.86017456 814.50671265 110.86017456 814.50671265 112 815 C113.45361952 815.55503608 114.90936159 816.10454563 116.3671875 816.6484375 C117.09897217 816.92937256 117.83075684 817.21030762 118.5847168 817.49975586 C128.88735115 821.43696342 139.28924713 824.39727506 150 827 C146.74978647 829.67001341 143.39869917 831.30716563 139.55859375 833.00390625 C138.92744156 833.28338104 138.29628937 833.56285583 137.64601135 833.85079956 C135.57958108 834.76190681 133.50915912 835.66334982 131.4375 836.5625 C130.72537354 836.87269073 130.01324707 837.18288147 129.27954102 837.50247192 C85.801508 856.39500178 41.13418187 868.21626185 -6 873 C-6.73811417 873.08555649 -7.47622833 873.17111298 -8.23670959 873.25926208 C-14.66259393 873.97255049 -21.01030608 874.1608301 -27.47265625 874.16796875 C-28.55340927 874.17129715 -29.63416229 874.17462555 -30.74766541 874.17805481 C-33.03107278 874.18309395 -35.31448746 874.18546407 -37.59790039 874.18530273 C-41.00094663 874.18746096 -44.40365279 874.20557064 -47.80664062 874.22460938 C-69.07007064 874.28133218 -90.0848876 872.90260384 -111.0625 869.375 C-111.83649139 869.24683899 -112.61048279 869.11867798 -113.40792847 868.9866333 C-197.04887706 855.0190941 -273.18450163 817.23485502 -355.72167969 743.45355225 C-357.14381295 742.04332142 -358.56989288 740.63707405 -359.99609375 739.23095703 C-366.10379269 733.13089271 -371.61312236 726.73815991 -377 720 C-377.92345469 718.91023665 -378.8530619 717.82560579 -379.79296875 716.75 C-397.35986347 696.57529546 -411.51665636 674.02497467 -425 651 C-425.4316748 650.2673291 -425.86334961 649.5346582 -426.30810547 648.77978516 C-451.46413513 605.82495591 -467.37413906 556.89970822 -476 508 C-476.1350293 507.23880859 -476.27005859 506.47761719 -476.40917969 505.69335938 C-492.35901811 412.82985568 -475.04974964 318.80852364 -399.81640625 179.4453125 C-390.66331003 166.52297015 -380.93311208 154.05697991 -370.1953125 142.40625 C-368.98110919 141.07537947 -367.77512635 139.73628848 -366.60620117 138.36547852 C-361.56968564 132.47320375 -356.14559836 126.99327138 -350.6574707 121.52709961 C-349.06541034 119.94040054 -347.4787701 118.34842258 -345.89257812 116.75585938 C-340.43538002 111.29439966 -334.91410571 105.97004066 -329 101 C-328.36747314 100.46076904 -327.73494629 99.92153809 -327.08325195 99.3659668 C-311.290187 85.96489191 -294.63191368 73.86760487 -277 63 C-275.70594238 62.20190918 -275.70594238 62.20190918 -274.38574219 61.38769531 C-202.78399001 17.61844081 -119.69937402 -3.2071696 0 0 Z " fill="#252726" transform="translate(556,77)"/>
<path d="M0 0 C14.518146 3.88591084 28.1060707 6.35636135 43.1796875 6.16967773 C45.7441407 6.14046928 48.30654116 6.1491891 50.87109375 6.16210938 C64.36184714 6.14634008 76.44116456 3.83698571 89.46899414 0.30419922 C112.34714407 -5.68659318 137.30974361 -6.27129901 159.48046875 2.703125 C159.26825684 3.825979 159.05604492 4.94883301 158.83740234 6.10571289 C156.77901437 17.5991156 156.00790454 28.74210102 156.08935547 40.40942383 C156.10544199 43.13608946 156.08939176 45.86126919 156.0703125 48.58789062 C156.05154799 64.13258374 157.73861033 79.50663698 161.66796875 94.578125 C161.97988159 95.78746704 161.97988159 95.78746704 162.2980957 97.02124023 C173.83168192 140.04007255 199.91127417 178.09081932 236.48046875 203.703125 C233.39631589 206.3007159 230.67017462 207.45017213 226.80078125 208.53515625 C225.65875244 208.85597168 224.51672363 209.17678711 223.34008789 209.50732422 C222.10766357 209.84006348 220.87523926 210.17280273 219.60546875 210.515625 C218.97252899 210.68854065 218.33958923 210.8614563 217.68746948 211.03961182 C118.86546507 237.94006705 15.64299357 223.71173869 -73.25976562 173.32421875 C-96.04480572 160.1056426 -117.59904971 144.69309717 -137.0703125 126.93359375 C-138.66016676 125.48573605 -140.26119448 124.05001857 -141.875 122.62890625 C-152.01696564 113.67816659 -161.91089679 104.15518846 -170.51953125 93.703125 C-170.96055176 93.17589844 -171.40157227 92.64867187 -171.85595703 92.10546875 C-188.97390663 71.61923763 -203.99351597 49.74652177 -217.14453125 26.515625 C-217.7367749 25.47656006 -218.32901855 24.43749512 -218.93920898 23.36694336 C-222.16119824 17.58289036 -224.65790416 12.06038347 -226.51953125 5.703125 C-212.08043466 -0.77398748 -198.67467227 -3.47531637 -182.89453125 -3.484375 C-181.79496094 -3.49662109 -180.69539063 -3.50886719 -179.5625 -3.52148438 C-167.98394201 -3.54184526 -157.60654129 -1.76354662 -146.58764648 1.72509766 C-133.23846238 5.85179036 -120.91711996 7.45437631 -106.95703125 7.328125 C-106.17956543 7.32266663 -105.40209961 7.31720825 -104.60107422 7.31158447 C-89.80288956 7.14499122 -76.28886415 4.90801866 -62.08203125 0.640625 C-59.64671939 -0.08241819 -57.21054912 -0.8025778 -54.7734375 -1.51953125 C-53.71455322 -1.83672119 -52.65566895 -2.15391113 -51.56469727 -2.48071289 C-34.46420479 -7.06396843 -16.77017491 -4.58772933 0 0 Z " fill="#252827" transform="translate(395.51953125,669.296875)"/>
<path d="M0 0 C0.49242187 0.42684082 0.98484375 0.85368164 1.4921875 1.29345703 C8.79479531 7.62995207 15.12094211 14.28649923 21 22 C21.99773437 23.25683594 21.99773437 23.25683594 23.015625 24.5390625 C37.07553381 42.86122713 44.83856037 64.38911967 48.65625 86.97143555 C48.94146962 88.65459592 49.25951091 90.33215599 49.5859375 92.0078125 C54.0443462 124.22612446 43.86540911 162.06676347 24.4375 188.0625 C23.633125 189.031875 22.82875 190.00125 22 191 C17.95795395 189.38510703 15.24567689 186.52067833 12.2409668 183.48388672 C11.67616608 182.92098434 11.11136536 182.35808197 10.52944946 181.77812195 C8.66445194 179.91682686 6.80675224 178.04842931 4.94921875 176.1796875 C3.64927572 174.87855146 2.34896181 173.57778586 1.04829407 172.27737427 C-1.6791657 169.54835014 -4.4032341 166.8160003 -7.12475586 164.08105469 C-10.5961969 160.59270005 -14.07410705 157.11088715 -17.55439472 153.63136101 C-20.24258844 150.94289382 -22.92815577 148.25181579 -25.61287498 145.5598793 C-26.89318126 144.27641139 -28.17407597 142.99353017 -29.4555912 141.71126938 C-31.25717218 139.90749365 -33.05540767 138.10044561 -34.8527832 136.29248047 C-35.37302567 135.77269119 -35.89326813 135.25290192 -36.42927551 134.71736145 C-39.20033294 131.92268009 -41.84363978 129.05854518 -44.41691589 126.08010864 C-47.93806838 122.01915945 -51.66214922 118.21014456 -55.4765625 114.42578125 C-56.18810486 113.71569916 -56.89964722 113.00561707 -57.63275146 112.27401733 C-59.16426522 110.7462827 -60.69693215 109.21970338 -62.23065186 107.69418335 C-64.66350535 105.27419832 -67.09312949 102.85101157 -69.52197266 100.42700195 C-74.67850604 95.28184645 -79.83895787 90.14063231 -85 85 C-90.98483003 79.03883753 -96.96800595 73.07603428 -102.94696045 67.10897827 C-105.3305867 64.73179328 -107.7172248 62.35766133 -110.10400391 59.98364258 C-111.57729769 58.51398425 -113.05044962 57.04418368 -114.5234375 55.57421875 C-115.17922791 54.92359467 -115.83501831 54.27297058 -116.51068115 53.60263062 C-120.31821583 49.79552736 -123.91609007 45.86468715 -127.43558502 41.79026031 C-129.3201293 39.63365553 -131.29428562 37.59212709 -133.32714844 35.57519531 C-134.09774597 34.807901 -134.86834351 34.04060669 -135.66229248 33.25006104 C-136.46982971 32.45082214 -137.27736694 31.65158325 -138.109375 30.828125 C-138.9580011 29.98328552 -139.8066272 29.13844604 -140.68096924 28.26800537 C-143.36821854 25.59288226 -146.05869589 22.92104335 -148.75 20.25 C-152.31017028 16.71642178 -155.86701832 13.17954784 -159.421875 9.640625 C-160.23750916 8.83328918 -161.05314331 8.02595337 -161.89349365 7.19415283 C-162.65148254 6.43946716 -163.40947144 5.68478149 -164.19042969 4.90722656 C-164.85548523 4.24740784 -165.52054077 3.58758911 -166.20574951 2.90777588 C-167.96969241 1.03222521 -169.49848921 -0.91081205 -171 -3 C-167.04792171 -12.34127596 -152.9281177 -17.24662417 -144 -21 C-95.72089445 -39.32420704 -39.86419868 -35.33938302 0 0 Z " fill="#FAFAF9" transform="translate(833,605)"/>
<path d="M0 0 C4.60941165 0.19718631 6.69003938 2.20755553 9.8359375 5.41015625 C11.18558594 6.77237305 11.18558594 6.77237305 12.5625 8.16210938 C13.50004079 9.1288667 14.43754056 10.0956638 15.375 11.0625 C16.29539062 11.99255859 17.21578125 12.92261719 18.1640625 13.88085938 C21.8951378 17.67323091 25.56047256 21.47452995 29.01220703 25.52319336 C33.77054377 30.99128655 38.94191154 36.05315743 44.08232117 41.15748596 C45.94392032 43.00615875 47.80223504 44.85807961 49.65979004 46.71081543 C53.60370565 50.6433811 57.55154876 54.57198899 61.5 58.5 C66.08055029 63.05683783 70.65941449 67.61534407 75.23405457 72.17811584 C77.05261291 73.99025805 78.87418796 75.79932843 80.69592285 77.60827637 C81.82542672 78.73414312 82.95478786 79.86015311 84.08398438 80.98632812 C84.58081223 81.47798965 85.07764008 81.96965118 85.58952332 82.47621155 C88.26822172 85.15451581 90.80624363 87.90531646 93.27603149 90.77801514 C97.45926055 95.60219083 101.96446762 100.07411793 106.49951172 104.56542969 C107.92079958 105.97954537 109.34208544 107.39366307 110.76329541 108.80785704 C112.27567331 110.31188731 113.78926654 111.8146852 115.30315781 113.31719208 C118.46652046 116.45732112 121.62485536 119.6024749 124.78225708 122.74859619 C133.75545633 131.68849394 142.73296321 140.62403571 151.72070312 149.54931641 C156.69683706 154.49095323 161.66761616 159.43791059 166.63247311 164.39087796 C169.76987339 167.52018137 172.9137313 170.64280125 176.06248164 173.76068163 C178.47332293 176.15178665 180.87432998 178.55268869 183.27685547 180.95214844 C184.15058304 181.81351913 185.02431061 182.67488983 185.92451477 183.56236267 C186.71511795 184.35564468 187.50572113 185.1489267 188.32028198 185.96624756 C189.01083113 186.65273251 189.70138027 187.33921745 190.41285515 188.04650497 C192.0639827 190.0787514 192.60435326 191.43888139 193 194 C171.04794009 210.23851007 145.4291824 219.61633205 118 221 C116.90429688 221.06445312 115.80859375 221.12890625 114.6796875 221.1953125 C77.83166996 222.33026171 43.88932575 207.7602989 17.21875 183.0078125 C14.99961303 180.94916183 14.99961303 180.94916183 12.48046875 179.04296875 C-10.1454455 160.40776694 -23.44145292 125.9650843 -26.7578125 97.7421875 C-29.00023482 63.09314582 -21.95432751 30.74461677 -2 2 C-1.34 1.34 -0.68 0.68 0 0 Z " fill="#FAFAF9" transform="translate(632,630)"/>
<path d="M0 0 C25.88160519 19.48557632 46.32612623 44.7772425 54.390625 76.70703125 C55.52018502 84.76186993 55.8357704 93.78327473 51.71875 101.046875 C46.09051015 108.01963881 37.3211634 110.85832365 28.71875 112.046875 C26.1411751 112.13150411 23.5928218 112.17088211 21.01635742 112.15551758 C19.88068927 112.15472356 19.88068927 112.15472356 18.72207832 112.1539135 C16.1935864 112.15067295 13.66518787 112.13993683 11.13671875 112.12890625 C9.31992159 112.12435525 7.50312363 112.12011628 5.68632507 112.11616516 C0.73713828 112.10351935 -4.2119896 112.0832397 -9.16114044 112.06073761 C-12.29848349 112.04679843 -15.43582922 112.03464254 -18.57318115 112.02288818 C-30.65447094 111.97610062 -42.7354192 111.90739615 -54.8164196 111.81114006 C-60.51033214 111.76597257 -66.20415925 111.72666679 -71.89819336 111.70043945 C-77.54123326 111.67431423 -83.18400849 111.63395012 -88.82688332 111.58368874 C-90.93929601 111.56720566 -93.05175325 111.55557745 -95.16422081 111.54926109 C-130.25866373 111.43312065 -130.25866373 111.43312065 -143.34375 100.484375 C-143.983125 99.68 -144.6225 98.875625 -145.28125 98.046875 C-146.1475 96.995 -146.1475 96.995 -147.03125 95.921875 C-151.18750853 89.68748721 -150.1611002 79.10308082 -148.91503906 71.94238281 C-143.90175477 50.46134556 -130.82397013 32.12831543 -116.28125 16.046875 C-115.59160156 15.28375 -114.90195312 14.520625 -114.19140625 13.734375 C-82.76852913 -19.21646443 -37.94099304 -26.89224232 0 0 Z " fill="#252826" transform="translate(649.28125,177.953125)"/>
<path d="M0 0 C3.87097389 2.79278143 7.45896401 5.80181772 11 9 C11.75925781 9.67675781 12.51851562 10.35351562 13.30078125 11.05078125 C28.17791307 25.0823212 38.80606345 44.0236866 46 63 C46.3403125 63.88558594 46.680625 64.77117187 47.03125 65.68359375 C48.93489339 71.4738424 49.32536987 77.13740176 49.4375 83.1875 C49.47109619 84.31043457 49.47109619 84.31043457 49.50537109 85.45605469 C49.48194171 91.0421137 48.11197671 95.337141 45 100 C36.13288992 108.0226234 21.17792343 106.70838375 9.9944458 106.2588501 C-5.08879186 105.39025955 -20.12482334 103.04706913 -35.09313965 101.07568359 C-39.06468541 100.5564846 -43.03810798 100.05258748 -47.0116663 99.54905987 C-50.88426093 99.05733187 -54.75599369 98.55908389 -58.62747002 98.0586338 C-60.45505875 97.82258028 -62.28280959 97.58777784 -64.11073494 97.35434532 C-102.87412134 92.37967075 -102.87412134 92.37967075 -115 81 C-118.2011187 76.19832195 -117.68271426 71.61547852 -117 66 C-112.72523356 50.25000503 -104.59378015 35.47944307 -93 24 C-92.195625 23.154375 -91.39125 22.30875 -90.5625 21.4375 C-89.716875 20.633125 -88.87125 19.82875 -88 19 C-87.34128906 18.34644531 -86.68257812 17.69289063 -86.00390625 17.01953125 C-63.02383763 -4.90398249 -29.04912527 -18.11623437 0 0 Z " fill="#252826" transform="translate(785,295)"/>
<path d="M0 0 C10.23 0 20.46 0 31 0 C31.875 9.5 31.875 9.5 32.13623047 12.38085938 C32.40584715 15.25601066 32.69864768 18.12799465 33 21 C33.12552246 22.19713623 33.25104492 23.39427246 33.38037109 24.62768555 C34.49024396 34.3327189 36.28310774 43.78983384 38.34225464 53.33456421 C41.04437118 65.90280368 43.58055981 78.46317727 45.4375 91.1875 C45.58880371 92.22302002 45.74010742 93.25854004 45.89599609 94.32543945 C46.29761756 97.21402459 46.66191198 100.10332634 47 103 C47.1016748 103.8657666 47.20334961 104.7315332 47.30810547 105.62353516 C48.35024967 116.04683485 48.24198308 126.53562939 48.25 137 C48.25133942 138.0361142 48.25267883 139.07222839 48.25405884 140.13973999 C48.24905269 158.12405911 47.25001097 175.83297505 45.42773438 193.71484375 C44.83043679 199.61341107 44.32771531 205.51997476 43.81958008 211.42675781 C43.57110267 214.3101651 43.31043623 217.1920168 43.0378418 220.07324219 C42.44863392 226.35610006 41.93840629 232.61032147 41.75390625 238.921875 C41.24365058 253.256628 41.24365058 253.256628 37.8515625 258.01171875 C35.03012985 260.32788051 32.12726233 262.12286371 29 264 C26.91940809 265.7574191 24.92076137 267.51715594 22.9375 269.375 C22.43355713 269.82875 21.92961426 270.2825 21.41040039 270.75 C18.86094294 273.08168529 16.58330868 275.43807728 14.4765625 278.1796875 C8.48200975 285.80382741 8.48200975 285.80382741 3.48828125 286.46484375 C0.2219547 286.21413112 -2.8195334 285.77268389 -6 285 C-6.99348302 257.22450737 -1.68952365 231.84685318 5.00802612 205.09469604 C7.00471549 197.1144247 8.96045801 189.14668587 10.5 181.0625 C10.63535156 180.36979004 10.77070312 179.67708008 10.91015625 178.96337891 C13.60675845 164.04336279 14.38180584 149.12918259 14.3125 134 C14.30968018 133.10116089 14.30686035 132.20232178 14.30395508 131.27624512 C14.18766412 106.45690219 10.34466154 82.85760617 5.921875 58.49609375 C2.38978184 38.98168689 -0.53745747 19.88592644 0 0 Z " fill="#252726" transform="translate(587,304)"/>
<path d="M0 0 C2.25216547 1.70093616 4.40336159 3.47685207 6.546875 5.3125 C7.35769531 5.97894531 8.16851563 6.64539063 9.00390625 7.33203125 C20.11605611 16.80552307 31.29485329 30.80370194 34.18359375 45.56640625 C34.47469164 52.94423207 31.98530454 56.62397513 27.109375 62 C17.95891745 69.0691371 1.66254732 68.38079557 -9.41015625 69.35546875 C-11.32628063 69.52996407 -13.24235133 69.70504984 -15.15837097 69.88069153 C-19.15594938 70.24514136 -23.15402392 70.60331873 -27.15258789 70.95678711 C-32.23319876 71.40629176 -37.31236768 71.87019646 -42.39125538 72.33872509 C-46.34344303 72.70189141 -50.29624923 73.05792433 -54.2492733 73.41185951 C-56.12021649 73.58008332 -57.99098371 73.75027812 -59.86155128 73.9226284 C-96.04409393 77.23972486 -96.04409393 77.23972486 -105.953125 69.3125 C-110.9718946 62.6208072 -110.32273004 54.33683039 -109.453125 46.3125 C-108.33908577 41.64907997 -106.61042946 37.58501518 -104.453125 33.3125 C-103.88335937 32.18328125 -103.31359375 31.0540625 -102.7265625 29.890625 C-92.64718992 11.22512023 -78.47810106 -5.78972309 -57.48828125 -12.1796875 C-36.82379168 -17.33589411 -17.27898245 -11.88617901 0 0 Z " fill="#252726" transform="translate(532.453125,326.6875)"/>
<path d="M0 0 C0.33128906 1.08667969 0.66257812 2.17335938 1.00390625 3.29296875 C4.87168095 15.56553943 9.53961321 27.42509254 14.4375 39.3125 C27.55556674 71.2148372 37.67583351 102.34118241 37.28125 137.16625977 C37.24973968 139.96058503 37.24021764 142.75434143 37.234375 145.54882812 C37.19274051 155.07650328 36.94703983 164.51308357 36 174 C25.45881238 173.59159121 13.04060839 173.02707226 4 167 C3.75668557 164.22563845 3.70069088 161.67632618 3.77734375 158.90625 C3.78633194 158.08612427 3.79532013 157.26599854 3.80458069 156.42102051 C3.83466317 153.78025645 3.88424881 151.14039147 3.9375 148.5 C4.25735343 131.45293747 3.66351633 114.94771088 -0.4375 98.3125 C-0.68991455 97.27907471 -0.9423291 96.24564941 -1.20239258 95.1809082 C-6.41303962 74.83091371 -14.43229857 55.24649307 -22.20117188 35.76831055 C-24.91789561 28.90957462 -27.45790756 22.03300717 -29.6875 15 C-29.93153564 14.23461914 -30.17557129 13.46923828 -30.42700195 12.68066406 C-31.47022876 9.26646724 -32 6.60628259 -32 3 C-28.32196203 1.16098102 -23.99162579 1.31108838 -19.9375 0.9375 C-19.02033203 0.84662109 -18.10316406 0.75574219 -17.15820312 0.66210938 C-11.41071052 0.12035423 -5.77248348 -0.08862564 0 0 Z " fill="#242726" transform="translate(521,411)"/>
<path d="M0 0 C10.13846367 6.15043163 16.00857853 14.68494074 19.6171875 25.921875 C21.53150256 36.31387104 20.06873286 46.11159817 14.71484375 55.17578125 C8.12036123 64.63583278 -0.19989279 70.91946347 -11.4453125 73.578125 C-22.12226691 75.34129178 -31.1074885 73.49185867 -40.375 68 C-41.24125 67.34 -42.1075 66.68 -43 66 C-43.825 65.443125 -44.65 64.88625 -45.5 64.3125 C-52.97796979 57.39537794 -57.38261961 47.9852181 -58.2734375 37.90625 C-58.6135871 26.49815566 -56.25928849 17.39565869 -48.8125 8.5625 C-36.02384887 -4.54586741 -16.51995513 -8.83434686 0 0 Z " fill="#FAFAF9" transform="translate(248,453)"/>
<path d="M0 0 C10.88529859 0.45949586 21.31408771 1.92036713 32 4 C32.35520399 10.27238268 31.06123751 15.71068543 29.4375 21.75 C29.1679248 22.7613501 28.89834961 23.7727002 28.62060547 24.81469727 C22.77922118 46.16775521 13.65498405 64.69558609 2.44213867 83.68701172 C-2.30658281 91.74254812 -6.83620966 99.89997048 -11.26855469 108.13330078 C-11.73165039 108.99294434 -12.19474609 109.85258789 -12.671875 110.73828125 C-13.0750293 111.49149658 -13.47818359 112.24471191 -13.89355469 113.02075195 C-16.59150269 117.84693563 -16.59150269 117.84693563 -18.83740234 118.68847656 C-19.57941895 118.83768555 -20.32143555 118.98689453 -21.0859375 119.140625 C-21.92552002 119.32085205 -22.76510254 119.5010791 -23.63012695 119.68676758 C-24.53593506 119.87263428 -25.44174316 120.05850098 -26.375 120.25 C-37.26071257 122.64010119 -47.56878495 126.11210352 -58 130 C-55.99173296 122.41702482 -53.1613375 115.49175698 -49.75 108.4375 C-49.23203857 107.36193848 -48.71407715 106.28637695 -48.18041992 105.17822266 C-42.19607512 93.00802211 -35.1464574 81.5126838 -28 70 C-17.80458299 53.49313436 -7.78758443 36.95358767 -3 18 C-2.76925781 17.11957031 -2.53851562 16.23914063 -2.30078125 15.33203125 C-1.07101743 10.26470659 -0.49398706 5.1868641 0 0 Z " fill="#242726" transform="translate(722,406)"/>
<path d="M0 0 C6.68761609 4.49291855 11.85977215 10.12148009 14 18 C14.99191564 27.64950946 15.03551565 36.53576142 9.11328125 44.5546875 C2.97788249 51.94286402 -3.59072406 56.06041791 -13.15625 57.2734375 C-21.48215962 57.63422692 -28.71488816 55.21034438 -35.3984375 50.203125 C-41.98634212 44.08053706 -45.06057219 38.14924369 -45.46850586 29.1171875 C-45.62343378 18.70218775 -43.16674232 11.47605379 -36.06640625 3.79296875 C-25.41982161 -5.44480507 -12.28865706 -6.26827752 0 0 Z " fill="#F9F9F8" transform="translate(330,384)"/>
<path d="M0 0 C4.41539249 4.09640976 8.62225766 8.56597872 9.30078125 14.734375 C9.32926421 22.06399079 9.33372022 28.35599846 4.1953125 33.97265625 C-2.69627293 40.30511305 -8.23433285 41.52502354 -17.546875 41.37890625 C-23.9044943 40.68129418 -27.70411144 37.63966278 -31.875 33 C-36.62630524 26.29227495 -36.64746688 20.02251925 -36 12 C-33.62496595 4.99989965 -28.25896248 0.65106145 -22 -3 C-14.20803072 -5.46062188 -6.79498552 -4.38386162 0 0 Z " fill="#FAF9F8" transform="translate(363,504)"/>
<path d="M0 0 C1.46248421 -0.01441132 1.46248421 -0.01441132 2.95451355 -0.02911377 C4.00762222 -0.03336365 5.0607309 -0.03761353 6.14575195 -0.04199219 C7.77562798 -0.0505423 7.77562798 -0.0505423 9.43843079 -0.05926514 C11.74084499 -0.06871737 14.04327274 -0.07525 16.34570312 -0.07910156 C19.85286401 -0.08878116 23.3594324 -0.11979239 26.86645508 -0.15136719 C29.1053839 -0.15790002 31.3443169 -0.16314939 33.58325195 -0.16699219 C34.62623947 -0.17933899 35.66922699 -0.19168579 36.74382019 -0.20440674 C43.50879456 -0.18391484 50.13999571 0.10459532 55.1965332 5.16113281 C55.76544111 8.5446377 55.73426073 11.77504663 55.1965332 15.16113281 C53.00630403 17.9853757 51.36636114 19.57621885 48.1965332 21.16113281 C46.52802896 21.26673594 44.85539073 21.30988512 43.18359375 21.32226562 C42.13878342 21.33187317 41.09397308 21.34148071 40.01750183 21.35137939 C38.88419937 21.35562927 37.75089691 21.35987915 36.58325195 21.36425781 C34.84069878 21.37280792 34.84069878 21.37280792 33.0629425 21.38153076 C30.60072748 21.39099077 28.13849973 21.3975187 25.67626953 21.40136719 C21.91001248 21.41106591 18.14430255 21.44207789 14.37817383 21.47363281 C11.98820312 21.48016336 9.59822849 21.48541363 7.20825195 21.48925781 C5.5174073 21.50777802 5.5174073 21.50777802 3.79240417 21.52667236 C2.73813736 21.52367126 1.68387054 21.52067017 0.59765625 21.51757812 C-0.78894951 21.52304657 -0.78894951 21.52304657 -2.2035675 21.52862549 C-5.37617324 21.08018144 -7.22431217 20.03872724 -9.8034668 18.16113281 C-12.6206915 13.93529576 -12.4789371 10.12543266 -11.8034668 5.16113281 C-8.64323476 0.69321856 -5.24615357 0.04177575 0 0 Z " fill="#F7F7F6" transform="translate(304.803466796875,719.8388671875)"/>
<path d="M0 0 C1.39544289 -0.00642769 1.39544289 -0.00642769 2.81907654 -0.01298523 C4.77643015 -0.01870311 6.73380499 -0.01924764 8.69116211 -0.01489258 C11.67794018 -0.01172475 14.66373418 -0.0352508 17.65039062 -0.06054688 C19.55859251 -0.06281941 21.46679704 -0.06352358 23.375 -0.0625 C24.26264542 -0.07170975 25.15029083 -0.08091949 26.06483459 -0.09040833 C31.16629777 -0.05248254 34.70778751 0.45380564 39.12109375 3.30078125 C41.55046667 6.21602875 42.08602286 8.02021411 42.55859375 11.80078125 C42.04788714 15.88643414 41.0465842 17.45887624 38.12109375 20.30078125 C35.2078326 21.2718683 33.30409804 21.43800563 30.27001953 21.46191406 C29.28534698 21.47152161 28.30067444 21.48112915 27.28616333 21.49102783 C26.22364349 21.49527771 25.16112366 21.49952759 24.06640625 21.50390625 C22.4258577 21.51245636 22.4258577 21.51245636 20.75216675 21.5211792 C18.43716398 21.53062912 16.12214776 21.53716315 13.80712891 21.54101562 C10.26701391 21.55072388 6.72747878 21.58174908 3.1875 21.61328125 C0.93880553 21.61981111 -1.30989309 21.62506165 -3.55859375 21.62890625 C-4.61706512 21.64125305 -5.6755365 21.65359985 -6.76608276 21.6663208 C-15.9410954 21.63853497 -15.9410954 21.63853497 -19.87890625 18.30078125 C-22.44510322 14.8791853 -22.38874679 11.45233992 -21.87890625 7.30078125 C-16.40080135 -0.1693618 -8.48568402 -0.00873276 0 0 Z " fill="#F6F5F4" transform="translate(466.87890625,738.69921875)"/>
<path d="M0 0 C0.87496124 -0.00960754 1.74992249 -0.01921509 2.65139771 -0.02911377 C3.60029877 -0.03336365 4.54919983 -0.03761353 5.52685547 -0.04199219 C6.50387421 -0.04769226 7.48089294 -0.05339233 8.48751831 -0.05926514 C10.56051549 -0.06872531 12.63352778 -0.07525314 14.70654297 -0.07910156 C17.86046139 -0.0887643 21.01371628 -0.11976041 24.16748047 -0.15136719 C26.18310161 -0.15790159 28.1987274 -0.16315034 30.21435547 -0.16699219 C31.15111115 -0.17933899 32.08786682 -0.19168579 33.05300903 -0.20440674 C38.97210382 -0.18453393 43.40667393 0.58157414 48.76904297 3.16113281 C51.44038759 7.16814975 51.59557578 10.44989578 50.76904297 15.16113281 C48.23935823 18.44288599 46.69172965 19.85357058 42.76904297 21.16113281 C41.24623464 21.262423 39.71947887 21.30945173 38.19335938 21.32226562 C37.26874908 21.33187317 36.34413879 21.34148071 35.39151001 21.35137939 C34.39461151 21.35562927 33.39771301 21.35987915 32.37060547 21.36425781 C31.34349457 21.36995789 30.31638367 21.37565796 29.25814819 21.38153076 C27.08438141 21.39097914 24.91060031 21.3975141 22.73681641 21.40136719 C19.41397087 21.41107459 16.09174338 21.44210066 12.76904297 21.47363281 C10.65706747 21.48016282 8.54508756 21.4854133 6.43310547 21.48925781 C5.44025543 21.50160461 4.4474054 21.51395142 3.42446899 21.52667236 C-2.9543855 21.5061081 -6.59233877 20.79975108 -11.23095703 16.16113281 C-11.79986493 12.77762792 -11.76868455 9.547219 -11.23095703 6.16113281 C-7.85842403 1.81234026 -5.40074474 0.04783853 0 0 Z " fill="#F6F6F5" transform="translate(373.23095703125,789.8388671875)"/>
<path d="M0 0 C1.47712212 -0.01441132 1.47712212 -0.01441132 2.98408508 -0.02911377 C4.0517662 -0.03336365 5.11944733 -0.03761353 6.21948242 -0.04199219 C7.31459641 -0.04769226 8.40971039 -0.05339233 9.53800964 -0.05926514 C11.85898876 -0.06872432 14.17998136 -0.07525275 16.50097656 -0.07910156 C20.04996238 -0.08879891 23.5983672 -0.1198109 27.1472168 -0.15136719 C29.40046856 -0.15789792 31.65372447 -0.16314811 33.90698242 -0.16699219 C35.49939507 -0.18551239 35.49939507 -0.18551239 37.12397766 -0.20440674 C46.33893795 -0.17659053 46.33893795 -0.17659053 50.26245117 3.16113281 C52.59312694 6.37968506 52.72986254 9.26603807 52.26245117 13.16113281 C49.13937425 18.86882512 49.13937425 18.86882512 45.26245117 20.16113281 C43.61724599 20.26811341 41.96815768 20.31978177 40.31958008 20.33813477 C39.31488678 20.35097 38.31019348 20.36380524 37.27505493 20.37702942 C36.19066132 20.38441635 35.1062677 20.39180328 33.98901367 20.39941406 C32.87311859 20.40748581 31.75722351 20.41555756 30.60751343 20.4238739 C28.24543815 20.43770899 25.88334293 20.44843371 23.52124023 20.45629883 C19.90855149 20.47353216 16.29677296 20.51742715 12.68432617 20.56152344 C10.39006207 20.57164864 8.09579019 20.58016528 5.80151367 20.58691406 C4.72116852 20.60442215 3.64082336 20.62193024 2.52774048 20.63996887 C-4.97273361 20.61826443 -4.97273361 20.61826443 -8.90356445 18.26879883 C-11.48120237 15.30650542 -11.76880628 13.24274781 -12.01489258 9.41894531 C-11.5314103 5.48299097 -9.59480037 3.81904123 -6.73754883 1.16113281 C-4.30521697 -0.05503311 -2.71851182 0.02136702 0 0 Z " fill="#FAFAF9" transform="translate(494.737548828125,822.8388671875)"/>
<path d="M0 0 C3.49228038 3.15968225 5.46786387 5.72273261 5.75390625 10.55078125 C5.43060519 16.37999734 3.82654419 19.36887647 -0.375 23.375 C-3.41479253 25.68104951 -6.57221308 25.79989701 -10.3515625 25.6875 C-15.07887506 24.95741312 -17.78194328 22.07730401 -20.75 18.5625 C-22.70132523 14.73490051 -22.9815099 12.62056929 -22.375 8.375 C-17.31453818 -0.69893154 -9.96086442 -4.79597176 0 0 Z " fill="#F7F7F6" transform="translate(294.375,569.625)"/>
<path d="M0 0 C3.42215793 1.92885265 5.46291808 3.33142526 6.6953125 7.16015625 C7.28313201 10.90594227 7.27215819 13.34109071 5.8125 16.875 C2.82733264 20.37485138 1.31089199 21.83006956 -3.375 22.4375 C-7.63875929 21.92290836 -9.69374447 20.69113822 -13 18 C-15.45917586 14.3112362 -15.81591937 11.2815571 -15 7 C-11.42616801 0.80890071 -7.00371524 -1.10448199 0 0 Z " fill="#F8F8F7" transform="translate(778,338)"/>
<path d="M0 0 C3.4375 1.9375 3.4375 1.9375 6 5 C6.80204018 8.48887478 6.78533747 11.5089743 6 15 C2.95424136 18.92742561 0.71855716 20.76411961 -4.1875 21.4375 C-8.61230323 20.9297357 -10.44517991 19.86219346 -13.609375 16.84765625 C-16.10854699 13.52712717 -16.13151758 11.14280376 -16 7 C-14.66163388 3.45726616 -13.37656108 2.25674619 -10.25 0.125 C-6.21980207 -1.27006851 -4.09649318 -1.17042662 0 0 Z " fill="#F6F6F5" transform="translate(724,338)"/>
<path d="M0 0 C2.5224382 1.94588089 4.00590399 3.5599155 4.5234375 6.7734375 C4.59389369 10.90217052 4.5549057 13.09965089 2.3125 16.6875 C-1.18413205 19.97844781 -3.8294916 20.07690651 -8.484375 20.046875 C-12.40254236 19.44205722 -14.11608816 17.51873243 -16.8125 14.6875 C-18.36274464 11.58701072 -18.10242015 9.10855782 -17.8125 5.6875 C-13.60286251 -1.07798883 -7.56029175 -3.52813615 0 0 Z " fill="#F6F6F6" transform="translate(653.8125,243.3125)"/>
<path d="M0 0 C5.53846154 3.07692308 5.53846154 3.07692308 7 6 C7.55512815 10.63213493 7.6364242 13.98172127 5.125 18 C1.5922879 21.3249055 -1.04920088 21.33797121 -5.7421875 21.28515625 C-9.11376856 20.85933373 -10.74020743 19.46522826 -13 17 C-15.03640233 14.31565147 -14.99994332 12.99688261 -14.9375 9.5625 C-13.82940237 5.35172899 -12.31363542 3.74789278 -9 1 C-5.89046621 -0.5547669 -3.43733239 -0.28644437 0 0 Z " fill="#F8F8F7" transform="translate(621,194)"/>
<path d="M0 0 C3.95021168 1.34583639 6.29358665 4.06764206 8.12109375 7.72265625 C8.24259803 12.21831463 7.92376122 15.69423855 5.12109375 19.28515625 C1.01362891 21.25331649 -2.40227126 21.3969951 -6.87890625 20.72265625 C-9.83705958 19.4638676 -11.3260272 18.61988904 -13.0078125 15.890625 C-14.53591465 12.08750081 -14.03394779 8.59342046 -12.87890625 4.72265625 C-9.73937546 -0.24452997 -5.4382507 -0.94458655 0 0 Z " fill="#F7F7F6" transform="translate(564.87890625,230.27734375)"/>
<path d="M0 0 C2.75329021 1.79562405 4.52627461 3.05254922 6 6 C6.3751455 10.97067782 6.15878799 14.05151502 3 18 C-0.42159595 20.56619697 -3.84844133 20.50984054 -8 20 C-11.57513152 17.04663048 -13.74364334 14.87994881 -14.375 10.25 C-13.8528401 5.7246142 -12.15770622 4.2328897 -9 1 C-5.89951072 -0.55024464 -3.42105782 -0.28992015 0 0 Z " fill="#F8F7F7" transform="translate(238,359)"/>
<path d="M0 0 C3.375 2 3.375 2 6 5 C6.69724396 8.9933063 6.85292141 11.23056216 5.109375 14.84765625 C3.9375 16.5 3.9375 16.5 1 19 C-2.94524145 19.63405666 -5.17098791 19.36844982 -8.8125 17.75 C-11.20153715 15.83877028 -12.18309876 14.94084445 -13 12 C-13 7.33730743 -12.49118667 5.53687845 -9.3125 2.0625 C-5.63597227 -0.22665878 -4.21842577 -0.8788387 0 0 Z " fill="#F7F7F6" transform="translate(522,345)"/>
<path d="M0 0 C4.78392275 0.83928469 6.33163907 2.00013164 9.5625 5.625 C10.39057079 9.51693273 9.70094404 11.31926942 8.0625 14.9375 C5.16858966 18.04845362 3.663546 18.63209902 -0.46875 18.87109375 C-3.64933212 18.47352099 -5.29413319 16.89826782 -7.4375 14.625 C-9.00685594 11.48628812 -8.78951103 9.08644178 -8.4375 5.625 C-5.86890902 1.96670376 -4.41498801 0.80272509 0 0 Z " fill="#F5F6F5" transform="translate(461.4375,358.375)"/>
<path d="M0 0 C0.81220001 -0.00095673 1.62440002 -0.00191345 2.46121216 -0.00289917 C4.17059405 -0.0035762 5.87997859 -0.00175536 7.58935547 0.00244141 C10.180724 0.00778243 12.77191814 0.00248732 15.36328125 -0.00390625 C17.03385454 -0.00324511 18.70442773 -0.00196322 20.375 0 C21.519189 -0.00303635 21.519189 -0.00303635 22.68649292 -0.00613403 C27.96373831 0.01642107 33.08289773 0.47935237 38.3203125 1.1328125 C38.3203125 1.4628125 38.3203125 1.7928125 38.3203125 2.1328125 C32.79822176 3.06590175 27.4733655 3.27907652 21.87890625 3.265625 C20.99300308 3.26658173 20.10709991 3.26753845 19.1943512 3.26852417 C17.33114551 3.26920144 15.46793741 3.2673789 13.60473633 3.26318359 C10.76312946 3.25782253 7.92168017 3.26314728 5.08007812 3.26953125 C3.26302049 3.26887051 1.44596295 3.26758944 -0.37109375 3.265625 C-1.63694054 3.26866135 -1.63694054 3.26866135 -2.92835999 3.27175903 C-7.29188074 3.25451856 -11.38294394 3.00647646 -15.6796875 2.1328125 C-15.6796875 1.8028125 -15.6796875 1.4728125 -15.6796875 1.1328125 C-10.40615199 0.25606654 -5.34065314 -0.01409773 0 0 Z " fill="#303231" transform="translate(501.6796875,74.8671875)"/>
<path d="M0 0 C0.33 0 0.66 0 1 0 C2.01342087 5.03137799 2.14562903 9.83548666 2.1328125 14.94140625 C2.13376923 15.78670395 2.13472595 16.63200165 2.13571167 17.50291443 C2.13638947 19.28213577 2.13456318 21.06135964 2.13037109 22.84057617 C2.12501049 25.55718553 2.1303331 28.27363007 2.13671875 30.99023438 C2.13605803 32.7239587 2.13477699 34.45768292 2.1328125 36.19140625 C2.13483673 36.99985489 2.13686096 37.80830353 2.13894653 38.64125061 C2.12270941 42.56158191 1.9655963 46.17165518 1 50 C0.67 50 0.34 50 0 50 C-1.04473387 41.67529523 -1.15369411 33.42358624 -1.13037109 25.04882812 C-1.12497855 22.74081961 -1.13036196 20.43300287 -1.13671875 18.125 C-1.13605842 16.64062458 -1.1347782 15.15624927 -1.1328125 13.671875 C-1.13483673 12.99050476 -1.13686096 12.30913452 -1.13894653 11.6071167 C-1.11963299 7.63691908 -0.76004716 3.89609083 0 0 Z " fill="#2D2F2F" transform="translate(75,487)"/>
<path d="M0 0 C0.33 0 0.66 0 1 0 C1 11.88 1 23.76 1 36 C0.67 36 0.34 36 0 36 C-1.52542957 30.07477769 -2.17611184 25.00468796 -1.359375 18.9375 C-0.88874976 15.0906502 -0.66409327 11.24281541 -0.4375 7.375 C-0.39391357 6.65103027 -0.35032715 5.92706055 -0.30541992 5.18115234 C-0.20191907 3.45420227 -0.10071266 1.72711492 0 0 Z " fill="#E7E7E7" transform="translate(916,491)"/>
<path d="M0 0 C5.50808397 0.59015185 10.64878069 1.56663769 16 3 C12.27074217 6.2428329 7.69761265 8.5119901 3 10 C2.01 9.67 1.02 9.34 0 9 C1.98 8.34 3.96 7.68 6 7 C6.33 5.35 6.66 3.7 7 2 C4.69 1.67 2.38 1.34 0 1 C0 0.67 0 0.34 0 0 Z " fill="#141515" transform="translate(690,901)"/>
<path d="M0 0 C0.66 0.33 1.32 0.66 2 1 C2.18451025 14.6332574 2.18451025 14.6332574 1 21 C-2.96668014 15.04997979 -1.008428 6.80688898 0 0 Z " fill="#1A1C1C" transform="translate(630,488)"/>
<path d="M0 0 C7.59 0 15.18 0 23 0 C23 0.33 23 0.66 23 1 C20.36 1.33 17.72 1.66 15 2 C15 2.33 15 2.66 15 3 C10.05 3 5.1 3 0 3 C0 2.01 0 1.02 0 0 Z " fill="#303231" transform="translate(535,286)"/>
<path d="M0 0 C6.27 0 12.54 0 19 0 C16 3 16 3 12.20703125 3.29296875 C10.74190067 3.2730801 9.27691633 3.23737968 7.8125 3.1875 C7.06291016 3.17396484 6.31332031 3.16042969 5.54101562 3.14648438 C3.69370233 3.11118539 1.84675934 3.05737917 0 3 C0 2.01 0 1.02 0 0 Z " fill="#2D302E" transform="translate(439,399)"/>
<path d="M0 0 C2.37507855 -0.02719556 4.74983964 -0.04693247 7.125 -0.0625 C8.12273437 -0.07506836 8.12273437 -0.07506836 9.140625 -0.08789062 C13.20681354 -0.10782292 17.0120092 0.21109839 21 1 C17.5233662 3.14336161 14.78770805 3.21277626 10.75 3.125 C9.67234375 3.10695313 8.5946875 3.08890625 7.484375 3.0703125 C6.66453125 3.04710937 5.8446875 3.02390625 5 3 C5 2.67 5 2.34 5 2 C3.35 1.67 1.7 1.34 0 1 C0 0.67 0 0.34 0 0 Z " fill="#2D302E" transform="translate(483,948)"/>
<path d="M0 0 C1 2 1 2 0.44140625 3.9453125 C0.15136719 4.66460938 -0.13867188 5.38390625 -0.4375 6.125 C-0.72496094 6.84945312 -1.01242187 7.57390625 -1.30859375 8.3203125 C-1.53675781 8.87460937 -1.76492188 9.42890625 -2 10 C-0.906875 9.484375 0.18625 8.96875 1.3125 8.4375 C5 7 5 7 8 8 C3.71 9.65 -0.58 11.3 -5 13 C-2.25 3.375 -2.25 3.375 0 0 Z " fill="#0D0E0E" transform="translate(669,523)"/>
<path d="M0 0 C0.99 0 1.98 0 3 0 C3.33 4.62 3.66 9.24 4 14 C3.01 14 2.02 14 1 14 C0.875 7.25 0.875 7.25 2 5 C1.34 5 0.68 5 0 5 C0 3.35 0 1.7 0 0 Z " fill="#2F3030" transform="translate(943,452)"/>
<path d="M0 0 C0.33 0.99 0.66 1.98 1 3 C-0.89575251 3.02721176 -2.79161979 3.04649136 -4.6875 3.0625 C-6.27111328 3.07990234 -6.27111328 3.07990234 -7.88671875 3.09765625 C-10.72410262 3.00865425 -13.2438919 2.64939838 -16 2 C-16 1.67 -16 1.34 -16 1 C-14.27111445 0.83044205 -12.54187557 0.66448486 -10.8125 0.5 C-9.84957031 0.4071875 -8.88664062 0.314375 -7.89453125 0.21875 C-5.24812333 0.01875156 -2.65239135 -0.03879183 0 0 Z " fill="#2B2D2C" transform="translate(507,412)"/>
<path d="M0 0 C1.19935725 3.47651527 0.80128318 5.69868278 -0.25 9.1875 C-0.62898437 10.50814453 -0.62898437 10.50814453 -1.015625 11.85546875 C-1.34046875 12.56316406 -1.6653125 13.27085937 -2 14 C-2.99 14.33 -3.98 14.66 -5 15 C-4.37321829 11.33827525 -3.35548154 8.1181005 -1.9375 4.6875 C-1.39416016 3.36298828 -1.39416016 3.36298828 -0.83984375 2.01171875 C-0.56269531 1.34785156 -0.28554688 0.68398438 0 0 Z " fill="#161817" transform="translate(718,430)"/>
<path d="M0 0 C-0.66 0 -1.32 0 -2 0 C-2 0.66 -2 1.32 -2 2 C-6.29 2.66 -10.58 3.32 -15 4 C-12.83900627 1.83900627 -11.4789582 1.28436284 -8.625 0.3125 C-7.46871094 -0.09548828 -7.46871094 -0.09548828 -6.2890625 -0.51171875 C-3.79944692 -1.04278009 -2.38446982 -0.81115526 0 0 Z " fill="#161817" transform="translate(638,899)"/>
<path d="M0 0 C0 1.98 0 3.96 0 6 C-0.66 6 -1.32 6 -2 6 C-1.67 8.64 -1.34 11.28 -1 14 C-1.99 13.67 -2.98 13.34 -4 13 C-3.88652381 11.02013918 -3.7589065 9.04108402 -3.625 7.0625 C-3.55539062 5.96035156 -3.48578125 4.85820312 -3.4140625 3.72265625 C-3.27742187 2.82417969 -3.14078125 1.92570312 -3 1 C-1 0 -1 0 0 0 Z " fill="#2F3130" transform="translate(603,466)"/>
<path d="M0 0 C4.29 0 8.58 0 13 0 C12.01 1.485 12.01 1.485 11 3 C7.375 3.1875 7.375 3.1875 4 3 C4 2.34 4 1.68 4 1 C2.68 0.67 1.36 0.34 0 0 Z " fill="#2F3231" transform="translate(746,884)"/>
<path d="M0 0 C0 0.99 0 1.98 0 3 C-1.98567708 2.93489583 -3.97135417 2.86979167 -5.95703125 2.8046875 C-8.31359719 2.86745538 -8.31359719 2.86745538 -11 5 C-8.45499142 -0.63537615 -5.97208347 -0.11059414 0 0 Z " fill="#EEEFEE" transform="translate(465,359)"/>
<path d="M0 0 C1.89363878 3.28230722 2.4560776 6.27024643 3 10 C3.31674575 11.33737094 3.64270064 12.67288808 4 14 C3.360625 13.195625 2.72125 12.39125 2.0625 11.5625 C0.59396498 9.7249496 0.59396498 9.7249496 -1 8 C-1.23529412 2.47058824 -1.23529412 2.47058824 0 0 Z " fill="#151616" transform="translate(907,600)"/>
<path d="M0 0 C3.4375 0.25 3.4375 0.25 5.4375 1.25 C5.4375 1.91 5.4375 2.57 5.4375 3.25 C1.4775 3.25 -2.4825 3.25 -6.5625 3.25 C-3.5625 0.25 -3.5625 0.25 0 0 Z " fill="#343636" transform="translate(731.5625,536.75)"/>
<path d="M0 0 C3.9375 0.3125 3.9375 0.3125 5.9375 2.3125 C3.29291621 3.63479189 1.25988699 3.40927194 -1.6875 3.375 C-2.69039063 3.36597656 -3.69328125 3.35695313 -4.7265625 3.34765625 C-5.49742187 3.33605469 -6.26828125 3.32445313 -7.0625 3.3125 C-4.79975954 0.62416572 -3.5148412 -0.08540736 0 0 Z " fill="#333534" transform="translate(482.0625,75.6875)"/>
<path d="M0 0 C4.62 0.66 9.24 1.32 14 2 C14 2.33 14 2.66 14 3 C12.37585622 3.19477739 10.75063577 3.38059458 9.125 3.5625 C8.22007812 3.66691406 7.31515625 3.77132812 6.3828125 3.87890625 C4 4 4 4 2 3 C2 2.34 2 1.68 2 1 C1.34 0.67 0.68 0.34 0 0 Z " fill="#0F1110" transform="translate(339,544)"/>
<path d="M0 0 C3.63 0 7.26 0 11 0 C10.67 0.99 10.34 1.98 10 3 C6.6875 3.1875 6.6875 3.1875 3 3 C2.01 2.01 1.02 1.02 0 0 Z " fill="#353837" transform="translate(478,890)"/>
<path d="M0 0 C0.99 0.33 1.98 0.66 3 1 C3 2.98 3 4.96 3 7 C2.67 7 2.34 7 2 7 C1.67 8.65 1.34 10.3 1 12 C0.67 12 0.34 12 0 12 C0 8.04 0 4.08 0 0 Z " fill="#2D2F2E" transform="translate(915,716)"/>
<path d="M0 0 C0.66 1.32 1.32 2.64 2 4 C6.455 3.01 6.455 3.01 11 2 C9.694761 4.61047801 8.64173426 4.68066423 5.9375 5.625 C5.20402344 5.88539063 4.47054687 6.14578125 3.71484375 6.4140625 C3.14894531 6.60742188 2.58304688 6.80078125 2 7 C0.5393715 4.35261084 0 3.10551666 0 0 Z " fill="#141615" transform="translate(157,648)"/>
<path d="M0 0 C0.33 0.99 0.66 1.98 1 3 C-0.21484375 5.04296875 -0.21484375 5.04296875 -1.9375 7.1875 C-2.50339844 7.90292969 -3.06929687 8.61835938 -3.65234375 9.35546875 C-4.09707031 9.89816406 -4.54179687 10.44085938 -5 11 C-5.66 10.67 -6.32 10.34 -7 10 C-3.535 5.05 -3.535 5.05 0 0 Z " fill="#151615" transform="translate(152,263)"/>
<path d="M0 0 C0 0.99 0 1.98 0 3 C-3.63 2.67 -7.26 2.34 -11 2 C-11 1.67 -11 1.34 -11 1 C-7.26513121 0.4254048 -3.78706732 0 0 0 Z " fill="#2C2E2E" transform="translate(575,913)"/>
<path d="M0 0 C1 2 1 2 0.546875 3.91015625 C0.28390625 4.62042969 0.0209375 5.33070313 -0.25 6.0625 C-0.62898437 7.13177734 -0.62898437 7.13177734 -1.015625 8.22265625 C-2 10 -2 10 -5 11 C-3.77472971 6.94718288 -2.30119506 3.55639236 0 0 Z " fill="#0F1010" transform="translate(592,625)"/>
<path d="M0 0 C0.66 0.33 1.32 0.66 2 1 C2.37211538 7.57403846 2.37211538 7.57403846 0.48828125 9.73046875 C-0.00285156 10.14941406 -0.49398437 10.56835938 -1 11 C-1.0270043 9.54176788 -1.04639787 8.08339325 -1.0625 6.625 C-1.07410156 5.81289063 -1.08570313 5.00078125 -1.09765625 4.1640625 C-1 2 -1 2 0 0 Z " fill="#333534" transform="translate(627,528)"/>
<path d="M0 0 C2.98704569 0.49784095 4.39324263 1.26216175 7 3 C3.04 3 -0.92 3 -5 3 C-3.68 2.34 -2.36 1.68 -1 1 C-0.67 0.67 -0.34 0.34 0 0 Z " fill="#E7E7E7" transform="translate(227,524)"/>
<path d="M0 0 C0.53625 0.226875 1.0725 0.45375 1.625 0.6875 C0.635 0.6875 -0.355 0.6875 -1.375 0.6875 C-1.375 1.3475 -1.375 2.0075 -1.375 2.6875 C-3.025 3.3475 -4.675 4.0075 -6.375 4.6875 C-7.035 4.0275 -7.695 3.3675 -8.375 2.6875 C-2.95961538 -0.38942308 -2.95961538 -0.38942308 0 0 Z " fill="#171918" transform="translate(349.375,106.3125)"/>
<path d="M0 0 C0.33 0.66 0.66 1.32 1 2 C-1 5 -1 5 -4 6 C-4.33 6.66 -4.66 7.32 -5 8 C-5.66 7.67 -6.32 7.34 -7 7 C-4.78071806 4.09197539 -3.07030857 2.04687238 0 0 Z " fill="#141715" transform="translate(189,316)"/>
<path d="M0 0 C1.32 0.33 2.64 0.66 4 1 C4.33 2.98 4.66 4.96 5 7 C4.01 7.33 3.02 7.66 2 8 C2 5.69 2 3.38 2 1 C1.34 0.67 0.68 0.34 0 0 Z " fill="#2D302F" transform="translate(549,672)"/>
<path d="M0 0 C0.33 0 0.66 0 1 0 C1.33 3.63 1.66 7.26 2 11 C1.01 10.67 0.02 10.34 -1 10 C-0.67 6.7 -0.34 3.4 0 0 Z " fill="#343634" transform="translate(111,564)"/>
<path d="M0 0 C3.96 0 7.92 0 12 0 C12 0.66 12 1.32 12 2 C10.0625 2.5625 10.0625 2.5625 8 3 C7.67 2.67 7.34 2.34 7 2 C4.67182036 1.63239269 2.3381615 1.29758419 0 1 C0 0.67 0 0.34 0 0 Z " fill="#404342" transform="translate(346,545)"/>
<path d="M0 0 C1.32 0 2.64 0 4 0 C4 0.66 4 1.32 4 2 C5.65 2 7.3 2 9 2 C9 2.33 9 2.66 9 3 C2.9453125 3.1953125 2.9453125 3.1953125 1 3 C0.34 2.34 -0.32 1.68 -1 1 C-0.67 0.67 -0.34 0.34 0 0 Z " fill="#171919" transform="translate(436,942)"/>
<path d="M0 0 C0.99 0.33 1.98 0.66 3 1 C3 2.65 3 4.3 3 6 C2.01 6 1.02 6 0 6 C0 4.02 0 2.04 0 0 Z " fill="#2D2E2D" transform="translate(603,723)"/>
<path d="M0 0 C0.66 0.33 1.32 0.66 2 1 C2 3.64 2 6.28 2 9 C1.01 8.34 0.02 7.68 -1 7 C-1.25 3.9375 -1.25 3.9375 -1 1 C-0.67 0.67 -0.34 0.34 0 0 Z " fill="#373938" transform="translate(916,473)"/>
</svg>
