<?xml version="1.0" encoding="UTF-8"?>
<svg version="1.1" xmlns="http://www.w3.org/2000/svg" width="1024" height="1024">
<path d="M0 0 C337.92 0 675.84 0 1024 0 C1024 337.92 1024 675.84 1024 1024 C686.08 1024 348.16 1024 0 1024 C0 686.08 0 348.16 0 0 Z " fill="#FAF9F8" transform="translate(0,0)"/>
<path d="M0 0 C3.60349917 0.02369919 7.20625614 0.02050923 10.80981445 0.01391602 C31.86564038 0.03814257 52.86462418 1.09847829 73.66333008 4.52368164 C74.64249893 4.68232697 74.64249893 4.68232697 75.64144897 4.84417725 C113.50607523 11.00665095 149.65654456 21.46046071 185.03833008 36.33618164 C185.95598145 36.71983887 186.87363281 37.10349609 187.8190918 37.4987793 C224.82266302 53.123122 259.3694006 75.48913767 290.03833008 101.33618164 C290.56072266 101.77365723 291.08311523 102.21113281 291.62133789 102.66186523 C305.07182678 113.94380592 317.90350786 125.7012993 329.62963867 138.77905273 C331.01568916 140.31115499 332.42248654 141.8206307 333.83911133 143.32446289 C340.16853991 150.06328525 345.96476657 157.10191596 351.58178711 164.44262695 C353.0834604 166.39485257 354.60415793 168.33104808 356.12817383 170.26586914 C369.23089635 187.00045503 380.82113668 204.70269319 391.03833008 223.33618164 C391.76101074 224.65392578 391.76101074 224.65392578 392.49829102 225.99829102 C416.9096526 270.88216078 433.00522826 319.32399276 440.65649414 369.8347168 C440.97240454 371.90429352 441.31098665 373.97039539 441.65551758 376.03540039 C452.01615956 440.82926138 444.66931592 512.47478408 423.03833008 574.33618164 C421.46604495 571.27893567 420.09028088 568.17083865 418.75317383 565.00415039 C417.82854566 562.84350033 416.90269949 560.68337121 415.97583008 558.52368164 C415.49283447 557.39671875 415.00983887 556.26975586 414.51220703 555.10864258 C411.70251536 548.69254285 408.6536327 542.87216424 404.72583008 537.08618164 C401.835606 532.65012283 400.48758813 529.46932082 401.28833008 524.08618164 C401.85468946 521.83184918 402.44003269 519.58224887 403.03833008 517.33618164 C403.60591274 514.17952732 404.06833717 511.00863379 404.53833008 507.83618164 C404.79692505 506.1809481 405.05730687 504.5259926 405.31958008 502.87133789 C405.44333008 502.08645996 405.56708008 501.30158203 405.69458008 500.49291992 C405.97890561 498.70901952 406.27296067 496.92667286 406.56958008 495.14477539 C407.10250371 491.88061817 407.57153877 488.61048588 408.03833008 485.33618164 C408.16240234 484.55243164 408.28647461 483.76868164 408.41430664 482.96118164 C410.80608256 467.58144052 411.3154718 452.43176051 411.28833008 436.89868164 C411.28746399 435.97231903 411.2865979 435.04595642 411.28570557 434.09152222 C411.23924055 414.83220091 410.3476517 396.05196129 407.28833008 377.02368164 C407.15449921 376.17522675 407.02066833 375.32677185 406.88278198 374.4526062 C404.80099395 361.28113595 402.49589309 348.2263703 399.03833008 335.33618164 C398.66587158 333.93867676 398.66587158 333.93867676 398.28588867 332.51293945 C391.83641115 308.67945738 383.23074869 285.80573794 373.03833008 263.33618164 C372.48991455 262.10375732 372.48991455 262.10375732 371.93041992 260.84643555 C356.3465011 225.86634524 333.61323939 193.12888832 307.58911133 165.10571289 C305.54279498 162.88390846 303.55768585 160.63584426 301.60083008 158.33618164 C295.07798988 150.82550747 287.89956543 143.71381492 280.31567383 137.27758789 C278.49309407 135.72386209 276.70158468 134.14788211 274.91723633 132.55102539 C260.29601802 119.54629434 244.59585422 107.76840255 228.03833008 97.33618164 C227.32870117 96.88742676 226.61907227 96.43867188 225.88793945 95.97631836 C204.00921935 82.24803289 181.09318524 70.7203621 157.03833008 61.33618164 C156.23588867 61.01601074 155.43344727 60.69583984 154.60668945 60.3659668 C117.35562594 45.53979075 76.9659756 37.07411996 37.03833008 34.33618164 C36.26360352 34.27833496 35.48887695 34.22048828 34.69067383 34.16088867 C-60.80650616 27.06597032 -156.57451143 54.74744782 -260.57202148 131.71948242 C-268.06320905 138.29082868 -275.10404754 145.36297943 -282.17697144 152.3772583 C-283.18217042 153.37376231 -284.18873336 154.36889278 -285.19680786 155.36248779 C-291.92425202 162.0046531 -298.07911267 168.93361541 -303.96166992 176.33618164 C-305.03431983 177.63001723 -306.11070245 178.92077469 -307.19213867 180.20727539 C-322.53660442 198.63031855 -335.09758017 218.56022913 -346.96166992 239.33618164 C-347.61522461 240.47893555 -347.61522461 240.47893555 -348.28198242 241.64477539 C-373.49910041 286.1715047 -388.80030088 337.67062011 -394.96166992 388.33618164 C-395.06608398 389.1722998 -395.17049805 390.00841797 -395.27807617 390.86987305 C-397.08963279 406.19644465 -397.16989359 421.54905762 -397.21166992 436.96118164 C-397.21693695 437.94462555 -397.22220398 438.92806946 -397.22763062 439.9413147 C-397.31146337 460.21047063 -395.88786257 480.18543631 -392.33666992 500.14868164 C-392.21249695 500.86645782 -392.08832397 501.58423401 -391.96038818 502.32376099 C-389.66297037 515.56364787 -386.72745617 528.63080689 -383.50219727 541.67333984 C-383.3331488 542.36104462 -383.16410034 543.04874939 -382.9899292 543.7572937 C-382.53206832 545.61161596 -382.06672254 547.46408558 -381.60083008 549.31640625 C-380.96166992 552.33618164 -380.96166992 552.33618164 -380.96166992 556.33618164 C-380.40406982 556.05943604 -379.84646973 555.78269043 -379.27197266 555.49755859 C-368.07182267 549.96939006 -357.04157204 544.64574386 -344.96166992 541.33618164 C-344.32841797 541.15434326 -343.69516602 540.97250488 -343.04272461 540.78515625 C-312.68434827 532.92889127 -283.39272963 543.51309939 -257.05175781 557.69628906 C-237.59226145 568.02315546 -216.22528131 573.68908212 -194.33666992 568.64868164 C-193.3534375 568.42595581 -193.3534375 568.42595581 -192.3503418 568.19873047 C-181.53949249 565.48673503 -171.80251164 560.32848899 -162.14916992 554.89868164 C-144.54660279 545.20014025 -128.49540215 538.77432651 -108.08666992 538.96118164 C-106.82725586 538.94958008 -105.5678418 538.93797852 -104.27026367 538.92602539 C-81.37866798 538.99660585 -62.03462527 548.22408924 -42.96166992 560.02368164 C-26.28989735 569.94350194 -6.77038964 572.96624833 12.22583008 569.21118164 C14.50826041 568.6299581 16.77945574 568.00311173 19.03833008 567.33618164 C20.30161133 566.96879883 21.56489258 566.60141602 22.86645508 566.22290039 C34.83113078 562.47529424 45.67128574 556.56484676 56.66088867 550.61206055 C59.42688689 549.12765855 62.21861714 547.71523452 65.03833008 546.33618164 C63.80010494 549.54099964 62.44901941 552.68366637 61.05004883 555.82055664 C39.11928881 605.23912825 40.02746544 658.83461798 58.87426758 709.20654297 C67.78472237 732.05963189 81.48129766 752.33226386 98.03833008 770.33618164 C98.53913086 770.88226074 99.03993164 771.42833984 99.5559082 771.9909668 C126.68387787 801.18904654 162.42207783 817.3449608 200.03833008 828.33618164 C196.7127215 831.08290711 193.10915483 832.82490169 189.19458008 834.55883789 C188.5217247 834.86055405 187.84886932 835.1622702 187.15562439 835.47312927 C184.95320273 836.45606345 182.74653253 837.42880821 180.53833008 838.39868164 C179.40102951 838.89948242 179.40102951 838.89948242 178.24075317 839.41040039 C155.74827014 849.28086859 132.83025125 857.19607142 109.03833008 863.33618164 C107.69230713 863.6895459 107.69230713 863.6895459 106.3190918 864.05004883 C92.03842448 867.7694424 77.65402625 870.33491582 63.03833008 872.33618164 C61.97227539 872.48861328 60.9062207 872.64104492 59.80786133 872.7980957 C13.42269462 879.21277079 -34.29726795 876.13516467 -79.96166992 866.33618164 C-80.98695801 866.11736328 -82.01224609 865.89854492 -83.06860352 865.6730957 C-141.62750739 852.93124042 -199.63023928 828.11755332 -247.36938477 791.55200195 C-249.90050373 789.61931682 -252.46648277 787.7334961 -255.02416992 785.83618164 C-275.92073686 770.09372773 -297.50829859 753.40343751 -314.46166992 733.33618164 C-316.66104662 730.78001717 -318.91106515 728.36545214 -321.33666992 726.02368164 C-325.45609597 721.94982447 -329.07319241 717.51856786 -332.66333008 712.97631836 C-333.54112171 711.86744205 -334.42375306 710.76238242 -335.31079102 709.66088867 C-350.83424356 690.33840246 -365.1435066 669.12705662 -376.96166992 647.33618164 C-377.73704102 645.91450684 -377.73704102 645.91450684 -378.52807617 644.46411133 C-405.35036727 594.92841086 -422.8280053 541.39321776 -428.96166992 485.33618164 C-429.06608398 484.44930664 -429.17049805 483.56243164 -429.27807617 482.64868164 C-432.85943881 451.45909313 -432.55632107 418.50610504 -428.96166992 387.33618164 C-428.76831055 385.65830566 -428.76831055 385.65830566 -428.57104492 383.9465332 C-426.47137837 366.48333429 -423.10095875 349.42198174 -418.96166992 332.33618164 C-418.73253906 331.36938477 -418.5034082 330.40258789 -418.26733398 329.40649414 C-402.55951332 263.56587574 -370.14230735 199.83700282 -324.96166992 149.33618164 C-323.72416992 147.94979492 -323.72416992 147.94979492 -322.46166992 146.53540039 C-321.04347077 144.95669559 -319.62122451 143.38160085 -318.19213867 141.81274414 C-316.93806905 140.42030957 -315.69089143 139.02133632 -314.46899414 137.60058594 C-309.76781247 132.14121485 -304.8075277 126.98994533 -299.71166992 121.89868164 C-298.87192627 121.05901855 -298.03218262 120.21935547 -297.16699219 119.35424805 C-292.08947698 114.32328857 -286.97159294 109.60188161 -281.32885742 105.21118164 C-278.93765099 103.31715674 -276.74491541 101.30129505 -274.52416992 99.21118164 C-253.8313298 80.47049624 -229.32862231 65.73728211 -204.96166992 52.33618164 C-204.20031738 51.91030762 -203.43896484 51.48443359 -202.65454102 51.0456543 C-157.56772894 25.87749913 -105.99615511 10.08086149 -54.85688782 3.69992065 C-52.92203467 3.45683651 -50.9878497 3.20837518 -49.05436707 2.95462036 C-32.65541798 0.81818413 -16.5344199 -0.11560962 0 0 Z " fill="#282B2B" transform="translate(504.961669921875,75.663818359375)"/>
<path d="M0 0 C0.81543274 0.00149048 1.63086548 0.00298096 2.4710083 0.0045166 C14.49948318 0.04404999 26.05954448 0.55342203 37.8125 3.3125 C39.0396875 3.57933594 40.266875 3.84617187 41.53125 4.12109375 C72.23801854 11.5025285 98.64621145 27.1666608 121.8125 48.3125 C122.63105469 49.05886719 123.44960938 49.80523438 124.29296875 50.57421875 C153.16415065 78.21901417 168.97773026 116.2157473 173.8125 155.3125 C173.90748779 156.02631836 174.00247559 156.74013672 174.1003418 157.47558594 C176.4493262 176.29287849 174.91602211 194.87962522 170.8125 213.3125 C170.66296875 214.00843262 170.5134375 214.70436523 170.359375 215.42138672 C160.75480991 259.0977018 133.12484948 297.19560507 95.94482422 321.53515625 C57.11269695 346.31248621 10.41068636 357.08027217 -35.15234375 347.27734375 C-51.55246985 343.52634215 -66.35966242 337.14090805 -81.1875 329.3125 C-82.09846436 328.83707764 -82.09846436 328.83707764 -83.02783203 328.35205078 C-97.443642 320.76043259 -109.4565735 310.50426136 -121.1875 299.3125 C-122.05117188 298.50167969 -122.91484375 297.69085937 -123.8046875 296.85546875 C-145.77552279 275.67175061 -161.44385054 245.64354776 -169.1875 216.3125 C-169.37779785 215.65507813 -169.5680957 214.99765625 -169.76416016 214.3203125 C-176.75460132 189.43502561 -175.95729072 156.85512271 -169.625 131.875 C-169.36251465 130.83802979 -169.1000293 129.80105957 -168.82958984 128.73266602 C-161.08570317 99.33690815 -145.81176389 74.4753413 -125.1875 52.3125 C-124.57519531 51.64605469 -123.96289062 50.97960937 -123.33203125 50.29296875 C-117.71156714 44.40885814 -111.34279989 39.51328331 -104.87890625 34.60253906 C-103.38766145 33.46516355 -101.91135401 32.30826011 -100.4375 31.1484375 C-72.11483273 9.47468907 -35.15790687 -0.15897644 0 0 Z " fill="#282B2A" transform="translate(743.1875,536.6875)"/>
<path d="M0 0 C3.27618193 2.85615861 4.26997613 5.31406909 4.9375 9.5 C5.2145929 13.57529316 4.72997374 15.81503064 2 19 C-0.26269201 20.98675396 -2.30832695 22.65416347 -5 24 C-5 30.93 -5 37.86 -5 45 C-1.535 45.2784375 -1.535 45.2784375 2 45.5625 C14.3668466 46.91212273 25.34411742 51.99243091 34.984375 59.8125 C36.89459459 61.17449558 36.89459459 61.17449558 38.98046875 60.96484375 C41.75707182 59.63830418 43.45314282 57.79320767 45.5625 55.5625 C47.99836547 53.00340357 50.04978421 50.96681053 53 49 C52.835 48.505 52.67 48.01 52.5 47.5 C51.79093383 43.95466914 51.3420185 40.56583524 52 37 C54.4375 34.0625 54.4375 34.0625 57 32 C57.33 31.67 57.66 31.34 58 31 C64.02417007 30.35417509 69.82815114 30.34592847 75.140625 33.49609375 C80.10730334 37.51326005 83.48795332 41.99738616 84.57421875 48.3671875 C84.8457481 56.62542493 84.8457481 56.62542493 82.23828125 60.86328125 C80 63 80 63 77.78125 63.5234375 C76.65203125 63.44996094 76.65203125 63.44996094 75.5 63.375 C74.7471875 63.34148437 73.994375 63.30796875 73.21875 63.2734375 C71 63 71 63 69.07714844 62.3112793 C66.95996672 61.76478908 66.95996672 61.76478908 65.26074219 63.07983398 C64.69516602 63.62969971 64.12958984 64.17956543 63.546875 64.74609375 C62.928125 65.33583984 62.309375 65.92558594 61.671875 66.53320312 C60.72054687 67.47583008 60.72054687 67.47583008 59.75 68.4375 C59.1003125 69.06205078 58.450625 69.68660156 57.78125 70.33007812 C56.17639883 71.87592741 54.58365243 73.43248791 53 75 C54.30327946 78.5537878 55.95073751 81.77331379 57.81811523 85.06225586 C63.64756427 95.40552174 66.5156698 105.12535844 68 117 C74.93 117 81.86 117 89 117 C89.66 115.02 90.32 113.04 91 111 C94.12095167 107.66130752 95.95978394 106.16717758 100.5 105.4375 C104.81091723 106.13032598 106.76187561 107.04970889 110 110 C114.39495198 116.43595136 114.99809334 123.40844157 114 131 C112.77730641 135.45269698 111.20168315 138.83366048 107.875 142.0625 C103.52347869 143.48147434 99.50101603 144.07906131 95 143 C93.65234375 141.4296875 93.65234375 141.4296875 92.5 139.5 C90.92298226 137.2107807 89.80683119 136.14986019 87.04150391 135.63623047 C77.05173305 134.76979058 77.05173305 134.76979058 68 138 C67.37717232 140.21156512 67.37717232 140.21156512 67.125 142.8125 C65.45937348 153.17188447 61.41398878 162.01485025 55.55078125 170.66015625 C53.79745651 173.20283115 53.79745651 173.20283115 52 177 C56.95 181.95 61.9 186.9 67 192 C70.89459074 190.31622777 70.89459074 190.31622777 73 188 C77.00191836 188.0741096 79.27627559 188.42473188 82.4375 190.9375 C85.10859126 196.17283886 84.73588429 201.03469112 83.33984375 206.66015625 C81.01160201 213.3425124 77.3703472 217.8148264 71 221 C58.65305088 222.1937658 58.65305088 222.1937658 54.1875 219.0625 C51.25054897 214.95076856 51.30838288 211.89384775 52 207 C52.31004614 205.66106002 52.63634571 204.32538464 53 203 C52.49210938 202.56429687 51.98421875 202.12859375 51.4609375 201.6796875 C47.13240118 197.93477405 42.99693056 194.09685382 39 190 C36.19830674 191.3115619 33.89131019 192.81768639 31.4375 194.6875 C21.26870784 201.55101312 8.07746346 205.48526044 -4 207 C-4.06462616 210.39781034 -4.04026666 213.78944101 -4 217.1875 C-4.01933594 218.14720703 -4.03867187 219.10691406 -4.05859375 220.09570312 C-3.9995893 222.93775097 -3.85479805 225.28512111 -3 228 C-1.07928506 229.82204085 0.69724371 230.87608353 3.08984375 231.9934082 C5 233 5 233 7 236 C7.66036734 240.03866761 7.89569891 244.18269353 6.0546875 247.91796875 C3.45450089 251.22952717 0.95990975 252.82158182 -3 254 C-6.14963574 254.3317346 -9.27238923 254.37012685 -12.4375 254.375 C-13.27087891 254.39949219 -14.10425781 254.42398437 -14.96289062 254.44921875 C-20.48458555 254.47540861 -23.62223157 253.67189569 -28 250 C-31.14049509 246.33608906 -31.57416954 242.90469593 -31.42578125 238.21875 C-30.69165503 234.39321151 -28.79350592 232.66357541 -26 230 C-23 228 -23 228 -20 228 C-20 220.74 -20 213.48 -20 206 C-22.97 206 -25.94 206 -29 206 C-31.88918515 205.25589854 -34.48500279 204.48345113 -37.25 203.4375 C-38.34090942 203.03966309 -38.34090942 203.03966309 -39.45385742 202.63378906 C-46.33259112 200.03985948 -52.62900344 196.66214321 -59 193 C-60.32756004 192.32190963 -61.65848474 191.6500454 -63 191 C-65.47107519 193.19759652 -67.93089625 195.40478846 -70.37109375 197.63671875 C-71.88545287 198.99806685 -73.42745938 200.33228609 -75.03515625 201.58203125 C-76.96734657 203.05888716 -76.96734657 203.05888716 -79 206 C-79.0344278 208.62081647 -78.68545655 211.01200752 -78.24609375 213.59375 C-77.88582909 217.11633777 -79.00766861 219.1538123 -81 222 C-85.6838755 225.12258367 -90.51752609 224.57518651 -96 224 C-101.85907344 221.287466 -106.10316133 216.19013776 -109.375 210.6875 C-110.36708528 206.42153329 -110.71375142 202.33960862 -110 198 C-107.56543724 194.84164831 -105.30027757 193.20018505 -102 191 C-97.86467552 191.33529658 -94.6220369 193.06263142 -91 195 C-90.7525 194.43410156 -90.505 193.86820313 -90.25 193.28515625 C-88.79764463 190.63006909 -87.04815279 188.66260716 -85 186.4375 C-80.71404192 181.99373284 -80.71404192 181.99373284 -78.5 176.375 C-79.13323349 172.10067393 -80.9591321 169.74555054 -83.41796875 166.26171875 C-87.43802907 160.51452141 -89.63763876 154.38895584 -91.75 147.75 C-91.97308838 147.05189209 -92.19617676 146.35378418 -92.42602539 145.63452148 C-93.46868473 142.23347577 -94 139.59316538 -94 136 C-94.76183594 136.01160156 -95.52367187 136.02320313 -96.30859375 136.03515625 C-102.63840322 136.09047294 -108.72555549 135.8365926 -115 135 C-115.2475 135.928125 -115.495 136.85625 -115.75 137.8125 C-117.11903387 141.30353637 -117.86039507 142.12174512 -121 144 C-126.0169184 144.99344919 -129.95395264 144.57057129 -134.4375 142.125 C-139.65845607 136.83009271 -140.18116296 129.325052 -140.375 122.25 C-140.23459429 116.56691181 -139.29707927 112.85415538 -135.6953125 108.37890625 C-132.85471301 106.06846473 -130.03799214 106.53394333 -126.51171875 106.65234375 C-122.77675226 107.16931423 -120.71637843 108.41944049 -118 111 C-117.34 112.98 -116.68 114.96 -116 117 C-108.41 117 -100.82 117 -93 117 C-92.938125 115.14375 -92.87625 113.2875 -92.8125 111.375 C-91.91699531 100.08918741 -87.91261828 90.58648077 -81.55078125 81.3046875 C-80.17076951 79.25378844 -79.04558492 77.23538846 -78 75 C-82.60136502 69.46398272 -87.46398272 64.60136502 -93 60 C-93.5878125 60.32226562 -94.175625 60.64453125 -94.78125 60.9765625 C-98.01648355 62.46887093 -100.48419208 62.37669371 -104 62 C-107.7659531 59.35365458 -108.98085138 56.41631068 -110 52 C-110.66602595 46.10091305 -109.96758454 42.76858529 -106.55078125 37.8984375 C-103.04692457 33.60908146 -100.17633345 30.35612729 -94.5625 29.4375 C-89.27280342 30.27271525 -84.95131726 31.68286085 -80.5 34.6875 C-78.20359485 38.22779127 -78.66789201 40.81543936 -79 45 C-79.33 45.99 -79.66 46.98 -80 48 C-77.36280717 50.69743328 -74.69414261 53.35944793 -72 56 C-71.16275391 56.83144531 -71.16275391 56.83144531 -70.30859375 57.6796875 C-68.67411039 59.25623113 -68.67411039 59.25623113 -66 61 C-61.96256003 60.69752078 -59.69747249 59.27375223 -56.5625 56.8125 C-50.4917228 52.3824734 -43.94651956 49.73959196 -37 47 C-35.80310547 46.42185547 -35.80310547 46.42185547 -34.58203125 45.83203125 C-30.95992419 44.66484698 -27.79752019 44.8712705 -24 45 C-23.93941406 43.91460937 -23.87882813 42.82921875 -23.81640625 41.7109375 C-23.73193936 40.26561514 -23.64729449 38.82030318 -23.5625 37.375 C-23.52318359 36.66214844 -23.48386719 35.94929688 -23.44335938 35.21484375 C-23.19690319 31.08196318 -22.76529947 27.07730976 -22 23 C-23.0828125 22.87625 -23.0828125 22.87625 -24.1875 22.75 C-27.60939065 21.83749583 -29.43946748 20.41828071 -32 18 C-33.66255366 13.01233902 -33.83282597 8.01631552 -31.8125 3.125 C-24.31912716 -5.66033367 -9.48777293 -5.00264391 0 0 Z " fill="#282B2B" transform="translate(626,170)"/>
<path d="M0 0 C4.27461239 0.48938319 6.32551066 2.95742826 9.25 5.9375 C10.14203125 6.83339844 11.0340625 7.72929688 11.953125 8.65234375 C14 11 14 11 14 13 C14.66 13 15.32 13 16 13 C17.4733963 14.49340057 17.4733963 14.49340057 19.17492676 16.54382324 C22.67666836 20.6588615 26.36637364 24.4955905 30.20117188 28.29882812 C30.88345352 28.97964951 31.56573517 29.66047089 32.26869202 30.36192322 C33.7363622 31.82581604 35.20518542 33.28855359 36.67506409 34.75022888 C39.00710692 37.06939513 41.33591268 39.39176959 43.66394043 41.71496582 C48.60648286 46.64613431 53.55294504 51.57335913 58.5 56.5 C64.23701516 62.21334128 69.97237172 67.92832723 75.70350647 73.64756775 C77.98741518 75.92503874 80.27433646 78.19945406 82.56140137 80.47375488 C83.97402632 81.88274414 85.38650929 83.29187578 86.79882812 84.70117188 C87.42656631 85.32374374 88.0543045 85.94631561 88.70106506 86.5877533 C91.72347953 89.60981081 94.62829289 92.6821947 97.41967773 95.91967773 C101.24563953 100.34414508 105.33766505 104.46357329 109.48632812 108.58398438 C110.30515976 109.40135574 111.12399139 110.21872711 111.96763611 111.06086731 C113.73324247 112.82268919 115.50000242 114.58335562 117.26780701 116.3429718 C120.07030031 119.13262134 122.86966668 121.92538652 125.66809082 124.71911621 C131.60908386 130.64906495 137.55431086 136.5747604 143.5 142.5 C149.9215628 148.89947654 156.34236293 155.29970766 162.75827169 161.70485353 C165.97831472 164.91915937 169.20224516 168.12953506 172.42687988 171.3392334 C174.12262614 173.03134491 175.81823091 174.72359823 177.51367188 176.41601562 C178.2723204 177.16949783 179.03096893 177.92298004 179.81260681 178.69929504 C183.2819258 182.16827184 186.70674698 185.67736204 190.03039551 189.28649902 C190.60350716 189.90513573 191.1766188 190.52377243 191.76709747 191.1611557 C193 193 193 193 193 197 C176.13732242 215.27168837 140.72662305 222.03029408 117.0234375 223.31640625 C84.59860311 224.40683729 51.21075476 214.87939161 26 194 C25.15477783 193.31647461 25.15477783 193.31647461 24.29248047 192.61914062 C9.60256826 180.68816911 -1.65043073 167.44769518 -11 151 C-11.63679687 149.88238281 -12.27359375 148.76476562 -12.9296875 147.61328125 C-28.06588323 119.19086927 -33.80295736 82.35641265 -25 51 C-24.77425293 50.18950195 -24.54850586 49.37900391 -24.31591797 48.54394531 C-19.13100159 30.53881339 -11.07283783 15.0517299 0 0 Z " fill="#F9F9F8" transform="translate(633,628)"/>
<path d="M0 0 C0.72251953 0.19255371 1.44503906 0.38510742 2.18945312 0.58349609 C11.54642511 3.14064118 20.3338959 6.62204585 29 11 C30.39992188 11.69222656 30.39992188 11.69222656 31.828125 12.3984375 C43.13603643 18.24624312 52.7803361 26.29932381 62 35 C62.73734375 35.67289063 63.4746875 36.34578125 64.234375 37.0390625 C84.50797526 56.23427976 96.79740751 82.89175489 102 110 C102.22429687 111.06992187 102.44859375 112.13984375 102.6796875 113.2421875 C109.2989023 148.87713843 98.35337192 186.14479835 79 216 C78.01816459 217.34676539 77.02682993 218.68721743 76 220 C72.6830484 218.89434947 72.01555129 218.11032054 69.85437012 215.48547363 C65.90097116 210.83035209 61.66115612 206.53471523 57.33007812 202.23242188 C56.49173935 201.39554337 55.65340057 200.55866486 54.78965759 199.69642639 C52.98148901 197.89204311 51.17216677 196.0888153 49.36180115 194.28663635 C46.49209764 191.42977282 43.62552426 188.56980345 40.7598877 185.7088623 C34.67623433 179.63625514 28.58834765 173.56790016 22.5 167.5 C15.92446041 160.94654413 9.34968187 154.3923351 2.77979422 147.83321238 C-0.51796057 144.54119652 -3.8196027 141.25311021 -7.12194824 137.96569824 C-8.85814041 136.23314071 -10.59419115 134.50044144 -12.33007812 132.76757812 C-13.10742813 131.99539444 -13.88477814 131.22321075 -14.6856842 130.42762756 C-18.73946298 126.37423943 -22.59952698 122.22641738 -26.34145355 117.88439178 C-28.95717885 114.91248149 -31.7472119 112.12930055 -34.55859375 109.34375 C-35.1726004 108.73120361 -35.78660706 108.11865723 -36.41921997 107.48754883 C-37.73792152 106.17261989 -39.05777572 104.85884605 -40.37869263 103.54614258 C-42.47551216 101.46222167 -44.56907366 99.37507491 -46.66186523 97.28710938 C-51.10509482 92.85524306 -55.55224762 88.4273267 -60 84 C-65.15878164 78.86490934 -70.31589252 73.72816349 -75.46878052 68.5871582 C-77.52001449 66.54235237 -79.57426291 64.50060936 -81.62866211 62.45898438 C-87.14292363 56.96616352 -92.61957179 51.50382638 -97.66091919 45.56616211 C-99.54357598 43.36424442 -101.5658485 41.32149346 -103.62109375 39.28125 C-104.41064453 38.49492188 -105.20019531 37.70859375 -106.01367188 36.8984375 C-106.81353516 36.10695313 -107.61339844 35.31546875 -108.4375 34.5 C-109.26443359 33.67757812 -110.09136719 32.85515625 -110.94335938 32.0078125 C-112.95994959 30.00287887 -114.97885236 28.00033747 -117 26 C-115.05257427 21.49750429 -111.89446317 19.65445258 -107.8125 17.1875 C-107.09779541 16.75026611 -106.38309082 16.31303223 -105.64672852 15.86254883 C-73.95109196 -3.17019053 -35.92723384 -9.72176464 0 0 Z " fill="#F9F9F8" transform="translate(779,577)"/>
<path d="M0 0 C3.01286852 1.76997892 5.41228811 3.82457623 7 7 C7.56366828 12.52394914 6.30056733 15.83347445 3.953125 20.65234375 C2.6727404 23.80607795 2.38414226 26.77689538 2.17578125 30.15234375 C2 32 2 32 1 34 C2.0725 34.20625 3.145 34.4125 4.25 34.625 C8.20299131 35.57989666 11.4803822 37.21453717 15.0625 39.125 C19.74870199 41.57204084 22.76601975 42.71372458 28 42 C29.65750324 39.09118009 30.15760302 37.07454368 30.1875 33.75 C30.67108433 28.8899775 32.45352794 25.96422023 35.8359375 22.484375 C39.10275338 20.24359876 41.73720703 20.08042602 45.625 20.39453125 C49.48159555 21.37770939 51.30418005 23.09680928 54 26 C55.74183311 29.48366622 55.43824475 33.19113755 55 37 C52.64165688 42.22936954 48.94826447 44.66571917 44.21875 47.60546875 C42.05175458 48.96747115 40.02656016 50.43862752 38 52 C38.61276796 55.04363864 39.59392211 57.1747935 41.3125 59.75 C43.51003998 63.13813801 45.3259643 66.5694708 47.0078125 70.23828125 C48.58791598 73.04389807 49.94510464 74.6878774 53.0859375 75.6171875 C58.29827919 76.20424305 60.51472097 75.87517886 65 73 C71.56693369 72.16610366 71.56693369 72.16610366 74.8125 74.0546875 C76.99128992 75.82495431 78.7363437 77.47268739 80 80 C80.44080589 84.3148115 80.47056025 87.94684134 78.6875 91.9375 C76.62521745 94.45806757 74.96895962 95.85876182 71.6953125 96.3359375 C65.77991822 96.42583711 63.60283475 95.81698491 59 92 C55.36973583 91.0588204 51.7151106 90.49448057 48 90 C47.23171677 103.90081316 47.23171677 103.90081316 54.25 115.5 C56.60859399 118.86941998 56.51288911 120.97015702 56 125 C54.875 127.4375 54.875 127.4375 53 129 C47.54934293 130.01407573 43.60150866 127.61608614 39 125 C39 124.34 39 123.68 39 123 C30.06471024 129.83496007 30.06471024 129.83496007 25.4375 139.5 C26.3187741 144.98348328 28.88957205 148.22004812 33.125 151.625 C36.33373089 154.27569073 37.66507661 156.06096986 38.37109375 160.1484375 C38.49454546 164.28770068 38.39741725 167.12211901 35.75 170.4375 C32.36839813 173.5885381 30.67539309 174.78147047 26.125 175.375 C20.8322767 174.7398732 17.97916204 172.12980235 14.5625 168.1875 C12.61190071 164.20827746 12.99380804 162.256966 14 158 C14.28875 157.175 14.5775 156.35 14.875 155.5 C15.04132893 152.17342136 13.82809374 150.17917196 11.87207031 147.55029297 C7.94938546 144.30185155 2.8089702 144.84433967 -2.0625 144.8125 C-3.15111328 144.76287109 -4.23972656 144.71324219 -5.36132812 144.66210938 C-11.25982562 144.28004703 -11.25982562 144.28004703 -16.32592773 146.83496094 C-19.17075891 150.5141155 -18.0792436 154.36894962 -17.75 158.80859375 C-18.05910884 162.75456124 -19.25692053 164.22162355 -22 167 C-25.10048928 168.55024464 -27.57894218 168.28992015 -31 168 C-33.75329021 166.20437595 -35.52627461 164.94745078 -37 162 C-37.39013341 156.44059894 -36.72982628 152.43817841 -34.65625 147.2734375 C-33.80051182 144.30891595 -33.63235159 142.07306118 -34 139 C-35.77250426 136.53258481 -35.77250426 136.53258481 -38.25 134.5625 C-39.03890625 133.86253906 -39.8278125 133.16257812 -40.640625 132.44140625 C-42.83228327 130.78835178 -42.83228327 130.78835178 -45.046875 131.1484375 C-51.56481528 133.99025946 -55.16590787 136.53691164 -58.01953125 143.12890625 C-59.67669397 146.29138013 -61.83495988 147.51056936 -65 149 C-69.26568014 149.60938288 -71.38918695 149.30540652 -75.25 147.375 C-78.79266222 144.31542808 -80.57194887 141.68985214 -81.31640625 137.01171875 C-81.53038234 133.3465154 -81.14851975 131.23558306 -79.1875 128.125 C-75.61680131 124.65632127 -73.54756913 123.81521966 -68.6875 123.6875 C-63.12904363 123.30415818 -60.79551409 122.00067701 -57 118 C-57.59883592 114.65124648 -58.29165019 111.32722023 -59 108 C-59.25652344 106.71351563 -59.51304687 105.42703125 -59.77734375 104.1015625 C-60.07834976 102.75467437 -60.38172939 101.40831447 -60.6875 100.0625 C-60.95949219 98.79535156 -61.23148437 97.52820313 -61.51171875 96.22265625 C-62.75882318 92.68958651 -62.75882318 92.68958651 -66.453125 91.08203125 C-71.3720474 89.58143488 -74.33396161 89.1669808 -79 91.5 C-82.4349014 93.2174507 -84.21240687 93.55235733 -88 93 C-90.5647293 91.49987532 -92.89183465 90.10816535 -95 88 C-95.51249688 82.52216448 -95.96124183 77.63411112 -93.125 72.8125 C-89.51754481 69.73555293 -86.89408765 69.67730624 -82.28515625 69.69921875 C-80 70 -80 70 -77.1875 72 C-72.95431697 74.65611485 -69.61101388 74.52404121 -64.70703125 74.62890625 C-61.84628792 74.26675868 -61.84628792 74.26675868 -60.37109375 71.87109375 C-59.69240234 70.44990234 -59.69240234 70.44990234 -59 69 C-58.07960938 67.43765625 -58.07960938 67.43765625 -57.140625 65.84375 C-56.51671875 64.7403125 -55.8928125 63.636875 -55.25 62.5 C-54.61578125 61.3965625 -53.9815625 60.293125 -53.328125 59.15625 C-51.83243508 56.15295971 -51.83243508 56.15295971 -51.9609375 53.28125 C-53.42189067 50.07374379 -55.21320973 49.46056454 -58.375 48 C-62.76696662 45.96045877 -64.95129648 44.45814221 -67 40 C-67.53635899 35.17276908 -67.52017901 33.02109214 -65.3125 28.6875 C-61.74159362 24.53752772 -59.5392249 23.19545713 -54.0625 22.5 C-50.5750441 22.69666105 -48.016718 23.49996346 -45.38671875 25.95703125 C-42.16241138 30.70720802 -40.66449413 36.5572515 -39 42 C-33.89226766 41.30611938 -29.79554117 38.96146099 -25.34765625 36.52734375 C-21.20291534 34.35021611 -17.60683792 33.6003899 -13 33 C-11.0403099 29.08061981 -11.6372708 24.28139385 -12 20 C-12.65226824 18.01804808 -12.65226824 18.01804808 -13.5625 16.3125 C-15.35692677 12.17751657 -15.57876436 9.23960318 -14 5 C-9.98074552 0.29453134 -6.00871865 -1.52905763 0 0 Z " fill="#272B2A" transform="translate(466,403)"/>
<path d="M0 0 C4.72403852 1.9512333 7.72471109 5.44942218 10 10 C10.84904676 18.09281282 10.89728976 24.55053043 5.78515625 31.125 C4.07347947 32.92282244 2.31629571 34.4570263 0.375 36 C-4.25980933 39.68934933 -6.49906303 44.63348808 -7.36328125 50.44140625 C-6.85138634 54.0466876 -5.14921672 55.67394634 -2.75 58.375 C0.73963068 62.43616074 3.56806755 66.2418713 6 71 C7.216875 70.835 8.43375 70.67 9.6875 70.5 C11.45738654 70.32356271 13.228365 70.15791733 15 70 C15.96679688 69.896875 16.93359375 69.79375 17.9296875 69.6875 C28.5478042 69.05200174 38.00005492 72.68696957 46.5703125 78.84765625 C49.32172137 81.38184863 50.7899604 83.07582575 51.625 86.75 C50.85825719 89.5102741 50.46226221 90.49087155 48 92 C45.0000786 92.68748199 43.87698592 92.842806 41 92 C38.0955609 90.10305139 35.42434211 88.05167196 32.74609375 85.84765625 C29.64464102 83.76090356 27.72044509 83.15562646 24 83 C21.27520222 83.71192842 21.27520222 83.71192842 18.75 84.9375 C14.13559322 87 14.13559322 87 12 87 C12.33 87.99 12.66 88.98 13 90 C13.43469554 96.16661116 12.98010929 101.7524977 11.4453125 107.71875 C10.65154596 111.78506279 10.84502607 115.87597165 11 120 C15.00077865 122.44492029 18.20282274 123.21772664 22.875 123.75 C29.27148891 124.71145982 32.92906317 127.01080674 37 132 C40.45340118 137.61177691 41.03840107 143.55609058 40 150 C38.34005584 153.44284714 35.9754889 155.41997957 32.6875 157.375 C25.2149828 159.1127947 20.38012268 157.94632588 14 154 C9.50219318 151.17579572 7.71934644 147.91277149 5.3359375 143.328125 C3.31019028 139.79787546 0.7421052 136.99718475 -2 134 C-3.59328125 134.79664063 -3.59328125 134.79664063 -5.21875 135.609375 C-12.14583333 139.07291667 -19.07291667 142.53645833 -26 146 C-25.8462793 146.59361328 -25.69255859 147.18722656 -25.53417969 147.79882812 C-24.10581433 153.51751209 -23.77986764 159.07410797 -23.75 164.9375 C-23.74097656 165.68314209 -23.73195313 166.42878418 -23.72265625 167.19702148 C-23.74343047 170.99567419 -23.84415201 172.76622802 -26 176 C-29.375 176.5 -29.375 176.5 -33 176 C-35.92636978 173.22956466 -36.92271111 171.60925925 -37.43359375 167.58203125 C-37.43488281 166.33808594 -37.43617188 165.09414063 -37.4375 163.8125 C-37.6957912 157.1181807 -38.19930345 151.04463438 -43 146 C-46.22749823 144.29108107 -49.35495059 143.10706541 -52.84375 142.03515625 C-55.90953159 141.02967095 -58.25198218 139.65170843 -61 138 C-64.48780846 138.95122049 -66.67298398 141.31252463 -69 144 C-70.08219534 146.98107845 -70.08219534 146.98107845 -70.8125 150.25 C-73.09926491 158.17804487 -76.70570628 163.39393244 -83.9375 167.5 C-88.19328885 169.34390078 -91.39118177 169.59468622 -96 169 C-100.28902288 166.93796977 -103.10626789 164.41099453 -105.3046875 160.125 C-107.11858655 154.58139842 -106.93041454 149.01589817 -104.5 143.75 C-99.94086935 138.73495628 -95.67975878 134.49501561 -89.3125 131.9375 C-84.76215424 130.09212581 -82.57792044 128.21060338 -80 124 C-80.4086624 120.61472906 -81.44348642 117.48293157 -82.5 114.25 C-83.96834299 109.47967593 -84.59927823 104.9689499 -85 100 C-95.4294289 99.26994331 -95.4294289 99.26994331 -105.4375 101.5 C-109.80190189 103.3376429 -113.33364752 103.903165 -118 103 C-121.47186666 101.33667225 -124.05276023 99.19434579 -126.4375 96.1875 C-127.7659336 91.02136933 -127.69953848 87.37316813 -125.3125 82.6875 C-122.28739262 79.17183467 -120.34925393 77.27774431 -115.62109375 76.71875 C-109.58667732 76.51273863 -104.46408289 77.51126127 -98.71875 79.26953125 C-95.15736454 80.22639775 -91.66639587 80.5424182 -87.99609375 80.7890625 C-86 81 -86 81 -84 82 C-83.92523438 81.34128906 -83.85046875 80.68257813 -83.7734375 80.00390625 C-82.71762158 75.90328784 -80.73731952 72.58392499 -78.625 68.9375 C-78.22539062 68.23044922 -77.82578125 67.52339844 -77.4140625 66.79492188 C-75.79296612 63.95533694 -74.19205625 61.25341339 -72.21484375 58.64453125 C-70.78656001 57.03889085 -70.78656001 57.03889085 -70.9375 54.75 C-72.82839611 49.85591596 -75.49111174 45.34483465 -80.22265625 42.80859375 C-81.77203883 42.19039269 -83.32543729 41.58215538 -84.8828125 40.984375 C-89.25059127 38.95359963 -91.303766 35.49192999 -93.3125 31.1875 C-94.53796093 25.5058175 -94.93806373 20.94828621 -92.375 15.625 C-89.63435042 12.59586099 -87.89949563 11.25078162 -84 10 C-77.93415035 9.73434235 -72.74904766 11.20530642 -68 15 C-62.79609794 20.15593983 -60.04074102 24.55216723 -59.0625 31.875 C-58.36231259 36.48503394 -57.2135204 39.87480289 -55 44 C-54.94618569 45.66579765 -54.93882811 47.33445631 -55 49 C-54.11699219 48.80664062 -53.23398437 48.61328125 -52.32421875 48.4140625 C-46.54095313 47.15926158 -40.78063703 45.94192646 -34.9375 45 C-31.07274335 44.30661719 -28.0796148 43.58290273 -25 41 C-23.13530271 37.98282466 -22.79354203 35.8814098 -22.98046875 32.3671875 C-23.01333984 31.48297119 -23.04621094 30.59875488 -23.08007812 29.68774414 C-23.11552734 28.75953857 -23.15097656 27.83133301 -23.1875 26.875 C-23.34576527 17.57454129 -22.72499772 11.14406625 -16.23828125 4.08203125 C-11.25455448 -0.33559268 -6.48951858 -1.12081495 0 0 Z " fill="#282B2A" transform="translate(377,220)"/>
<path d="M0 0 C5.82714127 3.51686215 10.40846935 8.95313237 12.43359375 15.46875 C13.50101448 24.04182383 12.72230492 31.45518339 7.43359375 38.46875 C4.95329271 40.83117534 2.38263206 42.73333183 -0.56640625 44.46875 C-1.15808594 44.84128906 -1.74976563 45.21382812 -2.359375 45.59765625 C-8.0338257 47.8373067 -16.36028662 47.56855214 -22.1171875 45.59375 C-28.31939134 41.93264326 -33.34294253 36.34035961 -35.56640625 29.46875 C-36.64637477 20.79489757 -35.72208955 13.63735751 -30.56640625 6.46875 C-22.15233897 -2.96459859 -11.41296553 -4.98538276 0 0 Z " fill="#272A2A" transform="translate(237.56640625,498.53125)"/>
<path d="M0 0 C1.13288956 -0.00524185 2.26577911 -0.0104837 3.43299866 -0.0158844 C5.82601096 -0.02230053 8.21905482 -0.02097293 10.61206055 -0.01245117 C14.26863921 -0.00394467 17.92365386 -0.03270521 21.58007812 -0.06445312 C23.90755162 -0.06606536 26.23502787 -0.06548719 28.5625 -0.0625 C29.65328354 -0.07373398 30.74406708 -0.08496796 31.86790466 -0.09654236 C37.9942604 -0.040445 41.72749966 0.26208776 46.34765625 4.43359375 C48.83151684 8.15938464 48.72807745 10.02070777 48.34765625 14.43359375 C46.52092401 18.66392105 44.40393859 20.36972152 40.34765625 22.43359375 C37.76794434 22.8212738 37.76794434 22.8212738 34.99414062 22.83764648 C33.94955688 22.85033066 32.90497314 22.86301483 31.82873535 22.87608337 C30.71091675 22.87314774 29.59309814 22.8702121 28.44140625 22.8671875 C26.70522034 22.87505028 26.70522034 22.87505028 24.93395996 22.8830719 C22.48967287 22.88948808 20.04535488 22.88816037 17.60107422 22.87963867 C13.86109509 22.87112434 10.12264097 22.89990547 6.3828125 22.93164062 C4.00651087 22.93325262 1.63020654 22.93267514 -0.74609375 22.9296875 C-2.42282166 22.94653847 -2.42282166 22.94653847 -4.13342285 22.96372986 C-11.87297464 22.89422432 -11.87297464 22.89422432 -15.77148438 20.59008789 C-18.34853838 17.63537372 -19.59744127 16.02654058 -19.96484375 12.05859375 C-19.55679484 7.32522634 -18.36702459 4.90132146 -14.76733398 1.82006836 C-9.94223847 -0.32756997 -5.22396062 -0.01403326 0 0 Z " fill="#F8F8F7" transform="translate(328.65234375,780.56640625)"/>
<path d="M0 0 C0.94147888 -0.02251831 1.88295776 -0.04503662 2.85296631 -0.0682373 C7.16556837 -0.13920493 11.47799691 -0.19676467 15.79101562 -0.23535156 C18.06466735 -0.26196296 20.33819825 -0.30289254 22.61132812 -0.35839844 C25.89014455 -0.43753242 29.16665766 -0.47066043 32.44628906 -0.49414062 C33.96533844 -0.54362854 33.96533844 -0.54362854 35.51507568 -0.59411621 C42.38376909 -0.57468568 42.38376909 -0.57468568 45.45788574 1.7043457 C48.26385781 4.81722419 49.37013139 6.63312102 50.02441406 10.84960938 C49.27040178 15.37368307 48.0559311 17.91884886 44.49487305 20.8359375 C40.06208094 22.86553756 35.94499009 22.69234913 31.12207031 22.69335938 C30.12235703 22.7009729 29.12264374 22.70858643 28.09263611 22.71643066 C25.98211154 22.7272176 23.87153365 22.7300905 21.76098633 22.72558594 C18.5386422 22.72461367 15.3186802 22.76625144 12.09667969 22.81054688 C10.04264818 22.81575423 7.98860842 22.81844206 5.93457031 22.81835938 C4.49525902 22.84295227 4.49525902 22.84295227 3.02687073 22.86804199 C-1.45134133 22.82196354 -4.56580424 22.69289436 -8.13012695 19.8125 C-11.41237968 16.28498515 -11.93285206 14.18750962 -11.89746094 9.33007812 C-11.2622678 5.60867485 -9.19829578 3.82148088 -6.53808594 1.22460938 C-4.1691132 0.04012301 -2.64434469 0.06017894 0 0 Z " fill="#F7F6F5" transform="translate(448.5380859375,835.775390625)"/>
<path d="M0 0 C4.44496055 2.49696987 7.0635749 5.44072469 8.6875 10.3125 C9.17738853 15.87795491 9.45564541 20.71930952 7 25.8125 C3.18179941 29.94028443 0.01948614 32.93570028 -5.73046875 33.5859375 C-12.57559589 33.83695768 -17.19261674 33.04688617 -22.3125 28.3125 C-26.4765777 23.77094217 -26.94193217 18.90383057 -26.6953125 12.89453125 C-25.74976413 6.516904 -21.19892163 2.95132462 -16.3125 -0.6875 C-10.73836747 -2.54554418 -5.36974432 -2.49381384 0 0 Z " fill="#262A29" transform="translate(231.3125,408.6875)"/>
<path d="M0 0 C0.80277878 -0.00902847 1.60555756 -0.01805695 2.43266296 -0.02735901 C4.13142163 -0.04186263 5.83023617 -0.05074853 7.52905273 -0.05444336 C10.11734279 -0.06631736 12.70323039 -0.11547776 15.29101562 -0.16601562 C16.94399882 -0.175483 18.59699662 -0.18271653 20.25 -0.1875 C21.01895096 -0.20703232 21.78790192 -0.22656464 22.58015442 -0.24668884 C26.63188211 -0.21298471 29.09704678 0.19095919 32.29760742 2.78100586 C35.79662687 6.36793188 35.79662687 6.36793188 35.87890625 9.359375 C35.78996094 10.50986328 35.78996094 10.50986328 35.69921875 11.68359375 C35.65539062 12.44285156 35.6115625 13.20210937 35.56640625 13.984375 C34.45146215 17.5698005 32.75454011 19.03711682 29.82421875 21.37109375 C26.87386674 22.10546381 24.00995984 22.09638278 20.98046875 22.0703125 C19.71039978 22.08104546 19.71039978 22.08104546 18.41467285 22.09199524 C16.62948659 22.0997588 14.8442051 22.09478848 13.05908203 22.07788086 C10.3318336 22.05864745 7.6096787 22.09805686 4.8828125 22.14257812 C3.14452823 22.14286849 1.40623929 22.13972828 -0.33203125 22.1328125 C-1.14361694 22.14809494 -1.95520264 22.16337738 -2.79138184 22.17912292 C-8.28359697 22.06640847 -8.28359697 22.06640847 -10.79736328 20.10733032 C-14.03776336 16.39123197 -15.26354613 13.28592706 -15.17578125 8.37109375 C-11.37465471 1.17610423 -7.72506744 0.05345286 0 0 Z " fill="#F9F8F7" transform="translate(471.17578125,749.62890625)"/>
<path d="M0 0 C4.15697023 1.96319672 6.93380106 4.83384491 10 8.1875 C11.62880898 12.76852525 11.63487984 17.20313007 11 22 C8.54432448 27.00230198 5.0029693 30.49851535 0 33 C-6.02146639 33.73183976 -11.44212168 34.02271834 -16.5625 30.4375 C-20.60975929 26.83619651 -22.55989321 23.186596 -23.30859375 17.765625 C-23.60883827 12.343027 -22.63228991 9.22130989 -19 5 C-12.91535056 -0.36028641 -8.03257204 -1.06564785 0 0 Z " fill="#272B2A" transform="translate(311,459)"/>
<path d="M0 0 C1.50438931 -0.01654423 3.0087005 -0.04381485 4.51269531 -0.08203125 C6.68685471 -0.13696442 8.85917452 -0.15869604 11.03393555 -0.17333984 C12.33564697 -0.19315918 13.6373584 -0.21297852 14.97851562 -0.23339844 C19.31088852 0.49439879 20.73664627 1.97902772 23.4519043 5.35009766 C24.57720682 8.04148939 24.7416352 10.45278866 24.4519043 13.35009766 C22.23485247 17.86947253 19.91623511 20.13616695 15.4519043 22.35009766 C10.8466633 23.01313647 6.22508584 22.90547583 1.5769043 22.91259766 C0.32264648 22.94933594 -0.93161133 22.98607422 -2.22387695 23.02392578 C-12.53958052 23.07304818 -12.53958052 23.07304818 -16.8527832 19.59619141 C-19.88070241 16.37407694 -20.7110379 13.91162641 -20.89575195 9.53759766 C-20.28294335 5.68172327 -18.36955601 3.9747119 -15.5480957 1.35009766 C-11.06005096 -0.89392472 -4.98914948 0.04021316 0 0 Z " fill="#F6F6F5" transform="translate(251.548095703125,709.64990234375)"/>
<path d="M0 0 C2.8515625 1.35546875 2.8515625 1.35546875 5.625 3.1875 C6.54539062 3.77917969 7.46578125 4.37085938 8.4140625 4.98046875 C12.23992641 7.96834132 14.60817549 10.61555341 15.9375 15.3125 C16.03439264 21.02916576 14.25241953 25.05659039 11.1875 29.8125 C8.07469183 32.92530817 5.36350295 34.93210764 0.82421875 35.0625 C-5.30142027 34.5683308 -10.03613675 33.1230954 -14.3125 28.5 C-17.77506763 23.37027018 -17.58721474 17.98959038 -17 12 C-15.45845634 7.0039127 -12.07443517 3.86765246 -7.9765625 0.84765625 C-5.13431833 -0.37125083 -3.06907134 -0.32225249 0 0 Z " fill="#272B2A" transform="translate(761,413)"/>
<path d="M0 0 C4.79179088 2.57469361 9.07799238 5.31937668 12 10 C12.97797427 17.09031348 10.78697349 22.03551675 7 28 C4.8125 30.6875 4.8125 30.6875 2 32 C-4.31649119 32.50269653 -9.16129253 30.85629154 -14.40625 27.44921875 C-16.91730228 25.16588445 -17.84744387 23.04305818 -18.3359375 19.703125 C-18.4331508 13.59812975 -17.60734991 9.02245181 -14 4 C-9.36514512 -0.30379382 -6.18400132 -1.90993638 0 0 Z " fill="#272A29" transform="translate(671,464)"/>
<path d="M0 0 C4.03559688 1.68964437 7.05858102 3.97032299 10 7.1875 C11.52804282 11.48512042 11.66399748 15.49636495 11 20 C8.54447855 24.65702344 6.04996079 28.31667974 1 30 C-3.82630713 30.6861309 -8.18471726 31.09895088 -12.46484375 28.5078125 C-18.75747398 23.02309682 -18.75747398 23.02309682 -19.30859375 18.42578125 C-19.69949784 8.98485511 -19.69949784 8.98485511 -16.25 4.875 C-11.51646784 0.06974765 -6.56623584 -1.05490346 0 0 Z " fill="#272A29" transform="translate(320,561)"/>
<path d="M0 0 C1.28293945 -0.04350586 1.28293945 -0.04350586 2.59179688 -0.08789062 C6.81139332 -0.13038075 9.07274817 -0.07024023 12.73046875 2.20703125 C16.01125075 5.736655 16.02514731 8.39048211 15.97265625 13.0546875 C15.54683373 16.42626856 14.15272826 18.05270743 11.6875 20.3125 C6.10159697 24.02322991 -1.92696273 23.01843879 -8.3125 22.3125 C-11.75085015 21.00314327 -13.63106609 19.60395558 -15.3125 16.3125 C-16.42140428 11.31046413 -16.12052345 7.63227164 -13.4375 3.25 C-9.29020254 -0.53135945 -5.37319465 0.0599241 0 0 Z " fill="#F7F6F5" transform="translate(392.3125,693.6875)"/>
<path d="M0 0 C5.44923017 4.54438183 10.50183857 9.36465137 15.50561523 14.39208984 C16.32593735 15.21226593 17.14625946 16.03244202 17.99143982 16.87747192 C20.6828703 19.56959507 23.37074847 22.26523525 26.05859375 24.9609375 C27.93167153 26.83588176 29.80494556 28.71062785 31.67848206 30.58511353 C36.09309132 35.00281957 40.50514725 39.42306643 44.91627127 43.84425223 C49.94215801 48.88135166 54.97091548 53.91558098 59.99990547 58.94958186 C70.33644733 69.29655065 80.66941416 79.64708466 91 90 C90.34 90.66 89.68 91.32 89 92 C87.66070495 90.71451591 86.32871357 89.42141845 85 88.125 C84.2575 87.40570312 83.515 86.68640625 82.75 85.9453125 C81 84 81 84 81 82 C80.41766098 81.75536011 79.83532196 81.51072021 79.2353363 81.25866699 C76.61034292 79.78059297 75.18347499 78.1590301 73.23461914 75.86132812 C67.27398113 69.07673139 60.86464675 62.76836528 54.45510674 56.4105072 C52.20424863 54.17723176 49.9571179 51.94026541 47.71095276 49.70227051 C41.33201913 43.34764367 34.9472436 36.99890903 28.55834961 30.65429688 C24.63401001 26.75664937 20.71448263 22.85421689 16.79792976 18.94874573 C15.30659608 17.46363241 13.81336614 15.98042083 12.3182354 14.49913025 C10.24076194 12.44074971 8.16940783 10.37639621 6.09936523 8.31054688 C5.47765442 7.69759766 4.8559436 7.08464844 4.21539307 6.453125 C0 2.2279 0 2.2279 0 0 Z " fill="#111312" transform="translate(757,700)"/>
<path d="M0 0 C4.07637122 1.62275148 6.82612042 4.53715823 9.859375 7.59375 C10.40861633 8.14107788 10.95785767 8.68840576 11.52374268 9.25231934 C12.67925859 10.4064778 13.83226685 11.56315167 14.98291016 12.72216797 C16.750735 14.50073946 18.5290213 16.26834763 20.30859375 18.03515625 C21.43032971 19.15821308 22.55144551 20.28188976 23.671875 21.40625 C24.20617126 21.9364978 24.74046753 22.46674561 25.29095459 23.01306152 C29 26.77006146 29 26.77006146 29 29 C29.66 29 30.32 29 31 29 C32.41029358 30.43029785 32.41029358 30.43029785 34.06274414 32.43164062 C38.14478673 37.22879277 42.52958939 41.65624029 46.99609375 46.09375 C48.24641136 47.34194519 48.24641136 47.34194519 49.52198792 48.61535645 C52.15813262 51.24594935 54.79775105 53.87302441 57.4375 56.5 C59.23655979 58.29403855 61.0353902 60.08830715 62.83398438 61.8828125 C67.22000812 66.25787125 71.60888142 70.63005512 76 75 C75.67 75.66 75.34 76.32 75 77 C67.04073699 69.08699226 59.08681997 61.16865444 51.13976288 53.24338722 C47.44981494 49.5638951 43.75802193 45.88629402 40.06201172 42.21289062 C36.49802007 38.67056331 32.93887684 35.12343191 29.38310242 31.5728569 C28.02281244 30.21627424 26.6607579 28.86145867 25.29695129 27.50841141 C23.39319385 25.61908364 21.49569803 23.72367955 19.59960938 21.82666016 C19.02921432 21.26345566 18.45881927 20.70025116 17.87113953 20.11997986 C14 16.22810432 14 16.22810432 14 14 C13.34 14 12.68 14 12 14 C10.44921875 12.4609375 10.44921875 12.4609375 8.6875 10.375 C8.07132813 9.65054688 7.45515625 8.92609375 6.8203125 8.1796875 C5.91925781 7.10074219 5.91925781 7.10074219 5 6 C4.48179687 5.38382813 3.96359375 4.76765625 3.4296875 4.1328125 C2.28041165 2.76024877 1.1392439 1.3809017 0 0 Z " fill="#121413" transform="translate(635,627)"/>
<path d="M0 0 C4.2323823 1.26066022 7.60719374 2.82092159 11.2734375 5.2734375 C12.25546143 5.92755615 13.23748535 6.5816748 14.24926758 7.25561523 C15.79650513 8.30471069 15.79650513 8.30471069 17.375 9.375 C18.44194092 10.09308838 19.50888184 10.81117676 20.6081543 11.55102539 C37.7331096 23.15479908 53.63077759 36.02758428 69.28710938 49.52490234 C72.18676532 52.02201198 75.09351658 54.51084373 78 57 C77.01 57.99 77.01 57.99 76 59 C75.55011719 58.52691406 75.10023438 58.05382812 74.63671875 57.56640625 C70.00727964 52.80708308 65.13991686 48.55262173 59.9609375 44.40234375 C57.43273323 42.35109622 54.96499876 40.24692795 52.5090332 38.11035156 C36.8873082 24.58786411 19.42602333 13.13254718 1.87890625 2.27734375 C1.25886719 1.85582031 0.63882813 1.43429688 0 1 C0 0.67 0 0.34 0 0 Z " fill="#141615" transform="translate(738,138)"/>
<path d="M0 0 C2.9576486 2.81401004 5.34273527 5.72477411 7.6875 9.0625 C23.50888646 31.0431347 43.46039071 48.65727215 67 62 C66.01 62.495 66.01 62.495 65 63 C62.81757595 62.00126357 60.81707316 60.95435062 58.75 59.75 C58.12883301 59.39010986 57.50766602 59.03021973 56.86767578 58.65942383 C45.08915688 51.63653016 34.88563184 42.43127829 25 33 C24.13632812 32.18917969 23.27265625 31.37835937 22.3828125 30.54296875 C13.66756055 22.13994545 5.97331246 12.55285201 0 2 C0 1.34 0 0.68 0 0 Z " fill="#161716" transform="translate(597,803)"/>
<path d="M0 0 C6.77715965 5.5583674 12.88350353 11.75631661 19.05859375 17.9609375 C20.21422229 19.11843426 21.37007414 20.27570811 22.52613831 21.43276978 C25.54827738 24.45870218 28.56739953 27.48762697 31.58587646 30.51721191 C34.67455447 33.61617295 37.76611335 36.71225713 40.85742188 39.80859375 C46.90775098 45.86960394 52.95489193 51.93378247 59 58 C58.34 58.66 57.68 59.32 57 60 C56.7525 59.38125 56.505 58.7625 56.25 58.125 C55.19037241 55.88261155 55.19037241 55.88261155 53.125 55.0625 C50.23894448 53.61947224 48.95548005 51.54804976 47 49 C45.34968906 47.31425843 43.6814716 45.65433946 42 44 C40.5251622 42.53669032 39.05085423 41.07284657 37.5769043 39.60864258 C36.73641037 38.77460403 35.89591644 37.94056549 35.029953 37.08125305 C31.73745455 33.81189009 28.44860096 30.53887669 25.16098309 27.26460743 C22.66649065 24.78061268 20.17013213 22.29855096 17.66967773 19.82055664 C14.77819721 16.95486906 11.89476061 14.08120857 9.01171875 11.20703125 C8.10870529 10.31434036 7.20569183 9.42164948 6.27531433 8.50190735 C5.45058121 7.67732529 4.62584808 6.85274323 3.77612305 6.00317383 C3.04507858 5.27657059 2.31403412 4.54996735 1.56083679 3.80134583 C0 2 0 2 0 0 Z " fill="#131514" transform="translate(686,628)"/>
<path d="M0 0 C0.556875 0.268125 1.11375 0.53625 1.6875 0.8125 C0.800625 1.3075 -0.08625 1.8025 -1 2.3125 C-5.00253728 5.03156333 -7.51571804 8.32054509 -9.3125 12.8125 C-10.06968679 17.50562941 -9.7780748 21.44316236 -8.25 25.9375 C-6.35241815 28.15645743 -6.35241815 28.15645743 -2.9375 28.1875 C0.53001912 28.00512575 0.53001912 28.00512575 2.9296875 26.875 C6.95472009 26.78378113 8.5495004 28.78746047 11.41015625 31.45703125 C12.07917969 32.11058594 12.74820313 32.76414063 13.4375 33.4375 C14.12199219 34.06785156 14.80648437 34.69820312 15.51171875 35.34765625 C19.11927693 38.78376612 21.01785571 40.72909277 21.6875 45.8125 C21.16671875 45.11769531 20.6459375 44.42289063 20.109375 43.70703125 C17.28563981 40.33221225 14.19554586 37.44656235 10.9375 34.5 C10.33550781 33.95021484 9.73351562 33.40042969 9.11328125 32.83398438 C7.64099133 31.49022771 6.16465594 30.15090574 4.6875 28.8125 C4.0996875 29.13476562 3.511875 29.45703125 2.90625 29.7890625 C-0.32898355 31.28137093 -2.79669208 31.18919371 -6.3125 30.8125 C-10.0784531 28.16615458 -11.29335138 25.22881068 -12.3125 20.8125 C-13.09111379 13.91620642 -11.53841965 10.23922742 -7.3125 4.8125 C-3.07696281 -0.24948347 -3.07696281 -0.24948347 0 0 Z " fill="#171918" transform="translate(528.3125,201.1875)"/>
<path d="M0 0 C4.916219 4.05170652 9.42059927 8.32885309 13.75 13 C14.35706787 13.65371582 14.96413574 14.30743164 15.58959961 14.98095703 C20.90157038 20.77063556 25.78466351 26.8152216 30.52587891 33.07568359 C32.19459423 35.25402314 33.89847733 37.40231878 35.60546875 39.55078125 C36.82062445 41.09610892 38.03547271 42.64167839 39.25 44.1875 C39.83595947 44.91888184 40.42191895 45.65026367 41.02563477 46.40380859 C41.55858154 47.08910645 42.09152832 47.7744043 42.640625 48.48046875 C43.12047852 49.08785889 43.60033203 49.69524902 44.09472656 50.32104492 C44.3934668 50.8751001 44.69220703 51.42915527 45 52 C44.67 52.99 44.34 53.98 44 55 C43.63350342 54.49251221 43.26700684 53.98502441 42.8894043 53.4621582 C35.28784787 42.96510953 27.54909654 32.74232019 19 23 C18.39027344 22.29101562 17.78054688 21.58203125 17.15234375 20.8515625 C14.54528336 17.83156346 11.88607891 14.86969864 9.1640625 11.953125 C8.66326172 11.41437744 8.16246094 10.87562988 7.64648438 10.32055664 C6.64956827 9.25053549 5.6484042 8.18445281 4.64257812 7.12280273 C2.42857873 4.74681291 1.04071066 3.12213198 0 0 Z " fill="#131514" transform="translate(826,207)"/>
<path d="M0 0 C13.03990039 6.40201828 28.84650932 17.76976398 37 30 C34.00595435 28.63846931 31.75171803 27.07387579 29.3125 24.875 C28.61125 24.25109375 27.91 23.6271875 27.1875 22.984375 C25.76236093 21.69157027 24.34522578 20.38986948 22.9375 19.078125 C15.83113963 12.54654378 8.01745 7.34496667 0 2 C0 1.34 0 0.68 0 0 Z " fill="#181918" transform="translate(834,562)"/>
<path d="M0 0 C2 2.1875 2 2.1875 3 4 C2.34 4.33 1.68 4.66 1 5 C0.4225 4.360625 -0.155 3.72125 -0.75 3.0625 C-4.83672655 -0.683666 -9.53796844 -0.23905461 -14.875 -0.3125 C-15.56980469 -0.34150391 -16.26460937 -0.37050781 -16.98046875 -0.40039062 C-22.17299893 -0.46395267 -25.00426381 0.75196893 -29 4 C-30.83300909 6.10575643 -30.83300909 6.10575643 -32 8 C-31.875 5.25 -31.875 5.25 -31 2 C-22.39986937 -5.07121852 -9.68535245 -5.02203461 0 0 Z " fill="#151717" transform="translate(626,170)"/>
<path d="M0 0 C4.50338029 1.45404345 7.63458163 3.97934966 11.125 7.0625 C12.27534452 8.05809774 13.42639803 9.05287683 14.578125 10.046875 C15.15111328 10.54380859 15.72410156 11.04074219 16.31445312 11.55273438 C18.79773784 13.68496377 21.33439652 15.74913695 23.875 17.8125 C27.97218306 21.14783497 32.00767917 24.53998861 36 28 C35.34 28.66 34.68 29.32 34 30 C33.55011719 29.52691406 33.10023438 29.05382812 32.63671875 28.56640625 C26.00386644 21.74746189 18.71815055 15.8871346 11.21875 10.0546875 C10.5808252 9.55751221 9.94290039 9.06033691 9.28564453 8.5480957 C8.02931944 7.57125719 6.76995359 6.59831472 5.50732422 5.62963867 C1.10990679 2.21981359 1.10990679 2.21981359 0 0 Z " fill="#141514" transform="translate(754,186)"/>
<path d="M0 0 C0.33 0 0.66 0 1 0 C1 14.52 1 29.04 1 44 C0.67 44 0.34 44 0 44 C-0.06058594 43.07058594 -0.12117187 42.14117188 -0.18359375 41.18359375 C-0.26738281 39.94738281 -0.35117187 38.71117187 -0.4375 37.4375 C-0.55931641 35.61025391 -0.55931641 35.61025391 -0.68359375 33.74609375 C-0.93224828 30.07260249 -0.93224828 30.07260249 -1.59375 26.78125 C-2.16541675 21.46035175 -1.59318173 16.37261342 -1.0625 11.0625 C-0.96259766 9.99708984 -0.86269531 8.93167969 -0.75976562 7.83398438 C-0.51378198 5.22187236 -0.26033847 2.61071374 0 0 Z " fill="#E7E7E6" transform="translate(916,491)"/>
<path d="M0 0 C2.921875 1.42578125 2.921875 1.42578125 5.75 3.3125 C6.69359375 3.92738281 7.6371875 4.54226563 8.609375 5.17578125 C11 7 11 7 13 10 C12.01 10.495 12.01 10.495 11 11 C10.29875 10.236875 9.5975 9.47375 8.875 8.6875 C5.1397083 5.19581428 2.07390537 3.211623 -3.0625 2.6875 C-6.14208472 3.0151154 -8.29138091 3.49521162 -11 5 C-12.27489266 6.79927039 -12.27489266 6.79927039 -13 9 C-13.37125 9.9075 -13.7425 10.815 -14.125 11.75 C-14.558125 12.86375 -14.558125 12.86375 -15 14 C-15.33 14 -15.66 14 -16 14 C-16.55350702 10.23615223 -16.043976 9.06282286 -13.8125 5.875 C-9.64060358 1.32810166 -6.26731973 -0.54332076 0 0 Z " fill="#1E1F1E" transform="translate(761,413)"/>
<path d="M0 0 C0.66 0.33 1.32 0.66 2 1 C1.67725098 1.66531738 1.35450195 2.33063477 1.02197266 3.01611328 C-0.44745273 6.05060088 -1.91127042 9.08776112 -3.375 12.125 C-3.88289062 13.17171875 -4.39078125 14.2184375 -4.9140625 15.296875 C-5.40390625 16.31523438 -5.89375 17.33359375 -6.3984375 18.3828125 C-6.84880371 19.31496582 -7.29916992 20.24711914 -7.76318359 21.20751953 C-9.07287418 24.03184529 -9.07287418 24.03184529 -10.03759766 27.22607422 C-11 30 -11 30 -13 32 C-12.47141643 26.06724108 -10.67565864 21.38273157 -8.1875 16 C-7.84396484 15.23171875 -7.50042969 14.4634375 -7.14648438 13.671875 C-5.00666442 8.95062122 -2.63961703 4.46065619 0 0 Z " fill="#161716" transform="translate(592,623)"/>
<path d="M0 0 C0.66 0 1.32 0 2 0 C3.41015625 1.43359375 3.41015625 1.43359375 5.0625 3.4375 C7.78893564 6.65344184 10.61859151 9.66878196 13.625 12.625 C16.98632546 15.94059314 20.03179673 19.33339596 23 23 C23.98290968 24.01680311 24.97334787 25.02738219 26 26 C23 26 23 26 20.765625 24.09375 C19.93546875 23.2378125 19.1053125 22.381875 18.25 21.5 C17.363125 20.58734375 16.47625 19.6746875 15.5625 18.734375 C12.83408696 15.82295864 10.1932069 12.85675584 7.60546875 9.8203125 C5.99802356 7.99775908 4.31064002 6.31201624 2.5625 4.625 C0 2 0 2 0 0 Z " fill="#1B1C1B" transform="translate(181,797)"/>
<path d="M0 0 C5.80891746 4.81867247 11.13065552 10.01256408 16.4375 15.375 C17.26443359 16.20644531 18.09136719 17.03789063 18.94335938 17.89453125 C20.96455531 19.9274104 22.98336335 21.96259963 25 24 C24.34 24.66 23.68 25.32 23 26 C18.75534222 21.87145748 14.76368938 17.61932566 10.91015625 13.125 C8.00087664 9.8885008 4.8637125 6.89277292 1.72265625 3.8828125 C0 2 0 2 0 0 Z " fill="#191A19" transform="translate(711,703)"/>
<path d="M0 0 C0.99 0.33 1.98 0.66 3 1 C-17.67528676 14.21063608 -17.67528676 14.21063608 -23 16 C-23.99 15.67 -24.98 15.34 -26 15 C-25.35450195 14.65219482 -24.70900391 14.30438965 -24.04394531 13.94604492 C-21.1108158 12.36319914 -18.18039264 10.77540651 -15.25 9.1875 C-14.23421875 8.64029297 -13.2184375 8.09308594 -12.171875 7.52929688 C-10.70234375 6.73168945 -10.70234375 6.73168945 -9.203125 5.91796875 C-8.30239258 5.43094482 -7.40166016 4.9439209 -6.47363281 4.44213867 C-3.97239022 3.07013069 -3.97239022 3.07013069 -1.86230469 1.25512695 C-1.24774414 0.84093506 -0.63318359 0.42674316 0 0 Z " fill="#1B1C1B" transform="translate(825,825)"/>
<path d="M0 0 C3.17344834 3.01910439 5.39076013 6.52489443 7.75 10.1875 C11.44926466 15.84795995 15.29061429 21.11908038 20 26 C19.34 26.66 18.68 27.32 18 28 C0 5.7034358 0 5.7034358 0 0 Z " fill="#171817" transform="translate(621,778)"/>
<path d="M0 0 C-0.95519531 0.4846875 -1.91039062 0.969375 -2.89453125 1.46875 C-11.1494634 5.72521611 -18.66328957 10.26485837 -26 16 C-26 15.01 -26 14.02 -26 13 C-20.38928308 7.9102007 -7.94083275 -3.07684239 0 0 Z " fill="#171817" transform="translate(666,557)"/>
<path d="M0 0 C-2.38475813 2.76631943 -4.07265175 4.02983911 -7.5 5.4375 C-12.27247308 7.56806834 -14.1573786 10.10410184 -16.25 14.8125 C-16.4975 15.534375 -16.745 16.25625 -17 17 C-17.33 17 -17.66 17 -18 17 C-17.90081705 12.14003526 -17.1974093 9.75723419 -13.75 6.25 C-9.40077728 2.30019569 -6.11949901 -0.52452849 0 0 Z " fill="#161817" transform="translate(290,353)"/>
<path d="M0 0 C3.35772866 1.50173644 5.92960039 3.46366402 8.75 5.8125 C12.99484559 9.27009678 17.29338058 12.2108922 22 15 C21.01 15.33 20.02 15.66 19 16 C16.8359375 14.8125 16.8359375 14.8125 14.375 13 C13.4984375 12.35675781 12.621875 11.71351563 11.71875 11.05078125 C10.37296875 10.03564453 10.37296875 10.03564453 9 9 C8.1234375 8.35417969 7.246875 7.70835937 6.34375 7.04296875 C1.67881548 3.53688663 1.67881548 3.53688663 0 2 C0 1.34 0 0.68 0 0 Z " fill="#121312" transform="translate(650,815)"/>
<path d="M0 0 C0.91007812 0.00902344 1.82015625 0.01804687 2.7578125 0.02734375 C3.80582031 0.04474609 3.80582031 0.04474609 4.875 0.0625 C4.875 0.3925 4.875 0.7225 4.875 1.0625 C-0.57 1.5575 -0.57 1.5575 -6.125 2.0625 C-6.125 3.0525 -6.125 4.0425 -6.125 5.0625 C-8.5 7.625 -8.5 7.625 -11.125 10.0625 C-11.785 10.7225 -12.445 11.3825 -13.125 12.0625 C-13.455 10.4125 -13.785 8.7625 -14.125 7.0625 C-13.00220538 6.08080524 -11.87668527 5.10222702 -10.75 4.125 C-9.81027344 3.30708984 -9.81027344 3.30708984 -8.8515625 2.47265625 C-5.81235033 -0.00959622 -3.85402349 -0.04941056 0 0 Z " fill="#181B1A" transform="translate(304.125,458.9375)"/>
<path d="M0 0 C3.65371865 1.82685933 4.29104704 6.56807293 5.625 10.25 C5.94984375 11.10980469 6.2746875 11.96960938 6.609375 12.85546875 C7.06957031 14.11037109 7.06957031 14.11037109 7.5390625 15.390625 C7.81959473 16.15407227 8.10012695 16.91751953 8.38916016 17.70410156 C9.05894686 20.22155725 9.1070673 22.40633749 9 25 C6.37695222 21.06542833 4.99225181 16.9244328 3.375 12.5 C2.88773438 11.19869141 2.88773438 11.19869141 2.390625 9.87109375 C1.93042969 8.62005859 1.93042969 8.62005859 1.4609375 7.34375 C1.04013916 6.20196289 1.04013916 6.20196289 0.61083984 5.03710938 C0 3 0 3 0 0 Z " fill="#1B1C1B" transform="translate(917,346)"/>
<path d="M0 0 C6.41069287 5.27101414 12.18590512 11.09128152 18 17 C17.34 17.66 16.68 18.32 16 19 C13.51297873 16.40323752 11.03679365 13.79638805 8.5625 11.1875 C7.50192383 10.08051758 7.50192383 10.08051758 6.41992188 8.95117188 C5.74638672 8.23896484 5.07285156 7.52675781 4.37890625 6.79296875 C3.7557251 6.1383667 3.13254395 5.48376465 2.49047852 4.80932617 C1 3 1 3 0 0 Z " fill="#171918" transform="translate(808,801)"/>
<path d="M0 0 C3 2 3 2 3.625 4.0234375 C3.74875 4.79945313 3.8725 5.57546875 4 6.375 C4.68017995 9.95459112 5.41616866 12.29872178 8 15 C7.01 15.33 6.02 15.66 5 16 C0.3047537 10.39599635 -0.11588746 7.06913526 0 0 Z " fill="#313231" transform="translate(385,534)"/>
<path d="M0 0 C0.99 0 1.98 0 3 0 C3.74016701 5.70985978 4.10469338 11.24186425 4 17 C2.04020631 14.06030946 1.51679931 12.44977414 0.875 9.0625 C0.70742187 8.20785156 0.53984375 7.35320313 0.3671875 6.47265625 C0 4 0 4 0 0 Z " fill="#1E2020" transform="translate(79,580)"/>
<path d="M0 0 C0.6875 1.8125 0.6875 1.8125 1 4 C-0.5820848 6.13170517 -1.4702818 6.91805464 -4.12109375 7.328125 C-4.88550781 7.30234375 -5.64992188 7.2765625 -6.4375 7.25 C-7.19933594 7.23453125 -7.96117187 7.2190625 -8.74609375 7.203125 C-11 7 -11 7 -13.14453125 6.42578125 C-15.67062294 5.84610968 -16.84266802 6.6901913 -19 8 C-17.39862203 5.38722542 -16.49020006 4.17596925 -13.5625 3.125 C-10.64067725 2.98247206 -9.55955969 3.72022015 -7 5 C-4.36462492 5.00635246 -4.36462492 5.00635246 -2 4 C-0.63979849 2.03241727 -0.63979849 2.03241727 0 0 Z " fill="#101110" transform="translate(708,226)"/>
<path d="M0 0 C0.66 0.33 1.32 0.66 2 1 C1.57589844 1.4125 1.15179687 1.825 0.71484375 2.25 C-3.24981751 6.15366647 -6.91333251 10.17599588 -10.421875 14.49609375 C-12 16 -12 16 -15 16 C-13.25113898 14.08228343 -11.50095499 12.16580317 -9.75 10.25 C-9.25886719 9.71117187 -8.76773438 9.17234375 -8.26171875 8.6171875 C-5.57126836 5.6756284 -2.8468489 2.7926232 0 0 Z " fill="#191919" transform="translate(623,584)"/>
<path d="M0 0 C1.15249624 3.45748873 0.9065289 3.84132615 -0.58203125 6.9765625 C-0.93716797 7.729375 -1.29230469 8.4821875 -1.65820312 9.2578125 C-2.22958008 10.42957031 -2.22958008 10.42957031 -2.8125 11.625 C-3.18181641 12.41390625 -3.55113281 13.2028125 -3.93164062 14.015625 C-6.7309165 19.86545825 -6.7309165 19.86545825 -9 21 C-9 19.35 -9 17.7 -9 16 C-8.34 16 -7.68 16 -7 16 C-6.82984375 15.43152344 -6.6596875 14.86304688 -6.484375 14.27734375 C-4.84932263 9.0677886 -2.86690828 4.64636859 0 0 Z " fill="#151716" transform="translate(147,332)"/>
<path d="M0 0 C0.763125 0.804375 1.52625 1.60875 2.3125 2.4375 C5.5092013 5.48551751 7.08220668 5.91656424 11.4375 6.3125 C15.03131996 6.33202211 15.03131996 6.33202211 17.3125 4.125 C17.869375 3.42375 18.42625 2.7225 19 2 C19.66 1.34 20.32 0.68 21 0 C20.67862916 2.97268023 20.47675271 4.552109 18.2578125 6.63671875 C14.35444552 8.99359605 10.40733362 8.75534491 6 8 C3.29608011 6.61078132 2.06595646 5.33779283 0 3 C0 2.01 0 1.02 0 0 Z " fill="#030504" transform="translate(489,306)"/>
<path d="M0 0 C6.0546875 -0.1953125 6.0546875 -0.1953125 8 0 C8.66 0.66 9.32 1.32 10 2 C9.67 2.66 9.34 3.32 9 4 C5.37 4 1.74 4 -2 4 C-1.34 3.67 -0.68 3.34 0 3 C0 2.01 0 1.02 0 0 Z " fill="#303231" transform="translate(531,476)"/>
<path d="M0 0 C0.33 0 0.66 0 1 0 C1.33 4.62 1.66 9.24 2 14 C6.60532389 15.45314664 6.60532389 15.45314664 9 14 C9.33 15.32 9.66 16.64 10 18 C7 19 7 19 3.875 17.625 C1 16 1 16 0 15 C-0.07313567 12.46950598 -0.09247527 9.96695163 -0.0625 7.4375 C-0.05798828 6.72658203 -0.05347656 6.01566406 -0.04882812 5.28320312 C-0.03700864 3.52209987 -0.01907263 1.76103964 0 0 Z " fill="#303333" transform="translate(342,377)"/>
<path d="M0 0 C1.485 0.99 1.485 0.99 3 2 C2.93417765 3.94175926 2.86568206 5.88353522 2.7734375 7.82421875 C3.18049779 11.73340122 5.53702185 14.04442623 8 17 C4.13375348 15.48111744 2.09450161 13.59057418 0 10 C-0.3294285 6.63879981 -0.23524914 3.36536965 0 0 Z " fill="#121414" transform="translate(301,572)"/>
<path d="M0 0 C0.69480469 0.70511719 1.38960937 1.41023437 2.10546875 2.13671875 C5.09072138 5.12197138 8.19067808 7.97137652 11.3125 10.8125 C11.86228516 11.31458984 12.41207031 11.81667969 12.97851562 12.33398438 C14.31805239 13.55703968 15.65888992 14.77867008 17 16 C12.94040721 16 11.99302054 14.48221464 9.0625 11.75 C8.20785156 10.96109375 7.35320313 10.1721875 6.47265625 9.359375 C5.65667969 8.58078125 4.84070313 7.8021875 4 7 C3.23558594 6.30390625 2.47117187 5.6078125 1.68359375 4.890625 C0 3 0 3 0 0 Z " fill="#101111" transform="translate(544,216)"/>
<path d="M0 0 C0.33 1.32 0.66 2.64 1 4 C-10.55792683 7.39939024 -10.55792683 7.39939024 -16 6 C-16 5.67 -16 5.34 -16 5 C-14.89591797 4.83564453 -14.89591797 4.83564453 -13.76953125 4.66796875 C-6.44134769 3.53139879 -6.44134769 3.53139879 0 0 Z " fill="#666866" transform="translate(352,261)"/>
<path d="M0 0 C2.75 0.8125 2.75 0.8125 5 2 C3.25 5.875 3.25 5.875 1 7 C0.34 6.67 -0.32 6.34 -1 6 C-1 5.34 -1 4.68 -1 4 C-1.99 3.67 -2.98 3.34 -4 3 C-2.3125 1.375 -2.3125 1.375 0 0 Z " fill="#4D4F4D" transform="translate(309,354)"/>
<path d="M0 0 C5.39882424 4.59474404 10.71333087 9.27676273 16 14 C15.01 14.33 14.02 14.66 13 15 C10.82722286 12.88094537 8.66173092 10.75527122 6.5 8.625 C5.87996094 8.02171875 5.25992188 7.4184375 4.62109375 6.796875 C4.03457031 6.21679688 3.44804688 5.63671875 2.84375 5.0390625 C2.29912109 4.50490723 1.75449219 3.97075195 1.19335938 3.42041016 C0 2 0 2 0 0 Z " fill="#0E100F" transform="translate(617,829)"/>
<path d="M0 0 C0.66 0.33 1.32 0.66 2 1 C1.59007812 1.51949219 1.18015625 2.03898438 0.7578125 2.57421875 C-2.13573502 6.31921686 -4.26016396 9.58349313 -6 14 C-6.99 14.33 -7.98 14.66 -9 15 C-7.58399311 8.86397012 -3.9336625 4.73301638 0 0 Z " fill="#161818" transform="translate(603,607)"/>
<path d="M0 0 C0.90492188 0.02320313 1.80984375 0.04640625 2.7421875 0.0703125 C4.10730469 0.09738281 4.10730469 0.09738281 5.5 0.125 C6.19867188 0.14820313 6.89734375 0.17140625 7.6171875 0.1953125 C7.9471875 0.8553125 8.2771875 1.5153125 8.6171875 2.1953125 C7.58658203 2.25138672 7.58658203 2.25138672 6.53515625 2.30859375 C5.63410156 2.37433594 4.73304688 2.44007813 3.8046875 2.5078125 C2.91136719 2.56582031 2.01804687 2.62382812 1.09765625 2.68359375 C-1.72806079 3.26653695 -2.50786816 4.09514962 -4.3828125 6.1953125 C-5.0428125 6.1953125 -5.7028125 6.1953125 -6.3828125 6.1953125 C-3.63053977 0.29758523 -3.63053977 0.29758523 0 0 Z " fill="#1C1D1C" transform="translate(494.3828125,276.8046875)"/>
<path d="M0 0 C6.07328688 -0.50610724 9.77228537 0.95842058 15 4 C15 4.99 15 5.98 15 7 C14.01 6.360625 13.02 5.72125 12 5.0625 C7.99717514 2.74593674 4.58078998 2.32145895 0 2 C0 1.34 0 0.68 0 0 Z " fill="#151817" transform="translate(688,201)"/>
<path d="M0 0 C4.62 0 9.24 0 14 0 C14.33 0.66 14.66 1.32 15 2 C11.71480525 3.09506492 9.26336585 3.09960608 5.8125 3.0625 C4.18248047 3.04896484 4.18248047 3.04896484 2.51953125 3.03515625 C1.68808594 3.02355469 0.85664062 3.01195313 0 3 C0 2.01 0 1.02 0 0 Z " fill="#333534" transform="translate(524,106)"/>
<path d="M0 0 C2.08304538 -0.05418326 4.16649768 -0.09287551 6.25 -0.125 C7.99023438 -0.15980469 7.99023438 -0.15980469 9.765625 -0.1953125 C12.82786046 -0.0103949 14.44202751 0.39176977 17 2 C14.43435275 3.28282363 12.48966931 3.20391953 9.625 3.25 C8.19027344 3.28867188 8.19027344 3.28867188 6.7265625 3.328125 C3.62107853 2.95439914 2.29463934 2.06626291 0 0 Z " fill="#393D3B" transform="translate(480,76)"/>
<path d="M0 0 C0.66 0 1.32 0 2 0 C1.76424191 1.91974447 1.52703475 3.83932597 1.28125 5.7578125 C1.02314664 7.81546983 0.79151089 9.87640198 0.5625 11.9375 C0.376875 12.948125 0.19125 13.95875 0 15 C-0.99 15.495 -0.99 15.495 -2 16 C-1.85890014 13.89551062 -1.71195825 11.7914123 -1.5625 9.6875 C-1.48128906 8.51574219 -1.40007813 7.34398437 -1.31640625 6.13671875 C-1 3 -1 3 0 0 Z " fill="#202221" transform="translate(535,271)"/>
<path d="M0 0 C-3.63 3.3 -7.26 6.6 -11 10 C-11.99 9.67 -12.98 9.34 -14 9 C-13.50628906 8.60167969 -13.01257813 8.20335937 -12.50390625 7.79296875 C-11.86324219 7.26316406 -11.22257813 6.73335937 -10.5625 6.1875 C-9.92441406 5.66542969 -9.28632813 5.14335937 -8.62890625 4.60546875 C-6.7451725 2.99165589 -6.7451725 2.99165589 -6 0 C-3.42525708 -0.99667468 -2.51072708 -1.25536354 0 0 Z " fill="#2E3131" transform="translate(247,166)"/>
<path d="M0 0 C5.04395895 3.51548654 8.37975847 8.11736877 12 13 C11.67 13.66 11.34 14.32 11 15 C9.53308542 13.44555348 8.07679359 11.88107825 6.625 10.3125 C5.81289062 9.44238281 5.00078125 8.57226562 4.1640625 7.67578125 C2.11022491 5.13628893 1.0099332 3.07974134 0 0 Z " fill="#131413" transform="translate(168,781)"/>
<path d="M0 0 C4.6875 1.82291667 4.6875 1.82291667 6.875 3.0625 C9.84146927 4.37123644 12.79734198 4.63046254 16 5 C16 5.33 16 5.66 16 6 C6.06485289 6.62638406 6.06485289 6.62638406 1.8125 4.125 C0 2 0 2 0 0 Z " fill="#121313" transform="translate(679,385)"/>
<path d="M0 0 C3 4 3 4 3.07421875 6.359375 C2.94660156 7.14828125 2.81898438 7.9371875 2.6875 8.75 C2.50767578 9.94882812 2.50767578 9.94882812 2.32421875 11.171875 C2.21722656 11.77515625 2.11023438 12.3784375 2 13 C1.01 12.67 0.02 12.34 -1 12 C-0.67 8.04 -0.34 4.08 0 0 Z " fill="#2F3130" transform="translate(911,574)"/>
<path d="M0 0 C0.66 0 1.32 0 2 0 C2 0.66 2 1.32 2 2 C2.66 2.33 3.32 2.66 4 3 C4 5.31 4 7.62 4 10 C2.68 9.34 1.36 8.68 0 8 C0 5.36 0 2.72 0 0 Z " fill="#353736" transform="translate(250,306)"/>
<path d="M0 0 C0.66 0.33 1.32 0.66 2 1 C-2.95 7.435 -2.95 7.435 -8 14 C-8.33 13.34 -8.66 12.68 -9 12 C-6.03 8.04 -3.06 4.08 0 0 Z " fill="#141514" transform="translate(166,242)"/>
<path d="M0 0 C0.33 0 0.66 0 1 0 C1.33 4.95 1.66 9.9 2 15 C1.01 14.67 0.02 14.34 -1 14 C-1.027193 12.41676312 -1.04648306 10.83338938 -1.0625 9.25 C-1.07410156 8.36828125 -1.08570313 7.4865625 -1.09765625 6.578125 C-1.00826198 4.2181162 -0.66912821 2.25501476 0 0 Z " fill="#323534" transform="translate(945,552)"/>
<path d="M0 0 C0 0.66 0 1.32 0 2 C-0.78375 2.2475 -1.5675 2.495 -2.375 2.75 C-5.43098307 4.20523003 -5.85025533 4.90453358 -7 8 C-7.37125 8.9075 -7.7425 9.815 -8.125 10.75 C-8.558125 11.86375 -8.558125 11.86375 -9 13 C-9.33 13 -9.66 13 -10 13 C-10.56677765 9.14591196 -10.0364642 8.05026147 -7.6875 4.8125 C-3.08888889 0 -3.08888889 0 0 0 Z " fill="#171817" transform="translate(755,414)"/>
<path d="M0 0 C3.63 0.33 7.26 0.66 11 1 C10.01 2.485 10.01 2.485 9 4 C5.52661718 4.37550085 2.38707002 3.77418743 -1 3 C-0.67 2.01 -0.34 1.02 0 0 Z " fill="#303331" transform="translate(716,848)"/>
<path d="M0 0 C3.45201639 1.47721422 5.64961936 3.43794001 8.25 6.125 C8.95640625 6.84945312 9.6628125 7.57390625 10.390625 8.3203125 C11.18726563 9.15175781 11.18726563 9.15175781 12 10 C11.01 10.33 10.02 10.66 9 11 C9 10.34 9 9.68 9 9 C8.01 8.67 7.02 8.34 6 8 C4.64172029 6.35360035 3.30745749 4.68704193 2 3 C1.34 2.67 0.68 2.34 0 2 C0 1.34 0 0.68 0 0 Z " fill="#20201F" transform="translate(661,603)"/>
<path d="M0 0 C0.556875 0.268125 1.11375 0.53625 1.6875 0.8125 C0.511875 1.3384375 0.511875 1.3384375 -0.6875 1.875 C-4.14797272 4.42915844 -4.45786744 6.69472494 -5.3125 10.8125 C-5.9725 10.8125 -6.6325 10.8125 -7.3125 10.8125 C-7.79127076 6.69507146 -7.63415374 5.23243683 -5.0625 1.875 C-2.3125 -0.1875 -2.3125 -0.1875 0 0 Z " fill="#141615" transform="translate(685.3125,202.1875)"/>
<path d="M0 0 C3.42025316 3.42025316 3.95344801 7.71982025 4.125 12.4375 C4.08375 13.283125 4.0425 14.12875 4 15 C2.25674553 12.3851183 1.58412043 10.9946567 0.875 8.0625 C0.70742188 7.39347656 0.53984375 6.72445312 0.3671875 6.03515625 C0 4 0 4 0 0 Z " fill="#1B1C1B" transform="translate(552,751)"/>
<path d="M0 0 C0 0.99 0 1.98 0 3 C-2.40625 4.82421875 -2.40625 4.82421875 -5.5 6.6875 C-7.03140625 7.62142578 -7.03140625 7.62142578 -8.59375 8.57421875 C-9.3878125 9.04472656 -10.181875 9.51523438 -11 10 C-9.54144353 6.31353859 -7.69770955 4.83856029 -4.375 2.75 C-3.55773437 2.22921875 -2.74046875 1.7084375 -1.8984375 1.171875 C-1.27195312 0.78515625 -0.64546875 0.3984375 0 0 Z " fill="#161717" transform="translate(261,152)"/>
<path d="M0 0 C0.33 0 0.66 0 1 0 C1.19294408 4.82360189 0.75747614 8.49646738 -1 13 C-1.33 13 -1.66 13 -2 13 C-2 9.37 -2 5.74 -2 2 C-1.34 2 -0.68 2 0 2 C0 1.34 0 0.68 0 0 Z " fill="#1A1B1A" transform="translate(940,596)"/>
<path d="M0 0 C0.33 0 0.66 0 1 0 C1.28571429 7.42857143 1.28571429 7.42857143 -1 11 C-1.66 10.67 -2.32 10.34 -3 10 C-2.67 7.69 -2.34 5.38 -2 3 C-1.34 3 -0.68 3 0 3 C0 2.01 0 1.02 0 0 Z " fill="#171A1A" transform="translate(942,584)"/>
<path d="M0 0 C0 0.99 0 1.98 0 3 C-0.66 3 -1.32 3 -2 3 C-2.28875 3.5775 -2.5775 4.155 -2.875 4.75 C-3.91666667 6.83333333 -4.95833333 8.91666667 -6 11 C-6.66 11 -7.32 11 -8 11 C-6.46457536 6.52167812 -4.39145948 2.19572974 0 0 Z " fill="#181A19" transform="translate(364,222)"/>
<path d="M0 0 C2 1 2 1 3.8125 2.375 C6.1228766 4.09127976 8.51541211 5.55065706 11 7 C10.01 7.495 10.01 7.495 9 8 C6.65234375 7.07421875 6.65234375 7.07421875 3.9375 5.6875 C3.03902344 5.23761719 2.14054688 4.78773437 1.21484375 4.32421875 C-1 3 -1 3 -2 1 C-1.34 0.67 -0.68 0.34 0 0 Z " fill="#2E3232" transform="translate(712,123)"/>
<path d="M0 0 C3.96 0 7.92 0 12 0 C12 0.66 12 1.32 12 2 C12.66 2.33 13.32 2.66 14 3 C12.04098546 2.88617347 10.0827662 2.75858875 8.125 2.625 C7.03445313 2.55539063 5.94390625 2.48578125 4.8203125 2.4140625 C2 2 2 2 0 0 Z " fill="#111313" transform="translate(587,114)"/>
<path d="M0 0 C1.27875 -0.061875 2.5575 -0.12375 3.875 -0.1875 C4.95394531 -0.23970703 4.95394531 -0.23970703 6.0546875 -0.29296875 C6.69664062 -0.19628906 7.33859375 -0.09960938 8 0 C8.66 0.99 9.32 1.98 10 3 C3.375 3.125 3.375 3.125 0 2 C0 1.34 0 0.68 0 0 Z " fill="#202221" transform="translate(697,879)"/>
<path d="M0 0 C-3.63 2.31 -7.26 4.62 -11 7 C-11 6.01 -11 5.02 -11 4 C-9.35546875 2.578125 -9.35546875 2.578125 -7.1875 1.25 C-6.47980469 0.80140625 -5.77210938 0.3528125 -5.04296875 -0.109375 C-3 -1 -3 -1 0 0 Z " fill="#141515" transform="translate(828,826)"/>
<path d="M0 0 C2.10633718 1.70828921 2.93801608 2.52148416 3.29296875 5.26171875 C3.25816406 6.06222656 3.22335937 6.86273438 3.1875 7.6875 C3.16042969 8.49574219 3.13335937 9.30398438 3.10546875 10.13671875 C3.07066406 10.75160156 3.03585937 11.36648438 3 12 C0.50494038 9.50494038 0.64051624 8.32671112 0.375 4.875 C0.30023438 3.96492188 0.22546875 3.05484375 0.1484375 2.1171875 C0.09945313 1.41851562 0.05046875 0.71984375 0 0 Z " fill="#141615" transform="translate(405,497)"/>
<path d="M0 0 C0.99 0 1.98 0 3 0 C3 1.65 3 3.3 3 5 C3.66 5.33 4.32 5.66 5 6 C3.02 6.33 1.04 6.66 -1 7 C-0.67 4.69 -0.34 2.38 0 0 Z " fill="#4D504D" transform="translate(319,264)"/>
<path d="M0 0 C2.97 0.33 5.94 0.66 9 1 C8.67 1.66 8.34 2.32 8 3 C5.03 3 2.06 3 -1 3 C-0.67 2.01 -0.34 1.02 0 0 Z " fill="#1B1E1D" transform="translate(465,945)"/>
<path d="M0 0 C0.33 0.66 0.66 1.32 1 2 C-0.98 4.97 -0.98 4.97 -3 8 C-3.33 7.01 -3.66 6.02 -4 5 C-4.66 4.67 -5.32 4.34 -6 4 C-4.02 2.68 -2.04 1.36 0 0 Z " fill="#1D1E1C" transform="translate(569,622)"/>
<path d="M0 0 C1.34173403 0.92543709 2.67320159 1.86577405 4 2.8125 C5.11375 3.59560547 5.11375 3.59560547 6.25 4.39453125 C6.8275 4.92433594 7.405 5.45414063 8 6 C8 6.99 8 7.98 8 9 C6.8450079 8.26418258 5.70125815 7.51069961 4.5625 6.75 C3.60537109 6.12351562 3.60537109 6.12351562 2.62890625 5.484375 C0.70097943 3.72751123 0.38520564 2.53910197 0 0 Z " fill="#1B1D1C" transform="translate(492,549)"/>
<path d="M0 0 C0.66 0.33 1.32 0.66 2 1 C-0.97 3.64 -3.94 6.28 -7 9 C-7 6 -7 6 -5.46875 4.39453125 C-4.49421875 3.61142578 -4.49421875 3.61142578 -3.5 2.8125 C-2.8503125 2.28269531 -2.200625 1.75289062 -1.53125 1.20703125 C-1.0259375 0.80871094 -0.520625 0.41039062 0 0 Z " fill="#121312" transform="translate(239,168)"/>
<path d="M0 0 C-0.33 0.66 -0.66 1.32 -1 2 C-2.77734375 2.484375 -2.77734375 2.484375 -4.9375 2.75 C-5.64777344 2.84796875 -6.35804688 2.9459375 -7.08984375 3.046875 C-9 3 -9 3 -11 1 C-7.27569643 0.30710631 -3.78916254 -0.11144596 0 0 Z " fill="#ECEDEB" transform="translate(451,113)"/>
<path d="M0 0 C1 3 1 3 -0.4375 6.1875 C-1.2109375 7.5796875 -1.2109375 7.5796875 -2 9 C-2.33 9 -2.66 9 -3 9 C-3 7.02 -3 5.04 -3 3 C-2.34 3 -1.68 3 -1 3 C-0.67 2.01 -0.34 1.02 0 0 Z " fill="#191B1A" transform="translate(135,359)"/>
<path d="M0 0 C0 3.99904969 -1.72586967 5.80200422 -4 9 C-4.8125 7.3125 -4.8125 7.3125 -5 5 C-2.5625 2.25 -2.5625 2.25 0 0 Z " fill="#1B1D1C" transform="translate(289,232)"/>
<path d="M0 0 C3.63 0 7.26 0 11 0 C11 0.33 11 0.66 11 1 C9.02 1 7.04 1 5 1 C5 1.66 5 2.32 5 3 C3.35 2.67 1.7 2.34 0 2 C0 1.34 0 0.68 0 0 Z " fill="#E3E2E1" transform="translate(554,111)"/>
<path d="M0 0 C3.81684226 1.55500981 6.19195732 4.03595495 9 7 C5.13066838 6.42676569 2.84777943 4.61046448 0 2 C0 1.34 0 0.68 0 0 Z " fill="#1B1C1B" transform="translate(650,815)"/>
<path d="M0 0 C2.64 0 5.28 0 8 0 C8 0.66 8 1.32 8 2 C8.66 2.66 9.32 3.32 10 4 C5.78087253 3.5205537 3.20336822 2.83374881 0 0 Z " fill="#303332" transform="translate(427,621)"/>
<path d="M0 0 C5.53846154 -0.36923077 5.53846154 -0.36923077 7.875 1.5 C8.24625 1.995 8.6175 2.49 9 3 C6.36 3 3.72 3 1 3 C0.67 2.01 0.34 1.02 0 0 Z " fill="#343736" transform="translate(169,615)"/>
<path d="M0 0 C0.66 0.33 1.32 0.66 2 1 C1.67 3.97 1.34 6.94 1 10 C-0.87376865 6.2524627 -1.3214079 4.96403081 -1 1 C-0.67 0.67 -0.34 0.34 0 0 Z " fill="#343635" transform="translate(305,362)"/>
<path d="M0 0 C0.763125 0.804375 1.52625 1.60875 2.3125 2.4375 C4.79430898 5.16799024 4.79430898 5.16799024 8 6 C8 6.66 8 7.32 8 8 C4.67689517 6.83242263 2.16638868 5.85051143 0 3 C0 2.01 0 1.02 0 0 Z " fill="#0E100F" transform="translate(489,306)"/>
<path d="M0 0 C0 4.38968456 -2.12805101 5.76905739 -5 9 C-5.66 8.67 -6.32 8.34 -7 8 C-4.69 5.36 -2.38 2.72 0 0 Z " fill="#121313" transform="translate(176,230)"/>
<path d="M0 0 C2.97 0 5.94 0 9 0 C9 0.99 9 1.98 9 3 C7.02 3 5.04 3 3 3 C3 2.34 3 1.68 3 1 C2.01 0.67 1.02 0.34 0 0 Z " fill="#303432" transform="translate(471,107)"/>
<path d="M0 0 C1.093125 0.226875 2.18625 0.45375 3.3125 0.6875 C1.3125 2.6875 1.3125 2.6875 -0.6328125 2.8828125 C-2.65104167 2.81770833 -4.66927083 2.75260417 -6.6875 2.6875 C-4.58035839 -0.41123767 -3.86755884 -0.32775922 0 0 Z " fill="#353837" transform="translate(726.6875,883.3125)"/>
<path d="M0 0 C3.875 1.75 3.875 1.75 5 4 C4.34 4.66 3.68 5.32 3 6 C1.68 4.35 0.36 2.7 -1 1 C-0.67 0.67 -0.34 0.34 0 0 Z " fill="#313232" transform="translate(682,624)"/>
<path d="M0 0 C0.66 0.66 1.32 1.32 2 2 C1.75 5.0625 1.75 5.0625 1 8 C0.01 8.495 0.01 8.495 -1 9 C-0.67 6.03 -0.34 3.06 0 0 Z " fill="#E4E5E3" transform="translate(943,587)"/>
<path d="M0 0 C0.66 0.33 1.32 0.66 2 1 C0.75023244 4.65316671 0.32901247 5.78065836 -3 8 C-3.36923077 3.44615385 -3.36923077 3.44615385 -1.5 1.1875 C-1.005 0.795625 -0.51 0.40375 0 0 Z " fill="#242625" transform="translate(210,502)"/>
<path d="M0 0 C1.0625 1.8125 1.0625 1.8125 2 4 C1 7 1 7 -1 8 C-1.33 5.69 -1.66 3.38 -2 1 C-1.34 0.67 -0.68 0.34 0 0 Z " fill="#373A38" transform="translate(904,401)"/>
<path d="M0 0 C0.33 0.66 0.66 1.32 1 2 C-0.98 4.31 -2.96 6.62 -5 9 C-5 4.61031544 -2.87194899 3.23094261 0 0 Z " fill="#303433" transform="translate(166,245)"/>
<path d="M0 0 C3.76488042 1.72154788 6.15063897 3.99234114 9 7 C6 7 6 7 4.39453125 5.46875 C3.87246094 4.8190625 3.35039063 4.169375 2.8125 3.5 C2.28269531 2.8503125 1.75289062 2.200625 1.20703125 1.53125 C0.80871094 1.0259375 0.41039062 0.520625 0 0 Z " fill="#191C1A" transform="translate(781,208)"/>
<path d="M0 0 C-0.99 0.495 -0.99 0.495 -2 1 C-2 1.66 -2 2.32 -2 3 C-3.65 3 -5.3 3 -7 3 C-7.33 2.34 -7.66 1.68 -8 1 C-5.29120665 -0.35439668 -2.99066732 -0.06501451 0 0 Z " fill="#2F3230" transform="translate(583,111)"/>
</svg>
